<svg width="88" height="83" viewBox="0 0 88 83" fill="none" xmlns="http://www.w3.org/2000/svg">
<path d="M47.9453 82.8381C43.6953 82.8381 38.737 81.0808 29.8828 78.2691C26.6953 77.2147 22.7995 75.8088 18.1953 74.4029C17.1328 74.0515 16.7786 72.9971 17.1328 72.2942C17.487 71.2398 18.5495 70.8883 19.2578 71.2398C24.2161 72.2942 27.7578 73.3486 31.2995 74.7544C49.362 81.0808 49.362 81.0808 66.7161 71.5912C70.9661 69.131 76.2786 66.3193 83.0078 63.1561C80.1745 61.0473 78.4036 61.0473 75.9245 61.7502L60.3412 67.0222C59.2787 67.3737 58.5703 66.6707 58.2161 65.9678C57.862 64.9134 58.5703 64.2105 59.2786 63.859L74.862 58.587C79.4661 57.1812 83.0078 58.2356 87.2578 62.4532C87.612 62.8046 87.9661 63.5075 87.612 63.859C87.612 64.5619 87.2578 64.9134 86.5495 65.2649C78.7578 69.131 72.737 72.2942 67.7786 74.7544C58.2161 80.0264 53.2578 82.8381 47.9453 82.8381Z" fill="#004155"/>
<path d="M61.625 46.0418H60.2083C58.0833 45.6904 55.25 44.2845 53.4792 39.7155C49.9375 37.2552 49.2292 34.4435 49.2292 32.3347C49.2292 29.523 51 26.7113 54.1875 24.6025C57.0209 22.8452 59.5 22.1423 62.3334 21.4393C64.8125 20.7364 67.6458 20.0335 70.8333 17.5732C71.1875 17.2218 71.8959 17.2218 72.25 17.2218C72.6042 17.2218 73.3125 17.5732 73.3125 18.2762C76.5 25.3054 74.0209 37.6067 69.7709 41.8243C67.6459 44.636 64.4583 46.0418 61.625 46.0418ZM71.1875 21.7908C68.3542 23.5481 65.5208 24.251 63.0417 24.954C60.5625 25.6569 58.4375 26.0084 55.9584 27.7657C53.8334 29.1715 52.7708 30.9289 52.7708 32.6862C52.7708 34.795 54.5417 36.2008 55.9584 37.2552L56.6667 37.9582C57.7292 40.7699 59.1458 42.5272 61.2708 42.8787C63.75 43.2301 66.2292 41.4728 68 39.7155C70.4792 36.5523 72.6042 27.7657 71.1875 21.7908ZM30.8125 39.364C27.2709 39.364 23.375 37.2552 19.8334 32.6862C14.1667 26.7113 12.0417 10.1925 17 1.05439C17 0.351464 17.7084 0 18.0625 0C18.4167 0 19.125 0 19.4792 0.351464C23.0209 3.51464 27.2708 4.56904 31.5208 5.9749C36.125 7.38075 40.7292 8.78661 43.9167 12.6527C47.4583 16.8703 48.875 20.7364 47.8125 24.251C47.1042 27.4142 44.2708 30.2259 39.6667 32.3347C37.5417 36.5523 34.7083 39.0126 31.5208 39.7155C31.5208 39.364 31.1667 39.364 30.8125 39.364ZM19.125 4.56904C16.2917 12.6527 18.0625 26.0084 22.3125 30.9289C25.5 34.4435 28.6875 36.5523 31.1667 36.2008C33.2917 35.8494 35.4167 33.7406 36.8333 30.2259C37.1875 29.8745 37.1875 29.523 37.8959 29.1715C41.7917 27.4142 43.9167 25.6569 44.625 23.1967C45.3334 20.3849 43.2083 16.8703 41.4375 14.7615C38.9584 11.5983 35.0625 10.5439 30.8125 9.13808C26.9167 8.43515 23.0209 7.02929 19.125 4.56904Z" fill="#004155"/>
<path d="M47.8125 52.3683C46.75 52.3683 46.3958 51.6653 46.0417 50.9624C46.0417 50.6109 41.4375 30.5775 24.4375 15.4645C23.7292 14.7616 23.7292 13.7072 24.4375 13.0042C25.1458 12.3013 26.2083 12.3013 26.9167 13.0042C40.0208 24.6026 46.0417 38.6612 48.1667 45.6904C50.6458 40.7699 55.6042 33.3892 63.0417 29.8745C63.75 29.5231 64.8125 29.8745 65.5208 30.5775C65.875 31.2804 65.5208 32.3348 64.8125 33.0377C54.8958 37.9582 49.9375 51.3139 49.5833 51.3139C49.2292 52.0168 48.5208 52.3683 47.8125 52.3683ZM15.9375 80.8369H1.77083C0.708333 80.8369 0 80.134 0 79.0796V50.9624C0 49.908 0.708333 49.2051 1.77083 49.2051H15.9375C17 49.2051 17.7083 49.908 17.7083 50.9624V79.0796C17.7083 80.134 17 80.8369 15.9375 80.8369ZM3.54167 77.3222H14.1667V52.7197H3.54167V77.3222Z" fill="#004155"/>
<path d="M53.1253 70.2929H33.6462C32.5837 70.2929 31.8753 69.59 31.8753 68.5356C31.8753 67.4812 32.5837 66.7783 33.6462 66.7783H53.1253C54.8962 66.7783 55.6045 65.7239 55.6045 65.021C55.6045 64.3181 54.8962 63.2637 53.1253 63.2637H42.5003C42.1462 63.2637 41.4378 62.9122 41.0837 62.9122C39.3128 60.8034 34.0003 56.2344 26.5628 56.2344H15.9378C14.8753 56.2344 14.167 55.5314 14.167 54.477C14.167 53.4227 14.8753 52.7197 15.9378 52.7197H26.5628C34.7087 52.7197 40.7295 57.2888 43.2087 59.749H53.1253C57.0212 59.749 59.1462 62.5607 59.1462 65.021C59.1462 67.4812 57.0212 70.2929 53.1253 70.2929Z" fill="#004155"/>
</svg>
