<svg width="981" height="793" viewBox="0 0 981 793" fill="none" xmlns="http://www.w3.org/2000/svg">
<g clip-path="url(#clip0_135_682)">
<path d="M927.877 615.413L927.747 616.773L930.097 618.043L930.047 618.623L931.607 619.883L934.147 625.743L935.857 627.003L937.417 627.113L938.377 628.423L941.167 629.453L942.397 631.683L947.617 633.783L949.517 635.673L950.627 636.153L954.187 634.843L955.427 636.033L956.927 639.943L961.317 644.123L964.247 645.313L966.687 647.933L970.687 650.443L974.367 651.473L974.827 652.183L977.477 652.003L978.497 652.793L978.597 654.393L979.777 654.583L979.477 656.043L979.947 657.083L978.837 657.753L978.277 659.533L978.507 660.803L978.637 662.043L980.077 664.713L979.647 665.283L980.197 666.753L979.327 668.643L977.537 670.273L977.797 672.083L977.617 673.083L976.167 673.253L975.617 675.573L973.657 677.343L974.067 679.003L975.247 680.343L974.627 681.883L975.107 683.333L973.177 684.883L969.897 689.563L968.437 689.833L964.627 688.253L961.407 688.083L953.387 685.853L949.427 683.163L947.947 683.253L942.597 679.153L936.827 676.613L935.227 676.933L930.037 673.823L927.557 674.173L923.137 671.503L920.337 667.713L918.367 667.223L917.027 665.483L915.747 664.873L915.977 664.363L916.707 663.813L916.097 662.743L914.517 663.343L915.107 661.893L916.857 661.013L917.247 659.283L916.767 657.423L917.897 655.343L917.717 645.613L916.997 642.553L917.547 641.673L917.117 639.423L918.557 633.013L924.217 622.013L924.887 619.763L924.147 618.733L924.097 617.393L927.077 614.523L927.877 615.413ZM645.587 534.393L644.817 531.733L645.557 531.363L645.047 530.393L645.167 529.933L645.627 529.643L645.617 527.343L646.387 526.513L646.047 525.643L646.457 524.813H647.207L648.887 524.623L649.627 523.493L650.737 524.853L651.107 526.423L651.297 531.213L651.797 531.583L651.627 535.653L652.537 536.293L651.857 537.403L653.187 538.763L651.477 539.733L648.997 539.723L648.587 537.823L647.527 537.063L647.617 536.073L646.087 536.503L645.527 535.393L646.117 535.643L646.207 534.753L645.587 534.393ZM628.227 519.953L630.887 519.123L631.307 519.803L629.217 521.443L630.577 523.883L630.967 523.653L629.787 521.573L631.257 520.463L631.757 521.593L630.867 522.723L632.537 521.873L633.107 522.783L631.727 524.583L631.047 523.783L630.597 524.013L630.817 525.613L632.147 528.763L633.067 529.593V530.903L634.257 532.033L633.897 532.953L636.837 533.263L637.557 534.213L637.627 537.953L636.027 540.193L636.727 542.793L637.717 543.153L637.007 543.593L637.447 544.033L635.237 545.623L630.797 546.943L628.857 549.533L625.247 552.313L621.367 551.003L620.417 547.513L618.197 548.003L616.437 547.003L614.227 542.703L613.777 539.183L617.367 533.693L619.787 531.343L621.977 526.303L623.577 524.153L625.857 522.173L626.607 520.713H627.017L627.147 519.463L627.307 518.993L627.507 517.463L629.817 517.423L630.297 518.243L628.227 519.953ZM541.267 464.343L542.457 464.573L543.847 463.903L546.617 465.853L546.937 467.583L544.817 470.093L544.437 471.523L543.457 472.123L542.977 476.713L543.517 477.903L547.457 479.673L548.377 483.023L548.647 488.473L550.607 489.853L549.037 490.703L548.957 492.503L549.367 493.223L550.397 492.993L551.427 492.923L550.627 496.073L552.627 500.463L552.137 502.003L550.997 502.913L551.167 503.603L552.117 503.883L551.687 504.643L551.847 506.963L552.347 507.423L551.967 509.473L551.027 508.593L549.857 508.673L548.867 509.603L547.967 509.953L546.877 510.043L545.287 511.443L544.327 511.233L544.237 508.343L542.817 509.033L542.057 506.863L540.737 509.443L533.927 505.723L530.207 509.143L526.157 507.553L523.537 507.883L523.447 504.023L522.667 504.333L522.027 503.063L522.987 503.213L523.727 501.553L524.587 493.193L526.567 491.923L526.447 488.853L531.337 487.263L532.487 488.213L535.207 486.993L536.297 485.443L537.847 479.633L535.767 474.823L534.177 473.983L533.577 472.403L533.837 469.723L529.807 463.203L530.317 458.383L538.437 460.403L541.267 464.343ZM586.207 411.973L588.717 412.963L591.637 413.383L596.627 417.953L599.957 418.393L603.497 419.963L606.477 419.573L612.257 420.423L618.007 423.273L627.197 432.163L629.687 433.313L629.407 433.883L628.367 433.733L628.517 435.073L627.427 436.173L625.907 439.823L621.367 444.143L618.787 449.783L616.347 457.773L615.657 459.013L615.697 460.573L614.917 462.233L618.437 470.793L618.817 472.083L622.547 480.443L623.217 489.363L624.577 491.273L625.787 495.153L625.297 498.513L626.517 502.183L623.637 508.913L624.677 510.123L624.317 510.653L624.197 512.933L625.057 513.683L625.757 511.983L626.387 511.773L626.687 510.513L629.567 512.453L628.827 513.023L629.367 513.283L627.967 514.433L625.837 513.723L625.737 514.323L626.677 515.033L625.247 515.303L625.577 516.053L625.667 517.813L626.207 517.843L626.467 519.033L625.537 521.923L621.187 525.793L621.357 526.553L621.257 526.803L620.637 528.283L619.897 529.633L619.067 528.693L618.527 529.073L618.687 530.073L619.157 529.613L619.887 529.973L619.117 531.193L618.897 531.673L616.857 533.483L616.907 531.993L613.807 532.853L613.437 532.493L611.687 536.463L612.247 537.493L613.047 537.683L611.267 541.143L605.357 540.253L604.997 539.003L604.887 538.493L600.357 538.083L598.737 538.533L598.817 537.923L600.057 537.713L604.837 538.293L604.527 537.553L598.987 537.313L598.377 538.573L598.017 537.773L596.397 538.153L595.617 539.053L595.767 539.413L596.437 538.803L596.787 539.043L597.387 538.663L597.557 539.453L598.347 539.133L598.677 539.743L593.637 542.743L592.717 541.933L592.527 541.703L590.027 539.363L582.937 537.103L581.587 535.873L577.007 537.893L575.897 536.143L573.157 536.973L572.367 540.183L565.477 538.163L566.467 532.933L565.127 533.003L565.267 529.243L564.197 523.923L569.047 519.713L572.727 519.963L578.087 514.773L573.057 510.263L574.197 507.183L574.827 506.983L572.267 504.413L566.497 505.323L564.097 502.983L561.167 501.663L558.427 498.493L555.747 496.983L553.557 495.583L554.227 492.473L552.837 490.183L552.117 485.333L551.347 485.493L550.427 483.803L550.777 483.333L550.377 481.943L549.197 481.483L549.837 478.053L552.287 477.543L552.637 473.233L551.087 471.233L549.827 467.693L550.057 464.123L548.857 460.393L546.537 456.193L545.887 452.973L544.937 453.103L543.987 452.773L543.007 451.843L541.877 451.653L540.177 451.213L536.397 453.313L535.657 454.583L534.147 455.403L528.257 457.413L525.557 456.613L524.877 456.723L524.827 457.443L523.117 456.363L521.747 451.203L523.407 448.813L528.577 446.013L544.607 435.373L552.017 428.393L568.217 416.313L570.547 415.063L583.117 411.083L584.587 411.443L586.247 411.033L586.207 411.973Z" fill="#57897E"/>
<path d="M312.027 499.693L311.217 505.163L310.817 505.913L309.167 506.613L305.507 504.993L300.817 505.303L299.137 504.093L299.107 503.173L301.057 501.663L304.577 502.283L308.187 501.283L307.747 499.663L308.997 497.703L308.697 496.583L309.717 493.763L311.117 496.303L312.027 499.693ZM278.917 484.963L279.817 485.013L280.697 486.093L279.467 487.533L278.047 487.973L276.947 487.833L275.437 486.803L274.557 484.743L276.867 483.693L278.917 484.963ZM26.5671 469.983L27.5971 471.123L27.3671 471.663L26.1471 470.953L24.7771 471.053L24.9671 469.443L26.5671 469.983ZM329.457 455.753L327.277 456.963L325.997 456.643L323.897 455.093L322.337 452.953L323.497 452.663L330.647 454.843L329.457 455.243V455.753ZM8.30715 442.493L8.72715 442.753L8.33715 443.483L8.75715 446.183L10.3071 448.383L10.0071 449.373L11.3471 452.033L11.5571 453.823L13.5671 455.383L13.4171 456.823L13.3771 457.673L13.0771 460.733L14.0671 461.593L13.8071 463.793L14.1671 464.813L14.0271 466.493L13.4271 467.243L15.2571 471.953L14.6471 474.083L15.4271 475.473L17.0571 476.543L13.9671 481.313L14.1871 486.033L16.1171 487.993L13.5171 488.473L11.1871 473.573L9.17715 453.863L8.02715 448.243L5.92715 443.243L8.30715 442.493ZM347.177 456.383L350.377 460.523L352.247 461.533L356.827 463.603L356.887 464.083L355.687 465.043L353.797 464.173L352.077 464.453L350.987 465.793L352.097 469.673L353.827 470.233L353.177 471.313L354.137 473.063L355.147 473.533L355.757 474.003L360.377 471.693L360.627 474.803L357.817 477.503L355.357 483.013L354.887 487.893L355.707 489.873L355.567 492.973L354.517 496.213L353.237 497.963L352.547 500.953L346.907 499.623L342.947 499.853L340.987 497.663L339.697 493.563L339.327 486.503L339.937 479.573L342.537 476.593L346.427 476.263L347.367 475.363L348.727 472.223L349.707 466.033L348.877 463.063L346.697 460.213L343.677 458.293L340.777 458.693L339.827 457.133L338.727 451.663L338.897 448.163L344.377 442.363L345.697 452.773L347.177 456.383ZM80.5872 298.243L79.8571 299.353L79.1771 298.863L78.3471 299.233L78.5872 300.473L79.9171 301.133L77.4371 305.413L77.0371 308.263L77.8571 309.853V312.523L75.5671 315.093L75.1171 314.823L76.9571 312.523L75.7571 310.163L75.7971 308.253L74.5071 305.253L78.2771 298.463L80.5872 298.243ZM70.5271 271.453L71.6272 273.603L70.2571 274.923L69.6071 278.543L68.6871 279.963L70.6972 283.173L72.2471 283.823L73.0071 282.693L72.6371 281.073L70.7871 280.313L71.2871 280.063L71.6871 277.943L73.1771 278.333L74.4971 277.713L77.1071 278.943L78.5771 278.233L78.0971 280.223L76.8772 281.993L77.8871 283.603L77.1572 286.453L78.2672 288.533L74.3772 284.723L72.2871 284.493L72.4472 287.623L71.7771 292.453L71.1371 293.463L65.9171 293.633L63.2271 295.403L63.3371 297.073L65.9571 298.103L66.9271 298.903L66.4171 299.233L62.9771 298.503L62.0971 296.903L61.0871 296.373L60.5671 293.693L59.3171 292.403L57.9471 286.813L56.6771 285.143L54.7471 284.083L53.3471 281.823L51.1071 280.223L48.8271 277.543L45.7471 276.013L45.9071 274.643L47.1571 274.883L47.5671 275.863L48.7371 275.973L51.2871 273.513L54.8171 272.343L56.9271 272.883L55.8171 272.893L55.7471 274.303L56.7271 275.623L58.7871 276.973L59.9671 276.863L62.8671 274.973L64.4371 272.763L66.1272 272.863L66.8971 271.533L69.2672 272.303L69.9971 270.803L70.4871 270.773L70.5271 271.453ZM494.937 259.043L496.757 259.503L490.367 264.063L486.147 270.003L484.587 271.223L481.527 271.773L479.587 271.273L477.377 266.723L476.087 264.663L475.337 264.383L478.707 261.943L483.137 262.773L494.937 259.043ZM137.467 242.653L143.827 246.973L143.077 248.823L143.577 251.103L146.407 258.403L151.987 265.053L152.467 266.513L148.577 268.863L146.847 270.993L144.917 274.143L144.537 276.863L141.687 276.623L142.077 281.833L142.797 282.773L140.817 282.413L139.797 282.953L135.797 286.863L134.547 290.903L134.137 295.423L134.437 297.343L135.337 299.653L135.857 301.153L135.467 301.973L136.077 302.973L135.157 303.333L136.227 304.603L138.787 304.583L140.967 301.483L141.667 299.003L140.637 296.343L141.407 292.993L144.157 291.743L145.387 293.473L146.977 293.793L149.207 291.263L149.227 289.013L145.747 289.713L143.507 288.643L147.287 285.253L149.207 279.883L149.867 280.733L149.827 282.343L149.157 283.023L149.037 284.853L150.217 287.153L151.867 288.313L153.937 288.473L157.377 286.223L159.277 286.913L164.767 286.633L163.937 286.993L164.547 287.973L165.867 287.363L167.597 288.203L169.087 291.413L168.407 291.363L167.987 292.623L168.357 293.123L164.427 295.813L163.757 295.463L163.477 298.043L162.177 300.253L163.537 300.863L164.267 304.843L166.207 307.703L169.137 310.353L170.917 310.403L169.837 311.863L169.757 313.653L170.767 313.343L170.707 312.493L174.807 308.593L177.217 309.263L178.527 310.283L179.397 309.973L178.837 305.883L179.167 303.313L180.067 302.103L179.147 301.763L177.717 302.213L175.057 304.343L170.977 305.793L169.257 305.493L167.917 302.733L169.367 294.813L169.447 293.243L168.607 292.323L170.047 291.683L171.237 289.653L171.697 287.483L171.367 285.133L172.527 283.703L173.167 280.633L172.427 275.623L177.197 275.823L178.757 278.023L182.997 277.333L182.837 280.323L187.797 283.853L191.227 284.483L194.227 275.013L196.347 274.853L196.767 273.063L200.897 273.503L201.417 273.823L200.547 275.763L201.137 276.303L201.967 275.913L202.147 277.023L202.697 276.903L203.147 277.843L201.347 279.543L201.737 280.993L206.837 281.603L206.277 284.963L210.857 286.523L214.827 285.753L221.007 286.633L221.767 290.173L217.397 291.663L217.267 298.803L221.937 296.253L226.877 297.503L232.097 304.953L238.337 303.393L243.457 306.193L249.847 304.783L250.327 301.343L251.157 300.223L253.287 300.383L259.517 298.513L260.977 294.593L263.647 296.023L272.397 293.343L278.687 288.973L282.627 287.813L283.827 284.563L283.647 282.133L288.517 280.683L288.287 277.563L293.817 274.043L293.467 272.553L294.957 273.183L301.407 269.093L303.507 269.043L305.917 270.303L308.327 269.423L309.417 268.373L313.417 268.273L315.417 270.443L316.817 278.263L315.287 278.423L314.987 279.173L316.427 282.303L316.277 283.963L314.107 287.943L307.837 291.433L305.667 295.913L303.197 296.703L300.687 299.253L300.267 301.573L299.177 304.103L298.337 305.113L297.167 305.023L296.327 308.033L298.087 317.913L296.077 324.683L295.257 325.273L291.907 325.693L284.377 329.083L283.067 328.603L282.717 327.133L278.717 326.683L276.897 327.183L277.077 327.683L274.077 328.043L272.407 329.223L271.447 329.633L265.857 329.283L262.747 332.243L263.727 331.933L264.987 330.453L266.007 329.443L271.507 329.933L275.667 328.153L278.987 327.583L282.047 328.443L284.847 329.643L292.377 325.973L294.077 325.933L296.967 325.003L301.157 326.753L307.317 326.333L307.027 325.873L303.417 325.433L301.197 325.703L299.717 325.093L298.837 323.693L298.727 322.323L298.947 318.363L298.857 317.533L298.987 314.503L298.487 313.573L299.297 308.313L300.097 306.653L301.587 305.873L301.637 303.883L304.407 299.553L306.377 298.513L308.497 295.813L308.467 291.833L309.607 292.003L310.687 293.413L311.857 293.423L314.107 294.753L314.577 299.303L315.557 301.613L318.917 306.573L322.787 310.403L325.767 312.423L336.857 315.463L344.117 315.093L359.507 311.273L365.557 311.003L369.247 310.493L372.807 309.203L376.787 309.343L378.857 310.413L382.417 311.043L385.837 314.303L388.027 321.943L391.037 323.513L393.317 325.823L394.637 326.223L398.087 329.623L398.467 331.713L399.217 332.453L398.787 334.503L397.397 334.463L396.027 335.593L394.647 338.633L395.217 339.223L394.837 341.143L394.977 341.843L393.997 342.573L394.117 345.553L393.197 348.993L393.167 357.753L387.337 365.813L386.107 368.643L382.797 370.733L381.727 372.273L378.877 379.293L376.157 382.533L372.837 383.563L370.577 385.673L368.937 388.643L368.227 391.863L369.017 398.423L365.467 407.883L361.997 408.043L360.747 406.883L360.427 404.623L359.287 403.873L355.907 401.043L354.867 398.663L354.837 396.653L355.617 396.433L357.297 397.663L358.527 397.153L359.257 396.023L359.127 394.773L360.347 392.463L359.937 390.123L358.517 387.983L357.327 387.083L351.697 386.503L349.847 386.933L347.727 388.613L346.387 391.493L346.487 392.803L344.497 394.213L341.777 398.073L340.437 402.413L341.837 405.383L343.057 406.493L343.987 412.283L343.737 414.993L342.097 417.803L337.587 419.633L333.237 408.463L334.587 406.873L338.157 407.153L339.797 401.463L338.687 400.313L336.477 400.933L336.607 401.483L334.767 400.823L331.577 398.443L329.367 398.053L327.207 399.093L326.697 400.963L324.697 402.863L321.207 402.883L318.967 401.293L318.107 396.983L316.207 395.373L314.907 395.573L314.587 395.013L314.937 393.203L316.447 393.773L322.907 391.663L323.647 390.483L323.307 389.183L324.277 388.643L325.627 389.063L325.757 388.383L327.547 388.693L325.487 391.193L326.777 393.133L329.237 393.433L330.047 394.173L331.147 393.693L333.197 391.733L331.467 388.363L331.867 387.223L331.297 386.363L330.067 386.083L328.777 387.563L328.537 386.553L330.867 383.443L332.427 382.493L333.587 380.533L333.797 378.583L334.777 378.073L336.877 378.283L337.057 377.203L336.127 376.263L336.597 374.973L333.217 373.013L332.157 375.463L331.187 375.143L332.337 373.633L330.187 373.563L329.497 372.943L329.887 370.403L329.387 369.893L328.387 370.893L325.927 369.803L324.297 371.273L324.447 370.903L323.307 370.483L322.307 370.933L320.697 370.523L319.637 371.343L319.457 372.313L320.557 374.103L318.697 376.213L316.717 375.693L314.527 377.943L314.667 380.633L315.547 381.653L314.247 382.783L313.607 382.123L313.367 384.933L309.027 387.183L306.337 391.303L305.557 393.563L302.497 394.873L300.257 396.843L298.137 401.413L298.877 402.133L296.957 404.083L296.507 403.713L296.437 405.443L298.277 404.053L297.077 408.023L300.207 406.233L300.677 405.413L300.037 404.863L300.847 403.903L301.447 404.953L301.047 405.343L301.487 406.063L298.207 408.593L296.297 408.653L295.697 409.523L296.387 411.303L298.207 413.333L299.667 417.763L301.087 420.003L302.667 427.853L304.247 431.183L304.257 433.013L303.747 437.023L302.187 437.823L301.997 436.553L300.617 436.983L298.247 439.993L296.377 440.763L297.157 441.323L299.717 440.683L301.477 437.833L302.337 438.083L303.067 437.443L304.827 437.303L305.717 438.043L304.177 439.523L301.837 444.833L301.737 448.123L303.597 453.473L302.427 460.443L302.417 465.063L299.697 465.873L295.497 471.023L293.377 471.253L293.657 475.023L294.857 476.493L295.117 477.833L294.767 478.093L293.407 479.523L294.247 482.193L293.457 483.213L288.827 481.003L286.467 478.263L286.037 477.183L286.767 474.373L285.187 472.473L284.657 473.913L283.247 474.953L282.797 476.623L283.457 477.003L283.297 477.653L281.217 477.223L278.057 480.343L274.267 480.713L272.127 481.873L271.927 479.683L274.907 475.263L282.547 476.613L283.057 474.883L282.217 473.693L282.057 472.093L276.707 471.713L275.477 472.793L271.867 473.763L269.077 473.853L266.587 472.623L263.277 472.713L262.437 472.913L261.547 475.893L262.257 476.733L262.187 477.893L257.497 477.263L255.207 478.153L251.907 475.193L252.087 473.943L253.277 473.823L252.837 473.273L250.317 472.683L249.007 473.463L248.417 472.743L246.617 472.723L246.817 473.723L249.247 474.393L251.697 473.823L251.507 474.783L252.367 476.473L250.307 477.043L249.477 478.423L249.507 479.413L249.917 480.693L250.287 480.913L251.887 481.953L259.427 484.273L262.457 484.523L263.327 485.373L266.787 486.183L267.937 485.983L269.527 483.823L269.937 484.723L269.047 485.813L269.747 486.263L268.757 488.113L271.047 486.593L273.777 486.603L274.187 487.083L274.197 488.333L275.947 490.373L269.557 497.143L269.057 498.383L269.227 500.823L270.307 502.533L277.477 503.963L278.197 505.763L274.277 505.693L271.837 508.433L269.107 508.753L266.987 510.053L266.787 512.273L269.017 513.513L269.477 513.063L270.937 517.703L268.567 516.533L263.437 518.053L255.927 518.613L250.487 520.143L247.817 521.373L245.467 523.393L241.777 524.493L240.287 522.273L236.847 521.393L231.717 521.663L227.967 517.563L227.437 516.233L225.237 516.133L224.427 515.123L221.427 513.903L223.157 508.083L222.747 504.753L218.657 502.273L218.087 503.673L214.867 502.593L211.767 504.133L209.377 501.173L211.017 498.993L209.497 496.933L208.637 498.553L203.077 498.913L203.307 496.373L200.447 495.863L198.637 489.833L198.167 485.713L195.287 485.643L195.347 484.323L190.357 483.833L191.507 480.063L189.367 479.133L192.137 477.143L181.937 463.053L182.347 462.823L181.897 461.473L181.947 460.953L176.727 458.123L176.227 458.803L176.247 458.873L175.577 459.273L175.067 459.813L172.857 459.243L171.377 458.143L170.497 458.673L167.337 458.333L164.077 454.583L158.847 454.283L155.497 460.193L155.577 463.643L149.247 471.823L144.767 475.333L141.967 473.383L140.247 475.913L138.307 481.443L136.637 479.913L134.907 483.423L132.667 482.403L129.807 484.843L122.687 481.183L123.757 471.503L112.127 468.833L111.797 469.313L109.857 468.913L108.537 472.643L106.327 472.263L104.047 480.703L100.077 483.083L104.547 487.603L95.1671 490.873L90.1171 488.963L88.1272 483.083L83.7271 480.493L72.2171 483.793L69.0172 480.653L63.8171 482.253L65.7571 486.883L64.4472 489.163L61.1171 489.853L61.2871 495.433L58.6271 498.083L52.3571 498.163L51.1571 495.303L47.6171 493.493L48.8571 492.613L42.7571 492.003L38.7171 486.903L34.7071 492.143L29.4971 492.023L28.7771 493.023L27.7071 493.083L24.0371 489.543L21.1571 487.973L21.2771 485.863L16.3971 484.553L15.0871 484.863L16.0871 480.983L15.6671 480.963L15.8471 479.903L17.4771 479.533L19.1171 477.023L18.6771 476.323L18.4871 475.693L18.9471 474.773L17.1471 473.133L17.5971 472.533L18.1171 472.923L19.6071 472.563L18.5971 470.863L19.1171 470.413L18.6571 469.153L19.4371 468.433L22.3071 468.963L22.3671 470.083L21.0571 469.953L22.7671 472.143L22.5371 472.573L23.8671 473.443L24.5771 473.263L24.5371 472.083L26.0071 471.693L27.1171 472.253L27.5471 471.793L28.8771 473.053L26.2571 476.083L26.6271 478.973L25.9071 480.873L27.5471 482.073L28.3271 480.263L28.9971 479.973L31.2571 478.733L32.0671 477.593L35.4771 475.373L36.4171 473.423L39.5971 469.793L42.9471 467.323L43.2771 466.453L42.6771 464.513L41.3771 463.313L42.2871 462.173L42.1371 460.513L42.1971 458.323L42.2571 456.543L41.2971 455.813L41.1171 454.823L40.5071 453.833L39.3271 452.613L37.8171 450.713L36.2471 449.003L33.5071 444.043L32.6471 439.643L32.9471 436.373L32.0471 433.633L32.7271 430.183L32.2971 428.763L28.4571 426.063L24.3671 422.123L22.1371 420.163L13.4371 417.023L12.4271 417.173L12.0771 416.363L7.74715 413.813L9.50715 415.843L9.53715 417.223L10.4471 418.593L8.62715 420.993L8.37715 422.193L7.76715 428.633L8.09715 430.423L7.36715 433.793L8.83715 440.823L10.1671 441.263L8.04715 442.193L6.93715 441.713L7.16715 442.503L6.03715 443.253L3.82715 432.223L4.61715 417.013L8.00715 391.033L8.23715 381.103L5.99715 350.863L6.47715 350.853L8.21715 350.933L8.66715 351.493L7.23715 351.323L6.87715 352.033L8.50715 351.793L9.21715 352.693L8.17715 354.423L8.29715 356.233L7.55715 356.573L7.94715 361.663L10.2671 361.023L10.7171 360.693L12.7471 359.473L13.2271 362.893L16.3871 361.973L18.6271 363.643L22.8371 363.313L22.4671 365.103L23.6971 368.223L22.2371 369.003L23.6671 371.213L24.6771 371.643L27.4171 369.413L28.3171 369.283L30.2471 365.233L31.6971 363.823L31.7171 363.033L30.2171 364.403L29.2671 363.453L26.0271 362.503L25.5571 362.243L25.2071 361.443L24.3271 361.253L24.7071 360.313L25.7271 360.083L24.8371 357.023L23.4271 356.163L23.4171 355.083L22.6071 354.183L20.1071 352.133L17.6371 351.033L15.6571 348.783L14.9471 346.323L13.1171 343.703L13.1371 340.833L12.3771 340.473L13.3271 339.483L12.6271 334.833L10.2371 335.693L8.08715 333.903L7.87715 335.333L7.07715 335.133L7.90715 336.373L8.13715 338.263L7.69715 339.263L6.91715 339.383L7.66715 341.533L6.84715 341.903L7.98715 342.623L6.80715 343.753L8.02715 343.843L8.62715 346.303L7.08715 346.043L8.08715 347.383L6.72715 348.703L7.97715 349.073L7.87715 350.123L5.77715 350.543L7.16715 325.343L5.87715 316.773L5.81715 312.563L6.96715 304.073L13.2471 278.613L17.9671 268.003L19.3471 266.353L20.6271 266.843L20.6471 267.793L20.0271 268.173L20.7571 268.883L21.1571 269.293L20.9171 271.203L20.5971 271.353L20.9371 272.573L21.7271 272.873L18.1571 277.273L20.0071 279.903L18.3871 280.633L16.9671 279.773L15.7771 285.643L17.4471 285.163L21.8171 287.263L21.9371 288.243L21.3471 288.593L21.9071 289.153L21.7671 292.073L22.6571 292.033L23.6771 293.213L27.4171 294.253L30.2271 293.973L31.5771 294.893L32.1571 296.773L29.5671 296.903L29.0271 297.573L29.2871 299.223L31.3071 302.453L30.5971 303.233L30.9071 305.383L31.8071 306.173L32.4771 305.983V300.783L35.3371 299.243L38.5471 299.903L43.5271 298.983L57.3771 305.623L59.9971 308.153L61.0871 308.413L63.6871 306.933L66.6171 303.173L68.1972 298.493L68.3871 303.153L69.6171 305.123L69.2571 307.923L70.8671 309.123L73.4371 314.153L72.3671 315.013L70.5572 318.763L70.8571 319.923L70.2571 319.883L69.9771 317.833L68.3772 317.363L66.0572 318.113L65.0071 319.643L65.5172 320.613L64.8372 322.203L63.0271 321.973L62.3171 322.763L63.2271 323.403L65.7171 322.923L65.8072 320.993L66.9271 319.223L68.7471 320.303L71.6171 320.093L72.6771 320.633L73.2271 320.203L72.6972 319.813L74.4871 318.753L74.4971 322.443L75.9571 325.163L79.6471 326.973L80.9472 326.963L91.0371 324.163L91.8871 323.293L92.7471 318.753L92.3072 313.413L91.4271 310.863L93.2471 307.713L94.6371 306.943L95.2771 305.573L93.8772 302.433L90.4072 300.353L86.6471 296.603L85.4072 291.993L83.2071 291.093L84.0471 287.263L85.6771 286.793L87.7971 287.843L90.4472 287.813L94.6671 283.663L96.9771 279.963L98.3772 274.993L102.337 269.993L103.517 269.873L105.607 271.843L106.817 271.643L107.697 270.223L110.057 270.733L110.027 269.063L111.707 268.053L113.267 270.473L115.297 270.263L116.967 268.863L116.507 266.643L114.647 265.903L112.917 266.613L112.227 264.303L111.077 267.273L109.227 265.593L107.567 266.733L104.237 267.313L103.997 266.823L107.997 257.673L110.397 255.013L109.227 252.443L111.037 252.733L112.117 252.273L116.257 249.453L118.067 246.493L123.257 242.943L129.297 245.983L131.277 246.663L132.657 247.353L133.667 246.983L133.807 245.973L132.657 245.463L132.907 244.463L131.717 243.353L134.327 242.953L135.827 243.433L137.467 242.653ZM133.497 231.603L138.607 232.363L137.507 232.783L136.417 234.193L136.767 235.853L138.967 236.153L137.147 238.413L135.827 238.973L134.727 238.213L133.047 239.013L132.337 238.573L131.397 240.553L131.327 242.463L129.557 242.933L129.587 244.403L125.277 240.533L123.217 236.173L121.377 235.043L122.127 233.933L133.497 231.603Z" fill="#57897E"/>
<path d="M65.1974 269.513L62.9574 268.913L63.3074 267.863L64.7474 267.443L65.1974 269.513ZM140.947 222.573L138.937 221.633L137.637 219.793L139.567 216.903L140.267 216.843L142.287 220.743L141.717 222.903L140.947 222.573ZM115.847 203.993L115.427 206.453L117.517 213.483L115.617 216.073L113.237 226.773L112.237 228.023L112.747 226.143L112.507 222.873L111.427 222.623L110.347 223.283L110.597 224.443L109.087 223.073L109.487 222.043L108.787 221.443L106.617 221.813L106.237 223.073L104.507 225.713L104.377 227.083L105.877 230.023L106.387 234.943L107.807 238.413L110.857 241.723L111.527 244.743L111.297 247.093L110.407 244.663L109.427 244.503L108.987 245.413L108.167 245.333L108.027 246.563L109.527 247.933L106.597 249.783L106.087 250.953L105.527 252.943L106.127 253.203L105.787 254.303L106.207 256.043L105.267 256.063L104.637 256.783L104.797 258.743L102.797 259.923L101.947 261.263L100.407 261.843L96.1074 267.613L97.1574 270.073L91.0474 273.083L90.8674 273.643L87.2574 273.043L78.7374 276.503L78.6074 275.133L77.6674 273.823L77.0774 272.863L77.6974 270.443L74.4974 267.043L74.6874 264.843L76.5274 264.253V263.593L76.0074 263.253L73.9474 263.903L73.1374 264.693L71.9174 264.143L72.4574 262.683L71.6374 260.753L69.8174 260.823L69.5774 261.813L69.6374 262.873L71.5074 263.113L70.1874 264.293L71.4374 266.443L67.6574 267.923L67.4974 266.743L66.4974 263.993L66.5774 263.373L69.3874 262.823L68.7474 261.473L64.5674 258.463L61.0974 262.133L59.4374 262.943L59.9374 260.823L59.5574 258.913L60.4374 256.843L62.4874 256.403L64.9074 254.223L66.3474 254.713L67.0974 253.903L65.5974 247.753L64.5674 246.673L66.1674 245.653L66.7874 246.903L67.6974 246.993L69.3574 244.673L71.0074 244.393L75.6774 245.543L81.8474 242.043L82.0474 239.853L81.4574 239.153L74.1474 237.883L74.1574 236.883L75.8574 234.883L78.3774 235.713L79.4074 235.053L79.4874 233.543L77.1574 233.563L79.5374 229.613L79.3774 225.873L78.7274 224.493L79.1074 223.443L78.0374 222.063L82.5074 220.613L85.0274 221.363L90.2774 220.363L91.6974 221.013L94.5374 218.713L97.5374 218.553L99.5774 217.443L102.887 217.273L104.047 215.143L104.737 210.393L107.597 207.043L108.757 203.993L109.937 205.473L112.687 204.923L114.007 205.383L116.947 201.963L117.277 199.273L118.097 199.333L117.867 201.703L115.847 203.993ZM246.897 178.783L244.887 179.183L242.267 177.983L241.297 176.963L240.847 174.603L244.867 173.783L246.997 174.283L247.857 175.633L249.357 176.513L249.327 177.183L246.897 178.783ZM269.977 173.423L271.737 177.383L275.657 180.493L275.337 181.623L279.477 183.863L283.517 187.543L285.567 190.543L293.057 196.013L298.597 198.113L308.247 197.153L307.947 201.503L306.677 201.513L305.697 203.203L306.727 203.623L306.917 204.293L304.237 208.543L302.827 219.753L303.427 221.933L304.137 236.323L304.807 242.523L307.777 254.843L312.697 262.653L312.627 266.483L311.497 267.523L308.097 265.823L301.607 265.353L297.997 263.543L296.927 263.633L294.757 265.613L294.207 267.123L292.047 267.813L289.497 266.503L288.857 264.933L289.077 263.653L287.677 263.693L286.417 263.393L281.107 266.043L280.477 268.443L278.027 269.503L277.947 270.093L276.977 270.133L276.517 268.823L275.047 268.043L272.467 268.873L271.957 269.853L269.987 269.953L268.417 271.943L268.657 273.263L264.597 273.903L261.517 277.173L259.507 276.903L260.567 279.143L259.387 278.583L257.747 279.463L257.507 280.213L256.817 279.873L254.957 280.843L252.197 280.583L250.967 281.243L246.357 281.233L245.237 282.193L241.907 282.063L238.847 283.983L239.937 284.263L241.217 283.613L245.427 284.343L247.197 282.523L250.437 282.583L253.367 281.803L253.717 282.313L256.237 282.233L258.247 281.153L259.427 281.733L261.007 281.173L262.157 279.783L264.177 280.383L264.687 279.363L264.137 279.023L265.587 277.303L266.807 277.273L268.027 275.753L269.237 276.233L270.927 275.423L271.037 274.123L273.567 270.903L274.727 270.683L277.187 272.983L278.627 272.853L282.087 269.413L282.327 266.613L283.037 265.323L283.847 266.153L285.557 266.033L287.797 267.423L289.307 267.033L293.467 272.493L293.817 273.983L288.287 277.513L288.517 280.633L283.647 282.083L283.827 284.513L282.627 287.763L278.687 288.923L272.407 293.293L263.657 295.973L260.987 294.543L259.527 298.463L253.297 300.333L251.167 300.173L250.337 301.293L249.857 304.733L243.467 306.143L238.347 303.343L232.117 304.903L226.897 297.453L221.957 296.203L217.287 298.753L217.417 291.613L221.797 290.123L221.037 286.583L214.857 285.703L210.887 286.473L206.307 284.913L206.867 281.553L201.767 280.943L201.377 279.493L203.177 277.793L202.727 276.853L202.177 276.973L201.997 275.863L201.167 276.253L200.577 275.723L201.447 273.783L200.927 273.463L196.807 273.023L196.387 274.823L194.267 274.983L191.267 284.453L187.837 283.823L182.877 280.293L183.037 277.303L178.797 277.993L177.237 275.793L172.467 275.593L170.487 270.483L168.867 269.073L167.247 268.893L164.767 269.773L163.087 271.333L160.827 271.443L159.217 273.253L155.697 274.843L153.397 277.173L152.557 277.383L150.727 275.443L150.307 274.153L150.387 272.953L152.437 271.923L154.797 268.293L155.457 268.273L158.627 265.003L161.057 260.903L161.957 257.143L161.587 254.593L160.357 253.193L155.827 251.563L154.037 252.263L153.777 251.783L154.267 246.703L152.367 242.133L151.547 241.843L154.397 237.923L157.097 232.773L157.447 227.873L155.887 224.783L151.467 221.753L151.157 220.043L152.917 213.743L155.507 210.743L155.747 209.073L157.917 207.933L159.897 205.553L161.827 201.223L166.657 199.723L167.497 198.573L168.137 194.673L169.237 193.283L170.027 193.553L177.227 190.783L187.467 188.473L195.987 188.823L198.897 189.523L206.457 193.553L209.017 195.883L206.997 198.223L206.487 200.343L207.487 202.973L206.497 204.183L205.347 201.713L204.387 201.553L202.727 204.053L204.697 208.913L205.737 209.633L206.847 211.743L207.337 211.583L208.247 205.813L207.847 203.523L210.407 201.823L212.177 201.843L214.057 200.563L215.627 196.083L216.947 195.683L221.157 190.063L221.037 186.823L221.537 185.363L222.287 184.123L224.937 182.483L231.317 181.243L236.017 179.623L245.017 181.903L248.507 179.093L249.957 178.563L251.987 178.193L253.997 178.323L257.007 180.423L259.037 180.273L261.017 179.463L263.207 175.463L266.387 173.003L269.977 173.423ZM403.967 141.103L403.347 140.983V140.023L405.087 139.223L403.967 141.103ZM409.757 138.653L410.327 139.383L409.697 140.853L405.507 141.483L404.577 142.103L404.047 141.403L404.317 140.093L405.557 139.083L408.727 138.333L409.757 138.653ZM393.497 131.553L390.967 131.683L390.037 130.243L390.517 129.933L393.497 131.553ZM385.867 126.333L386.227 127.053L386.667 126.943L386.917 127.243L391.277 132.593L390.347 132.463L385.607 126.753L385.317 125.583L386.437 125.853L385.867 126.333ZM432.637 111.253L431.837 120.193L431.307 119.973L431.867 118.053L431.577 116.823L430.187 116.083L430.797 114.023L428.707 115.923L428.607 116.803L425.497 116.203L422.307 117.113L421.087 116.833L415.817 119.423L415.067 120.763L415.497 121.463L417.957 121.843L417.687 125.943L416.867 128.213L414.137 131.243L408.007 130.713L406.777 131.173L414.327 131.663L413.217 133.183L405.677 137.413L403.617 136.913L401.827 137.863L400.837 134.513L400.327 134.263L400.537 133.403L397.687 132.733L397.957 131.793L396.987 130.563L394.407 129.993L392.737 130.743L388.217 128.483L387.307 127.313L387.367 125.403L391.967 121.703L394.137 117.973L397.777 115.803L400.197 115.793L401.577 114.823L404.757 115.253L406.467 114.783L408.007 112.343L409.157 111.663L413.427 111.943L421.537 111.353L423.027 110.993L425.377 109.233L428.607 110.323L432.397 110.453L432.637 111.253ZM350.097 8.33269L348.997 9.35269L347.997 8.64269L347.157 9.34269L347.827 9.80269L346.447 9.65269L342.807 12.7527L334.207 23.5127L327.897 34.3827L326.467 38.2227L325.367 45.0427L326.517 51.0927L328.477 56.3327L336.317 66.3827L336.257 67.9727L339.067 71.9727L340.617 73.0927L342.157 77.8927L342.847 78.3527L343.607 77.9727L344.207 78.6527L343.447 80.6527L342.447 79.5627L342.037 80.0627L342.917 81.5827L341.697 80.6727L341.127 81.7027L342.107 82.2527L340.707 82.2327L340.587 82.9727L339.737 82.9527L339.397 83.6627L339.697 86.6227L339.167 87.3027L339.217 89.5827L337.857 95.3427L338.887 105.163L340.617 108.283L339.797 109.033L339.567 110.323L342.097 123.363L342.737 129.443L342.317 135.113L341.537 135.353L339.587 137.903L337.497 139.673L334.877 140.753L331.407 144.513L327.807 149.613L324.527 156.423L322.237 162.353L318.667 178.493L318.597 180.453L315.387 190.003L312.357 195.713L309.807 194.963L308.127 194.383L304.297 195.053L302.317 196.333L297.357 195.503L291.607 191.083L290.317 189.113L281.737 180.983L279.587 179.323L277.437 178.843L272.787 174.803L269.037 170.733L267.127 170.113L263.967 171.413L260.447 175.013L260.477 178.223L257.697 179.273L256.047 178.773L253.567 176.833L252.347 176.853L249.127 175.133L248.077 173.423L244.147 169.713L242.737 169.373L237.197 165.553L235.897 165.323L235.797 166.753L236.307 167.233L235.707 168.683L232.987 173.963L233.247 174.613L231.317 176.023L225.397 176.983L220.417 173.943L218.337 174.753L218.387 171.893L220.987 171.203L222.517 169.253L222.577 168.533L220.457 168.723L216.577 170.423L214.787 172.143L212.847 173.813L214.507 175.393L216.467 175.113L217.117 175.533L214.627 177.253L212.887 180.263L209.657 180.073L207.877 182.483L203.717 181.493L198.517 181.503L196.917 182.233L195.807 181.213L191.447 183.013L187.657 183.463L180.227 186.843L177.147 186.873L170.897 189.773L169.527 190.923L168.167 192.433L164.787 193.853L164.827 194.463L163.777 194.853L160.727 194.413L159.007 194.103L157.237 192.903L150.987 186.583L146.657 182.823L136.767 187.073L136.447 188.473L134.287 190.793L132.877 190.633L132.837 188.113L131.907 187.163L128.417 187.493L126.067 188.443L123.557 191.953L120.627 191.213L118.057 192.653L116.077 197.513L114.027 197.503L112.927 195.063L109.547 194.103L108.077 195.883L107.787 193.953L106.787 194.143L105.737 194.473L104.627 194.593L104.037 195.043L104.507 196.283L106.967 198.053L107.067 199.733L105.057 200.393L104.447 201.303L102.737 201.383L99.4474 203.013L98.5674 205.003L95.2574 206.383L93.5274 206.523L90.8274 205.393L89.4174 205.663L87.5774 204.743L85.7474 204.903L82.9674 204.793L82.1874 205.403L80.7374 209.463L81.4474 212.113L78.3774 215.143L78.3474 218.233L76.3074 221.093L77.1074 224.123L76.0574 225.523L76.1574 226.243L77.3974 227.113L74.2174 231.883L74.2074 232.853L69.3274 238.703L63.7174 239.013L63.3574 239.583L63.8074 241.943L61.6574 241.753L57.2274 244.423L54.6874 248.123L55.8574 250.743L59.0074 254.793L57.4674 256.693L56.0274 262.863L53.3174 265.383L56.7174 264.433L58.6974 264.923L61.1674 264.983L61.7674 266.123L60.4374 268.873L62.1574 267.903L62.8974 268.463L60.7874 271.123L61.0574 273.823L57.6674 272.653L56.3074 270.683L52.5674 269.283L48.7474 271.223L48.9174 271.953L47.6474 273.133L46.3674 272.583L45.7274 272.893L45.1474 274.623L45.9174 274.683L45.7574 276.063L39.0274 274.333L37.9474 270.443L36.9374 269.513L35.7074 266.643L33.6474 264.733L32.5574 261.773L31.2074 254.023L28.8374 251.183L25.3074 249.063L24.0474 267.383L24.0574 268.473L23.7774 269.023L22.8174 268.313L22.8274 265.563L21.3374 262.893L20.3174 262.833L20.8574 260.593L21.3574 248.243L22.6274 242.423L27.4674 228.733L39.8474 203.403L42.4874 201.893L46.5874 196.673L51.8174 188.563L54.4274 183.013L55.6874 181.693L57.7374 181.883L59.3574 181.023L63.3274 176.353L71.6174 162.483L71.4474 161.863L71.8674 161.553L72.3074 161.793L72.6874 162.423L75.7774 160.733L76.6074 161.573L83.9174 163.943L92.2774 167.673L94.3674 167.683L103.767 165.363L109.457 163.093L113.977 160.583L122.127 154.293L125.597 152.813L128.837 153.403L132.387 152.603L142.507 156.553L148.757 157.673L154.037 157.893L163.387 156.853L166.997 156.053L172.627 153.683L179.037 153.183L183.487 151.373L200.967 137.653L202.887 135.553L216.667 114.893L225.657 98.2027L227.377 96.1527L238.197 71.3227L247.747 61.2427L251.037 56.6527L257.607 43.9327L260.857 40.4727L260.257 41.7427L263.447 41.0927L263.477 40.4227L264.707 41.3927L266.937 41.8327L270.627 42.1727L273.797 41.6727L278.557 42.4727L281.547 42.4927L288.737 41.2527L300.537 36.6727L311.367 30.1827L338.877 6.01269L343.727 2.64269L346.357 1.38269L350.937 0.252686L353.157 0.442686L356.157 2.21269L351.547 6.27269L350.097 8.33269Z" fill="#57897E"/>
<path d="M474.907 707.813L474.247 708.522L473.377 708.043L472.057 708.883L473.947 711.573L476.567 713.143L476.687 714.203L475.097 713.413L471.427 714.353L470.837 711.462L472.837 710.832L471.977 709.363L471.527 709.503L470.517 708.513L470.387 707.673L474.907 707.813ZM441.487 697.183L445.547 699.883L449.087 705.103L450.107 704.873L452.827 705.652L454.737 706.902L454.967 711.443L458.007 714.823L460.177 716.263L461.637 716.423L463.127 717.832L464.547 717.902L463.957 719.553L464.827 720.193L466.717 719.073L469.067 719.652L469.817 720.652L469.157 723.962L469.687 725.323L470.837 724.902L473.147 725.643L473.187 727.272L475.777 726.832L478.587 727.803L481.767 727.842L483.187 729.163L486.627 728.423L487.047 727.503L484.717 726.663L482.647 723.813L483.077 722.283L484.387 722.303L485.777 721.033L489.247 723.123L491.977 722.193L493.257 720.883L495.177 720.763L495.067 719.323L493.937 718.063L494.707 713.582L493.017 711.013L493.137 709.902L496.277 710.553L496.817 711.483L498.017 711.793L499.657 714.103L503.557 716.943L504.647 717.433L507.657 716.823L508.407 717.623L507.267 719.033L506.967 720.553L508.697 725.393L510.037 725.473L512.867 727.293L514.217 727.203L512.997 729.973L513.177 733.243L515.377 735.013L515.647 736.243L516.907 736.263L517.287 736.962L518.687 737.303L520.327 739.573L522.707 741.123L523.647 742.293L523.577 744.253L523.607 745.342L524.567 746.703L524.707 750.003L522.187 751.772L522.157 752.423L520.327 752.503L517.837 750.453L518.237 751.433L517.737 753.272L518.867 754.313L516.687 755.332L517.347 756.832L517.887 757.813L519.847 759.152L521.997 760.133L522.847 759.623L523.987 760.803L523.767 762.332L521.007 762.823L522.917 764.683L521.107 765.813L522.327 766.893L521.357 766.832L518.067 768.553L520.417 770.353L519.137 770.813L518.247 770.373L517.987 771.503L516.887 771.123L516.197 771.983L513.657 770.943L509.617 770.272L507.367 770.493L505.797 769.873L506.527 768.823L505.427 766.943L504.667 767.563L505.117 769.402L503.427 770.293L502.437 768.323L500.167 767.263L497.687 767.902L496.987 766.763L496.347 767.813L496.817 768.342L496.067 768.993L495.787 768.363L494.977 768.873L493.687 767.783L491.967 767.673L491.837 768.433L490.517 768.643L489.067 768.483L486.737 767.193L485.637 767.703L486.727 768.592L486.457 768.883L482.607 768.582L482.487 769.353L483.747 770.272L481.237 770.413L481.107 771.813L480.187 773.152L477.227 773.433L476.507 774.263L473.777 774.253L468.827 779.962L473.127 782.883L474.377 782.902L475.517 783.763L477.217 783.603L477.847 782.842L477.907 783.772L475.807 784.193L474.007 783.803L466.837 779.393L461.257 774.723L455.927 771.753L453.547 769.703L452.587 769.543L446.177 762.233L441.437 758.363L437.797 756.783L436.287 756.712L432.947 754.673L420.697 749.733L412.387 747.263L405.407 743.513L399.857 733.943L398.757 727.462L399.287 726.443L400.127 726.043L402.817 727.962L400.007 726.522L399.747 727.152L400.607 728.043L400.597 728.863L399.707 728.493L399.137 729.462L399.937 733.522L401.157 735.712L401.897 735.823L402.357 735.503L404.767 735.513L406.167 734.493L406.887 733.113L406.047 731.842L402.937 729.883L405.147 730.103L407.087 731.373L407.847 731.022L409.087 732.423L410.187 732.443L411.247 735.243L414.737 735.073L416.087 733.373L414.407 731.663L414.627 729.693L416.857 732.272L417.947 731.983L418.767 729.783L420.527 729.073L420.187 727.582L422.067 727.913L422.697 727.483L422.347 726.703L421.177 727.253L419.667 726.613L417.837 727.033L417.727 727.613L416.677 726.323L415.887 726.733V723.503H414.587L414.357 721.613L412.757 720.342L413.447 718.383L411.307 718.813L411.367 716.962L410.767 716.613L409.667 718.193L409.237 718.073L409.157 715.363L408.367 716.453L407.497 715.712L407.207 713.652L408.887 707.793L413.367 704.233L414.947 701.652L416.517 700.832L417.457 701.423L419.787 701.193L421.017 702.123L421.597 703.443L421.617 701.733L420.477 699.803L421.277 699.193L422.917 700.293L423.037 698.633L424.837 699.183L426.717 697.563L428.127 697.842L430.187 696.423L441.487 697.183ZM461.827 694.332L463.937 695.763L467.267 695.342L469.957 698.402L470.127 699.293L469.867 700.493L464.927 700.103L461.047 705.443L460.387 705.613L459.957 704.693L456.417 702.303L455.177 696.983L453.997 696.993L453.387 694.423L454.507 694.393L455.607 695.462L455.947 696.473L455.517 697.293L456.207 698.993L457.047 698.883L457.187 697.493L457.607 697.483L459.787 698.183L460.867 699.383L461.497 699.233L461.827 698.123L461.387 695.823L461.827 694.332ZM521.097 696.513L522.407 697.053L522.927 697.152L526.467 700.383L525.897 701.473L527.947 703.163L528.127 705.543L530.097 706.693L531.807 706.983L532.217 706.573L532.597 705.513L532.877 704.943L533.047 701.183L534.157 702.233L536.717 701.303L538.797 701.493L540.727 702.973L540.327 703.863L540.727 707.022L541.647 708.863L541.257 709.803L543.857 711.863L547.527 712.842L549.367 712.683L551.427 713.582L553.437 712.443L556.477 713.573L560.047 713.993L560.977 718.673L564.937 723.443L566.277 726.652L565.437 728.022L561.987 729.443L560.917 732.913L559.437 734.813L554.557 737.623L548.937 745.173L546.847 751.272L545.517 753.373L541.627 756.772L539.357 760.953L538.057 766.853L537.997 770.673L539.767 788.433L539.297 792.253L531.967 788.652L532.687 787.373L532.657 786.853L532.187 786.973L532.317 783.853L528.407 775.693L525.697 771.753L524.817 768.993L526.397 763.712L526.527 761.283L529.447 757.863L530.987 754.803L530.467 754.053L529.777 754.283L525.337 752.332L526.037 748.853L527.337 747.453L525.027 744.453L524.247 741.123L522.347 738.763L520.727 737.962L519.937 735.652L517.327 735.092L515.147 732.902L514.907 732.043L516.567 730.723L517.697 728.053L517.577 727.063L516.267 726.082L516.577 724.413L513.397 721.943L509.467 721.553L509.897 720.243L509.257 718.183L508.667 717.842L509.697 715.353L508.317 714.353L507.427 711.703L507.877 710.063L509.407 708.003L509.467 706.143L508.067 703.753L503.127 703.683L502.447 703.103L504.697 700.183L505.857 700.883L506.867 700.733L507.347 699.613L506.037 698.902L507.847 696.263H511.047L513.317 697.663L515.767 702.092L517.637 701.652L518.747 700.253L519.677 696.623L518.757 695.402L518.827 694.613L519.847 694.842L521.097 696.513ZM557.697 696.063L557.347 697.383L556.607 697.592L557.087 699.092L555.987 697.962L553.847 699.243L551.637 698.043L557.697 696.063ZM476.607 688.803L480.937 689.613L483.477 693.402L480.047 697.543L479.397 699.623L477.557 697.043L476.217 693.623L473.817 691.493L474.457 690.033L476.607 688.803ZM561.527 689.522L559.527 692.143L559.357 693.832L558.127 693.443L557.657 694.582L557.407 693.383L559.237 691.503L558.707 690.483L559.337 689.733L560.477 690.272L561.527 689.522ZM528.697 689.272L529.257 692.272L527.567 691.342L525.947 688.103L527.157 687.253L528.237 687.993L528.697 689.272ZM454.287 679.683L452.547 681.143L452.407 679.803L455.397 677.342L456.667 677.283L456.497 678.673L454.287 679.683ZM576.057 672.693L573.467 678.723L570.837 677.113L569.187 677.013L568.247 675.533L570.677 675.053L572.297 672.973L573.347 672.522L574.727 672.123L576.157 672.233L576.057 672.693ZM581.987 676.402L583.367 678.342L587.087 680.143L597.027 680.253L601.567 681.413L603.557 680.943L607.277 681.283L615.537 684.923L619.027 691.433L619.777 695.183L619.797 696.832L618.177 699.712L613.767 700.393L607.977 698.313L607.157 697.443L601.217 695.893L596.647 695.143L593.027 695.363L587.037 698.003L582.397 701.772L577.087 708.173L575.657 711.193L571.947 715.272L568.267 716.003L562.927 715.283L560.587 711.003L561.417 710.873L561.937 711.373L561.597 711.663L562.977 711.873L562.947 710.962L563.947 711.063L563.767 710.673L558.297 710.263L543.697 705.522L542.447 702.783L542.757 700.813L540.987 698.983L541.177 697.733L542.337 697.113L542.937 697.603L542.947 700.073L543.627 701.712L544.627 701.863L544.497 702.652L546.147 702.993L547.717 701.623L552.877 701.643L555.517 704.563L553.747 708.522L554.547 708.103L554.877 708.832L557.717 709.643L560.217 708.673L559.327 706.973L558.427 706.743L559.807 702.983L563.577 700.503L561.307 699.563L560.477 698.613L560.127 696.832L563.447 695.123L563.427 694.383L565.907 693.613L568.427 694.573L568.747 693.842L566.857 691.603L566.467 690.013L570.607 691.453L571.377 692.163L571.337 693.863L571.917 694.832L575.537 692.793L578.507 692.063L579.347 691.073L581.667 690.743L582.667 691.592L581.397 693.443L581.027 695.283L580.257 695.673L581.207 696.163L582.127 695.393L583.607 695.223L586.507 691.923L591.967 690.503L592.367 690.183L591.107 689.803L586.417 690.543L585.377 689.983L584.847 689.753L582.827 691.253L582.047 690.383L580.787 687.043L582.407 684.522L582.447 683.022L580.367 679.462L579.347 678.873L579.577 678.313L578.417 677.272L577.507 677.443L577.387 678.103L576.037 677.803L575.467 676.592L575.847 674.993L578.367 673.723L579.557 672.123L580.827 673.152L581.987 676.402ZM581.167 671.022L580.667 671.152L580.487 669.983L579.157 668.693L579.127 667.173L578.077 666.243L579.067 666.413L579.977 667.563L579.587 667.883L581.027 668.712L581.167 671.022ZM560.097 655.173L558.317 656.123L556.437 655.633L558.177 655.033L560.097 655.173ZM505.667 653.673L504.137 656.983L503.517 653.953L504.537 651.253L504.957 651.503L504.537 652.443L505.667 653.673ZM429.447 645.613L429.787 646.573L427.487 648.592L425.787 653.013L423.407 648.233L426.937 645.303L427.517 645.712L429.717 644.183L429.447 645.613ZM498.987 643.423L498.957 647.643L501.037 648.883L501.777 650.203L502.277 650.082L503.257 650.863L503.467 651.902L502.837 652.003L499.317 648.373L496.427 647.443L494.507 644.332L495.257 643.893L496.827 644.793L498.097 643.433L498.987 643.423ZM470.927 640.342L470.147 640.323L470.877 639.143L472.487 638.753L472.717 639.173L470.927 640.342ZM504.707 642.443L503.937 645.293L502.527 644.643L500.407 645.253L500.007 644.413L500.867 641.263L502.017 639.873L502.127 637.993L502.797 637.823L503.997 638.993L506.297 639.592L504.707 642.443ZM431.257 628.712L430.197 629.563L429.597 629.013L429.257 629.783L429.777 629.652L429.457 630.893L431.737 633.092L432.297 636.313L433.567 638.983L433.187 639.893L432.247 639.462L432.177 640.022L433.997 641.193L435.357 639.003L434.857 641.953L434.247 642.483L429.117 638.893L428.577 631.092L429.227 628.423L428.387 626.823L428.927 626.233L430.447 627.133L431.257 628.712ZM403.417 604.582L401.657 605.853L403.907 605.582L397.317 608.173L401.147 604.683L403.427 604.152L403.417 604.582ZM592.657 541.923L593.577 542.733L592.327 543.493L591.997 542.772L592.267 542.303L592.657 541.923ZM446.757 499.763L447.317 500.763L445.437 499.523L443.697 495.723L444.347 493.203L445.787 494.653L445.097 495.953L447.057 498.173L446.757 499.763ZM521.987 496.543L521.807 498.543L520.297 501.663L520.667 502.883L517.687 504.503L515.977 502.633L514.617 502.523L512.187 496.573L512.827 495.833L514.307 495.813L515.427 494.143L516.627 495.983L517.897 496.543L519.397 492.643L518.577 490.883L519.377 490.023L521.427 493.083L521.987 496.543ZM427.937 470.843L431.387 474.813L434.467 476.523L434.937 478.813L433.387 477.163L426.547 474.913L424.867 473.553L420.997 468.493L416.667 466.523L415.867 462.883L420.977 464.733L421.957 466.833L425.207 468.443L427.937 470.843ZM453.307 448.333L457.887 451.103L462.947 452.433L471.717 452.773L477.217 455.023L486.807 452.453L489.157 456.383L492.397 458.043L494.907 458.003L501.787 455.843L504.487 454.373L507.957 451.223L512.437 448.723L514.377 453.593L514.587 455.613L514.047 455.843L514.027 454.713L512.827 454.483L509.377 457.713L508.537 461.733L509.207 464.653L508.977 466.453L506.487 467.963L503.317 466.773L502.797 464.533L501.367 464.093L500.177 464.823L498.927 463.993L498.167 464.663L497.057 468.883L497.417 472.313L500.627 474.023L503.017 477.263L503.707 479.703L506.097 483.363L506.417 487.203L503.837 490.813L503.267 489.733L496.727 487.843L494.707 490.223L495.687 491.403L494.477 491.913L494.427 493.703L489.517 496.103L489.347 497.263L492.277 499.283L495.037 498.983L497.477 498.323L499.337 496.303L500.967 495.933L502.207 494.673L504.807 494.453L506.257 493.203L507.907 494.993L508.627 498.713L510.217 500.823L509.137 501.473L508.657 499.543L507.527 501.283L508.437 502.903L511.477 504.353L511.507 505.983L510.597 505.803L508.597 507.333L506.367 507.213L504.797 508.063L496.607 508.513L495.177 509.293L495.897 510.743L495.227 510.893V511.703L496.767 512.063L496.867 512.973L502.657 512.123L503.647 511.473L504.807 511.973L505.617 511.853L506.967 511.953L508.687 511.203L511.457 511.813L512.197 510.443L510.727 509.693L510.677 509.063L511.087 508.723L511.797 509.323L513.407 511.103L514.717 513.853L514.597 517.053L515.357 517.633L516.157 517.383L516.667 520.022L516.037 521.063L514.227 521.373V523.943L512.407 524.603L511.407 526.473L511.657 527.073L513.247 527.082L514.287 526.712L515.537 525.962L516.147 526.613L517.167 525.462L517.497 523.342L520.037 521.413L520.767 520.933L521.277 515.283L523.597 509.233L524.677 509.113L526.147 507.653L530.197 509.243L533.927 505.823L540.737 509.543L540.647 512.902L539.857 513.723L538.357 518.003L537.687 518.143L535.497 521.993L534.767 525.223L534.037 525.402L533.667 526.293L533.277 528.363L534.017 529.813L535.267 526.493L536.807 525.793L536.377 525.233L536.677 522.863L542.967 522.223L542.087 520.983L542.047 519.323L540.637 518.513L542.177 517.383L542.127 515.233L542.637 516.233L544.457 515.603L542.917 518.063L543.317 518.652L544.167 519.022L545.267 517.763L546.047 518.522L547.677 518.082L549.427 519.253L549.037 520.553L550.007 520.603L550.647 521.423L550.327 522.243L548.477 521.133L546.657 521.592L545.327 520.082L543.127 519.453L542.847 520.453L544.087 520.483L545.007 523.353L544.327 524.763L545.637 523.962L546.437 524.003L546.837 524.813L547.627 524.652L548.267 523.902L549.207 524.723L549.647 523.643L551.447 523.413L551.267 524.603L551.907 525.103L551.127 525.933L551.107 527.402L553.067 527.863L554.437 529.212L555.237 528.203L555.917 524.272L554.687 524.393L553.507 523.223L553.087 521.853L554.267 519.753L555.147 519.462L556.067 520.783L556.517 518.712L554.707 519.092L554.877 518.342L555.287 517.793L557.017 517.983L558.497 516.243L559.087 514.712L557.427 514.373V512.272L558.747 511.753L558.247 511.143L559.697 510.543L559.857 509.933L559.497 509.463L557.967 509.583L558.397 508.933L556.527 506.323L557.357 504.683L557.277 503.273L555.157 500.853L555.717 497.163L558.397 498.673L561.137 501.843L564.067 503.163L566.467 505.503L572.237 504.593L574.797 507.173L574.167 507.373L573.027 510.453L578.057 514.962L572.697 520.152L569.027 519.902L564.177 524.123L565.247 529.443L565.107 533.203L566.447 533.133L565.457 538.363L572.347 540.383L573.137 537.173L575.887 536.342L576.997 538.092L581.577 536.082L582.927 537.313L590.017 539.573L592.517 541.913L591.697 543.103L592.047 543.753L584.317 547.763L582.977 549.103L579.897 551.573L576.597 555.603L573.277 564.393L570.147 573.633L570.947 576.332L570.677 577.113L570.397 577.832L571.097 580.253L573.277 583.563L574.837 584.633L585.297 590.092L593.897 590.973L601.007 597.763L604.917 602.943L605.247 606.092L606.257 607.063L604.957 611.013L605.307 614.543L606.337 616.113L605.977 618.263L604.937 620.183L603.317 620.943L600.657 624.183L598.587 625.053L598.127 625.793L596.697 625.353L595.747 626.013L594.567 625.673L592.387 630.053L590.597 629.483L584.597 629.503L581.197 628.603L575.737 630.212L571.707 632.803L570.057 632.913L566.417 635.832L566.197 635.253L565.567 635.353L562.247 640.683L559.197 642.943L558.347 644.763L558.107 648.383L558.917 653.103L556.997 654.643L555.257 654.832L554.127 653.683L555.087 649.973L554.987 647.772L556.657 644.902L555.997 644.293L551.857 644.763L547.507 646.883L544.887 651.193L544.917 651.832L545.917 652.473L547.747 652.453L548.307 653.073L548.947 654.743L548.097 656.293L548.287 657.473L549.957 656.703L550.527 657.013L550.067 657.563L551.097 658.043L552.757 655.683L555.277 655.743L555.877 656.283L555.297 657.513L557.427 657.363L557.787 656.493L559.137 657.143L560.847 656.543L560.437 655.462L561.427 655.353L566.257 657.103L568.477 659.483L568.367 661.693L567.607 661.863L566.987 663.212L566.977 665.983L564.767 668.723L562.117 667.143L560.447 668.073L560.077 666.753L559.037 666.283L558.607 665.723L557.207 665.133L557.697 666.712L559.477 666.893L559.957 668.323L559.407 668.873L560.847 669.223L559.297 670.582L560.237 670.633L560.477 672.603L561.467 673.623L561.037 675.573L563.307 676.022L562.637 677.842L567.057 686.143L566.777 688.563L566.207 688.043L563.777 688.082L562.877 688.753L560.187 688.303L558.447 689.393L557.737 690.883L556.457 691.462L554.067 694.152L550.587 696.103L546.897 696.063L540.347 692.712L538.057 690.453L537.007 687.902L531.267 685.902L530.647 686.353L531.987 686.943L532.127 688.253L529.177 688.433L527.337 686.573L524.527 685.293L523.027 683.373L519.737 681.313L517.017 678.022L512.167 675.623L506.007 673.873L501.767 671.842L499.087 669.803L491.597 667.793L490.797 667.053L492.677 667.152L505.017 671.263L508.377 671.592L519.217 677.123L520.277 675.863L519.767 674.143L517.367 671.363L516.987 669.783L513.057 667.553L512.197 666.243L511.197 666.943L511.687 668.113L512.797 668.823L510.297 668.623L508.567 665.973L509.707 666.003L510.567 664.433L509.667 665.082L507.867 664.643L504.647 659.842L504.597 657.113L505.267 656.082L506.227 656.893L505.777 658.193L508.707 657.913L510.167 658.533L510.887 657.893L511.347 656.022L512.737 655.183L516.757 656.092L517.987 655.553L518.177 654.592L517.107 650.993L515.917 650.953L515.057 650.063L514.227 650.113L513.637 651.543L512.807 651.753L511.687 650.993L511.967 649.443L509.097 650.053L507.567 649.483L506.507 650.433L504.197 649.473L503.737 648.813L503.957 646.332L507.847 643.643L507.217 642.603L505.687 643.373L505.187 643.303L505.247 642.712L508.137 639.402L506.857 639.582L506.267 638.522L503.687 636.712L499.947 637.253L495.617 641.753L495.777 643.353L493.487 644.563L492.217 643.253L490.687 643.133L487.617 641.263L485.337 641.743L484.067 641.133L481.287 641.233L478.057 639.673L474.667 638.913L473.227 639.443L472.607 637.663L471.077 637.183L469.667 637.753L469.797 636.483L468.227 634.863L467.007 635.543L465.697 634.393L464.547 634.243L463.657 636.353L462.417 637.332L462.797 638.143L463.817 637.953L464.167 637.272L466.507 637.703L467.297 638.313L466.927 639.123L468.007 639.763L468.157 641.703L465.117 642.303L460.967 641.152L458.587 641.433L459.707 639.793L460.487 640.753L461.027 640.263L462.727 641.473L463.437 641.272L462.657 640.783L462.177 637.342L459.997 636.723L457.417 639.152L456.037 639.393L455.047 638.772L453.777 636.543L452.307 637.462V638.493L451.647 638.863L450.757 636.603L448.827 636.652L448.177 638.832L448.827 639.962L447.917 640.163L445.917 640.663L443.987 638.803L440.697 638.582L439.477 637.633L438.837 636.973L439.667 636.693L437.897 634.402L438.027 633.893L439.837 633.402L437.397 628.272L438.187 627.693L439.307 628.223L439.247 629.073L442.517 629.663L443.177 630.573L443.967 630.183L444.997 626.443L445.507 625.522L446.307 625.393L447.467 622.563L446.797 619.723L445.387 620.073L444.807 621.043L444.337 625.103L445.377 625.893L442.917 627.543L442.017 629.513L440.777 627.522L439.947 627.173L439.197 627.703L438.137 626.853L438.957 623.652L437.867 621.133L437.567 617.983L432.767 614.723L429.227 613.233L425.907 609.663L423.087 608.313L422.917 606.743L423.807 606.193L424.427 607.152L426.237 607.373L426.417 607.913L428.647 607.743L429.917 608.553L431.077 608.233L431.427 606.993L433.487 605.842L433.767 604.363L433.347 603.753L432.257 603.513L430.047 601.543L427.917 601.473L426.737 602.503L427.397 603.553L426.917 604.693L427.667 605.423L424.577 607.033L424.077 605.733L422.207 605.582L420.197 602.943L417.887 603.293L418.107 602.043L420.817 597.633L421.687 598.943L425.947 598.263L429.607 595.342L433.037 594.603L434.677 592.233L434.857 590.962L434.627 589.643L432.077 585.953L433.367 579.703L432.877 577.293L429.667 571.902L429.727 568.663L429.127 566.793L424.637 562.293L423.987 560.393L422.667 559.673L422.127 558.082L421.047 559.123L421.397 560.603L422.257 560.323L420.707 563.043L418.167 563.413L416.227 562.383L417.497 557.633L418.317 557.233L419.527 557.832L421.017 557.022L424.517 557.143L424.357 557.723L425.107 558.212L426.237 557.603L426.657 556.663L424.847 557.483L424.737 556.943L426.227 554.573L426.907 552.133L425.907 545.203L423.057 538.582L420.407 535.813L410.527 529.533L406.337 528.223L397.307 527.212L395.887 526.103L395.747 524.443L396.907 523.592L399.427 524.133L400.207 524.933L403.337 525.253L404.937 524.712L413.027 526.563L414.767 526.613L416.797 525.613L417.187 526.633L417.727 525.842L419.217 525.553L419.467 524.753L418.837 525.022L417.527 524.373L417.707 523.832L418.697 524.063L418.627 523.573L419.387 523.563L419.237 522.973L418.467 523.332L415.027 521.983L416.167 524.433L415.697 524.513L413.597 521.423L408.487 517.643L404.387 511.293L402.957 510.533L400.767 509.943L395.247 510.603L392.577 510.113L389.267 508.583L386.987 506.643L390.867 506.493L397.567 504.573L403.287 505.793L406.167 506.933L407.357 508.103L411.547 509.403L416.377 508.573L420.127 506.633L422.827 504.403L425.387 504.113L427.297 504.673L429.777 503.843L430.127 505.363L429.587 505.623L432.377 509.393L434.567 509.243L435.467 507.483L434.897 506.253L435.947 505.513L436.697 506.773L440.677 509.933L442.507 509.483L444.707 507.493L445.477 504.113L446.187 503.933L447.177 506.733L447.997 503.983L450.647 504.143L453.497 503.113L456.437 500.473L457.357 498.093L458.107 495.383L457.197 493.183L457.337 487.093L456.777 484.483L455.587 482.443L454.227 482.703L454.607 481.963L455.377 481.483L456.977 482.783L457.307 483.873L459.627 485.163L461.447 484.583L467.087 481.023L470.327 480.723L472.027 481.443L473.237 481.163L476.527 476.683L477.797 472.083L477.547 469.143L477.977 464.023L476.657 460.233L469.007 455.983L457.277 454.983L451.637 451.023L448.017 449.543L446.397 449.563L445.157 447.453L443.547 440.843L447.117 446.133L453.307 448.333Z" fill="#57897E"/>
<path d="M353.118 710.153L352.678 711.993L351.128 713.353L350.428 713.103L349.308 710.863L349.598 710.463L348.678 709.543L348.378 707.303L352.008 706.393L352.788 707.033L352.338 708.443L353.118 710.153ZM334.298 706.453L334.608 707.413L332.268 706.773L333.158 704.923L334.298 706.453ZM336.138 702.383L337.358 704.233L335.558 704.413L335.128 702.613L335.848 701.563L336.138 702.383ZM358.708 696.253L360.678 696.783L361.458 696.333L363.268 697.083L363.788 699.073L362.208 699.083L361.608 697.863L360.718 697.933L360.428 697.053L358.628 696.853L358.708 696.253ZM335.378 694.843L334.348 696.653L333.688 696.773L332.468 694.723L334.328 695.013L335.198 694.383L335.378 694.843ZM295.038 693.593L297.328 694.213L297.678 696.383L301.678 700.463L305.688 701.273L311.478 707.243L313.148 710.783L316.978 712.053L317.918 714.503L319.678 714.033L322.898 710.033L322.218 708.883L320.628 708.193L320.498 707.393L321.258 707.433L323.808 710.253L323.628 711.303L322.938 711.103L322.648 711.603L323.878 713.113L324.688 716.343L326.948 718.883L328.598 719.903L329.968 718.743L330.448 716.763L333.288 719.473L333.878 719.063L332.698 718.093L332.708 717.283L330.398 714.233L328.768 713.383L328.838 712.713L331.748 712.413L329.958 712.963L329.928 713.653L331.858 713.953L338.718 720.973L339.008 723.253L338.568 724.123L340.318 723.653L339.468 722.923L339.378 721.793L340.918 723.603L339.128 724.313L329.908 725.433L327.948 726.613L327.078 727.573L326.748 729.473L324.848 730.923L321.738 728.033L318.198 725.933L314.128 721.323L310.938 716.493L306.448 713.583L300.708 706.283L299.698 700.843L295.888 696.903L295.138 695.613L295.038 693.593ZM325.028 690.563L327.498 693.963L325.528 695.833L324.758 695.813L320.238 692.223L319.238 692.443L318.078 693.803L317.088 693.583L316.488 692.343L317.648 691.733L318.318 692.083L319.368 691.073L319.948 691.173L320.008 691.973L322.968 691.933L323.768 692.873L324.968 692.903L325.528 692.293L325.028 690.563ZM331.008 683.913L333.148 684.793L334.568 686.253L332.438 685.793L331.338 687.073L329.658 686.873L329.338 685.263L330.798 683.203L331.008 683.913ZM304.478 681.213L305.878 682.183L307.998 682.053L310.458 683.863L313.238 682.743L313.618 685.313L312.238 685.653L309.468 684.313L307.468 682.393L302.148 682.423L299.188 679.243L299.648 677.743L301.468 677.203L303.618 679.373L304.478 681.213ZM353.888 673.433L354.688 673.933L354.308 675.003L355.538 675.823L354.918 677.913L355.798 678.593L357.448 678.623L357.798 680.833L357.378 681.683L356.338 681.933L354.918 687.193L354.278 688.103L353.648 688.163L353.548 687.563L352.798 689.213L354.298 691.313L357.268 691.993L358.928 690.333L359.418 688.063L361.158 687.263L362.318 687.543L361.618 690.333L361.868 693.033L361.548 693.633L361.238 693.083L359.258 693.013L356.848 693.573L355.608 695.443L354.158 695.993L352.378 699.243L347.358 697.463L346.308 697.633L348.038 699.433L345.618 699.113L343.278 700.453L343.388 699.543L344.658 698.463L344.378 697.973L342.628 698.283L342.748 695.873L339.888 693.483L339.268 692.233L339.108 688.493L339.778 687.553L338.078 686.713L337.858 684.773L340.268 684.793L341.918 682.463L345.888 680.433L347.768 677.993L349.218 677.743L350.348 675.833L353.118 674.053L352.468 673.503L353.888 673.433ZM363.548 673.293L364.538 673.923L365.828 679.613L364.768 679.573L363.728 678.673L360.948 679.663L359.008 679.483L359.388 677.733L362.348 677.623L363.508 676.793L359.218 676.603L356.878 677.673L356.538 677.373L356.118 674.993L356.948 674.273L359.328 674.713L363.548 673.293ZM288.688 674.823L290.728 675.323L291.478 676.623L290.118 678.093L286.898 679.083L285.548 678.463L283.998 675.903L283.848 673.663L285.998 672.123L285.888 674.043L288.688 674.823ZM303.418 673.323L303.538 673.803L301.868 673.243L299.808 671.543L298.988 670.283L299.248 669.543L302.408 671.733L303.418 673.323ZM244.518 674.853L246.208 675.573L247.378 677.853L249.638 680.263L252.408 681.913L256.368 682.223L259.548 683.623L261.788 685.313L263.908 688.253L264.478 688.733L266.098 690.513L270.178 698.823L272.688 703.233L272.768 706.243L273.408 708.613L274.678 711.493L275.738 712.363L276.458 716.353L275.518 717.223L271.568 716.823L269.548 717.453L265.018 722.243L258.608 721.943L253.978 719.393L251.478 719.233L248.278 716.333L248.458 715.643L252.718 711.623L255.118 714.663L256.598 714.903L259.948 717.023L260.268 718.423L262.598 718.593L265.168 721.373L266.248 720.363L264.958 717.213L263.738 715.833L260.228 713.533L259.528 712.493L255.268 710.803L254.038 709.393L251.618 708.883L250.838 709.213L249.958 711.033L248.798 710.773L243.328 713.403L238.368 711.393L236.588 709.313L236.878 708.233L236.378 707.093L234.688 706.343L234.718 704.403L233.828 702.613L234.098 700.353L233.278 693.703L232.148 692.143L233.348 690.963L235.238 693.853L237.978 694.683L241.718 700.803L243.028 701.743L242.188 702.673L243.738 702.733L244.428 702.403L249.108 700.603L249.038 700.133L246.338 700.743L243.828 699.193L246.728 698.103L246.508 697.623L244.488 697.973L243.428 697.153L244.838 694.963L246.148 695.263L246.628 694.793L246.168 694.143L245.228 694.343L242.058 691.733L236.808 690.933L236.278 689.683L236.758 688.823L239.348 687.653L236.168 688.423L235.568 687.813L235.678 686.883L237.818 686.003L238.088 684.403L234.208 684.113L225.138 685.183L221.988 683.203L220.738 681.743L219.808 681.673L219.688 679.903L223.168 678.993L224.698 677.593L225.848 677.963L225.748 679.173L227.668 679.273L226.138 677.793L226.458 677.493L224.838 677.333L226.058 676.733L225.978 676.033L224.638 676.143L224.678 676.653L223.238 677.583L223.698 678.303L222.338 678.343L219.818 677.413L217.358 677.403L216.618 676.083L216.678 674.473L218.488 673.613L220.578 670.943L225.028 668.133L231.208 666.613L234.528 667.363L241.248 671.263L244.518 674.853ZM207.298 659.473L206.658 660.063L204.708 660.093L204.598 658.203L203.748 657.913L203.638 656.793L204.248 655.333L205.958 655.593L207.318 657.573L207.298 659.473ZM398.808 651.513L396.048 666.903L390.598 684.963L390.388 688.063L385.268 694.613L381.478 703.103L380.978 706.773L379.708 708.723L379.308 714.263L373.988 727.803L373.748 730.283L370.998 737.863L368.388 748.303L365.738 752.173L362.638 753.493L361.528 753.063L358.958 749.173L359.338 748.693L358.828 747.043L359.948 746.283L360.088 744.833L357.898 739.673L357.678 735.433L354.508 730.513L349.958 727.523L348.998 725.503L349.518 725.433L349.708 726.163L352.668 726.353L354.318 727.623L354.748 726.903L355.398 727.013L355.358 727.773L356.158 727.533L357.898 723.723L359.268 723.343L358.368 722.463L359.488 715.193L361.008 714.993L361.498 716.883L363.718 717.933L364.238 716.413L367.278 716.173L365.778 714.563L365.598 713.553L365.018 712.413L364.408 711.533L364.358 709.093L363.108 711.533L361.528 710.623L360.668 711.313L359.988 708.373L361.008 707.553L361.448 705.183L363.328 703.383L363.968 701.613L365.568 700.613L366.158 699.923L366.748 697.813L371.208 692.633L372.708 691.883L373.068 690.953L375.588 691.233L378.488 688.093L379.068 686.063L380.558 684.193L381.018 681.863L383.698 678.523L384.008 675.963L385.778 672.353L387.828 662.203L390.918 656.543L391.298 653.413L393.978 650.913L395.358 648.163L396.588 647.103L398.328 648.503L398.808 651.513ZM232.938 621.033L233.608 625.043L233.948 624.973L234.758 623.933L233.678 623.443L233.798 622.663L234.518 622.833L235.988 621.703L235.588 623.403L233.218 626.523L230.438 626.613L228.518 624.283L229.548 623.553L228.708 621.643L231.468 620.603L232.938 621.033ZM241.688 607.763L243.078 611.773L242.738 614.093L238.728 615.433L238.218 614.713L238.278 611.813L237.538 610.423L238.338 608.033L240.388 609.723L240.568 608.803L239.718 608.663L241.688 607.763ZM226.988 600.943L225.108 601.923L223.298 600.493L224.738 598.883L226.378 598.633L228.028 600.413L226.988 600.943ZM37.5578 575.753L38.3378 577.003L38.9478 574.973L41.2378 573.143L44.4578 573.363L46.4878 574.283L45.9478 581.493L46.6778 582.893L48.0378 583.953L49.7278 581.243L50.7178 580.823L52.7378 582.203L52.5978 583.433L54.3678 588.583L51.7678 591.363L51.9578 592.593L54.5078 595.583L55.3078 600.863L56.6578 600.673L55.0978 603.933L55.5278 604.813L52.2878 604.323L48.7878 601.603L41.7878 586.193L38.5478 582.083L35.7178 580.093L35.2778 575.923L39.4778 572.963L37.5578 575.753ZM332.248 573.883L329.748 574.713L329.538 573.763L329.648 572.113L330.748 570.863L332.178 570.463L331.058 572.253L332.248 573.883ZM225.288 571.833L223.508 571.463L223.218 570.013L221.698 567.803L222.228 565.563L223.998 566.203L225.648 568.973L227.168 569.243L227.338 570.863L225.288 571.833ZM351.258 547.063L350.778 547.113L350.508 545.623L350.908 544.603L351.258 547.063ZM351.488 541.753L351.788 544.013L352.808 544.133L352.058 544.493L352.258 545.703L350.988 543.513L351.488 541.753ZM348.888 538.573L349.688 538.993L351.718 538.713L352.038 536.733L350.688 536.983L350.348 538.033L350.198 537.383L349.488 537.623L349.928 537.003L352.068 536.513L352.958 537.703L359.568 548.913L361.018 552.563L364.188 556.243L363.858 558.973L365.338 563.113L366.408 564.823L368.898 566.903L370.278 570.153L370.048 571.333L368.618 572.013L366.918 572.183L365.248 571.603L359.798 574.453L358.698 576.383L358.728 577.683L356.958 578.623L356.018 577.583L354.328 577.263L354.148 578.283L354.618 578.553L353.378 578.813L351.688 578.043L350.668 576.293L347.088 574.893L346.998 575.773L343.308 576.863L343.878 578.043L343.428 579.053L341.838 578.913L341.968 579.963L345.768 584.523L346.408 584.613L347.338 583.193L346.218 577.733L347.998 576.083L350.488 577.303L350.508 578.363L353.108 579.253L355.088 580.743L356.358 579.613L357.438 579.733L357.778 578.613L358.948 577.843L359.068 578.633L361.848 581.043L363.738 584.113L365.358 585.843L367.018 586.323L369.348 590.423L372.238 592.953L373.888 596.833L376.138 599.963L379.988 611.783L382.898 614.303L384.628 614.283L384.568 614.753L383.328 614.993L384.488 616.323L384.268 617.013L380.838 617.963L380.428 617.693L380.848 617.123L381.408 617.413L381.648 617.003L380.738 616.193L381.008 615.323L379.928 614.613L379.418 615.463L379.228 614.663L378.378 614.523L378.058 613.653L376.958 613.003L376.478 613.373L375.428 612.843L375.808 614.763L375.188 614.213L374.308 615.103L371.578 614.703L370.088 615.483L374.658 615.433L375.748 616.443L376.238 617.513L375.648 620.893L379.468 631.033L378.628 633.773L379.068 637.033L378.298 643.243L376.168 647.353L376.068 649.393L375.138 651.483L375.338 653.383L374.448 654.993L374.418 657.743L373.348 660.323L373.968 662.423L372.538 662.603L371.358 663.653L370.588 668.033L369.548 670.293L366.768 671.333L364.248 673.173L364.428 672.153L362.068 671.533L361.338 672.873L359.078 672.743L358.528 673.303L357.648 672.863L355.528 673.593L354.708 672.453L352.948 672.523L351.748 671.833L351.578 673.893L350.508 674.193L349.408 675.443L339.988 679.103L338.138 680.463L334.338 679.343L333.158 677.403L331.828 676.663L330.108 677.193L325.118 676.823L324.148 677.343L320.118 675.053L320.468 673.833L318.448 671.143L317.598 671.433L317.898 672.593L315.748 674.653L314.568 674.463L314.488 673.913L312.628 674.263L310.988 673.833L310.808 671.763L307.888 670.823L307.598 669.663L306.068 668.553L305.958 667.543L304.608 666.493L302.638 666.173L300.678 664.503L299.728 664.463L298.858 663.673L299.238 663.233L298.308 662.503L295.568 664.193L297.578 665.553L298.428 668.193L297.738 669.323L296.388 669.813L296.178 670.993L294.678 670.853L294.698 671.613L296.688 671.413L295.248 672.553L294.168 671.763L293.918 670.043L292.338 667.853L288.908 667.653L284.778 665.133L277.048 668.593L276.358 666.063L277.938 663.073L278.198 661.223L278.968 660.683L279.708 661.353L281.078 661.213L282.838 658.873L284.498 658.233L285.438 658.473L285.948 657.563L286.878 657.853L286.868 657.073L288.498 657.493L290.888 655.933L289.248 654.973L286.598 649.843L285.908 650.223L285.338 649.703L285.128 646.743L283.278 644.353L282.298 641.143L281.498 641.023L280.568 642.723L279.738 642.343L278.528 644.363L273.338 644.093L269.348 643.053L269.178 639.683L265.888 638.133L265.248 638.843L266.368 640.493L267.088 640.963L266.118 642.543L265.218 641.953L264.778 644.513L266.078 643.533L265.598 645.063L266.388 646.883L268.408 648.253L272.828 654.683L271.488 656.983L270.148 657.843L267.368 657.173L263.768 654.883L263.578 654.283L265.028 652.853L265.498 651.333L264.218 646.533L265.078 638.173L264.688 636.913L263.648 635.273L262.008 634.103L256.778 633.973L255.858 631.633L254.018 629.753L250.398 627.533L249.968 628.123L248.278 626.043L249.188 625.593L249.838 626.403L251.378 626.633L250.548 627.313L251.758 627.863L251.938 627.653L252.758 626.063L252.328 625.003L250.838 624.213L250.288 622.573L250.848 622.663L251.488 621.863L251.968 612.993L251.178 609.453L249.808 606.573L249.948 604.793L251.158 605.473L252.188 605.853L252.748 604.743L250.308 603.843L249.338 601.973L249.518 600.563L247.698 602.023L244.648 602.173L237.268 598.953L237.678 596.173L241.738 595.793L243.468 595.123L244.658 593.863L244.738 592.173L242.398 589.443L241.188 588.373L237.518 587.413L238.898 586.283L241.368 587.193L242.508 586.833L242.968 585.683L242.688 584.383L237.948 582.233L235.388 582.443L231.348 581.573L230.878 580.923L231.748 578.933L228.738 575.593L227.618 573.343L228.388 572.143L229.198 573.923L232.938 577.053L234.188 577.443L234.608 578.843L236.958 580.413L240.928 582.153L242.618 581.543L241.848 580.143L240.048 579.343L239.668 577.783L238.578 578.003L236.668 576.743L236.688 576.093L235.938 576.073L236.418 574.963L237.338 575.833L238.658 575.933L237.748 574.343L236.858 574.533L235.978 573.233L233.368 573.833L231.068 572.333L229.358 567.583L225.518 567.173L224.938 565.683L222.718 564.153L222.258 562.003L223.168 561.263L224.918 561.423L228.458 563.833L231.608 564.253L232.998 563.033L234.908 558.363L233.108 555.383H236.858L240.028 553.113L243.898 552.463L245.828 553.483L246.338 554.753L245.958 559.713L248.218 562.523L255.258 563.593L258.458 562.963L266.388 556.503L270.048 554.593L271.788 551.953L276.978 550.803L277.988 549.573L278.618 549.123L281.418 547.723L283.918 547.093L285.878 547.043L288.088 545.393L291.498 544.093L293.608 544.233L293.908 543.793L292.928 542.283L294.058 542.503L294.748 543.543L295.898 541.393L299.068 540.323L306.468 539.163L307.448 539.783L305.918 539.493L305.508 540.263L306.368 542.763L305.518 543.483L305.878 543.923L305.988 544.503L305.588 545.483L307.288 545.953L307.988 545.233L310.308 545.243L310.608 544.313L308.898 542.743L308.968 539.223L307.268 536.423L309.988 535.943L324.348 544.123L329.218 549.063L341.408 558.193L344.558 561.873L343.488 562.483L341.298 560.463L339.398 556.953L335.408 554.133L334.778 554.713L335.618 556.343L334.438 556.613L335.658 558.053L333.678 557.423L332.918 558.463L332.118 558.203L332.008 559.393L333.828 560.843L333.878 562.993L334.818 564.473L336.048 564.833L336.618 566.033L335.078 567.053L333.918 566.483L333.148 567.803L334.308 568.403L334.588 569.593L330.218 568.533L329.708 569.043L329.768 571.063L328.268 570.753L327.558 573.213L328.218 573.963L327.338 574.393L326.908 576.733L327.158 577.503L325.648 580.763L325.918 581.273L326.748 580.623L328.248 581.213L330.098 579.513L332.318 580.873L333.548 579.373L334.788 578.863L335.788 577.293L334.938 575.513L334.218 575.873L334.458 576.563L333.288 576.233L333.498 575.103L334.118 575.793L334.798 575.333L333.648 572.393L339.198 574.263L340.268 573.693L341.508 571.653L343.298 572.863L344.138 572.753L344.158 571.883L346.288 571.443L347.118 570.103L349.568 569.673L351.458 571.103L353.198 569.003L353.538 568.133L352.578 566.803L352.618 564.803L348.648 562.593L345.808 561.853L345.278 561.053L345.388 559.973L346.818 558.543L348.268 558.053L349.328 558.433L350.268 560.623L351.898 561.703L352.898 562.003L353.828 561.103L353.958 560.173L352.398 558.473L352.728 554.753L350.668 551.523L350.538 548.753L349.358 545.333L350.398 542.843L350.708 543.493L350.288 543.683L349.548 545.223L351.328 548.983L353.578 551.783L354.348 550.303L354.118 549.683L354.778 549.393L352.998 547.933L353.058 547.453L354.328 547.573L353.798 543.973L352.738 542.613L352.108 539.443L351.218 539.353L350.828 540.253L348.228 538.253L348.588 536.433L349.658 538.213L348.888 538.573ZM290.028 529.863L292.848 530.733L293.108 532.193L291.738 533.873L291.758 537.503L292.558 539.033L291.858 540.053L291.238 538.983L291.528 534.323L289.508 531.933L288.998 529.823L290.028 529.863ZM170.218 458.573L171.498 458.723L172.028 459.893L173.428 459.523L174.288 460.403L174.788 459.723L175.298 459.183L176.668 459.163L175.968 458.783L175.958 458.713L176.628 458.383L178.668 460.173L181.638 461.383L182.088 462.733L181.678 462.973L191.878 477.073L189.108 479.063L191.248 479.993L190.108 483.763L195.098 484.253L195.038 485.573L197.918 485.643L198.388 489.763L200.198 495.793L203.058 496.303L202.838 498.843L208.398 498.483L209.258 496.863L210.778 498.923L209.138 501.103L211.528 504.063L214.628 502.523L217.858 503.613L218.428 502.213L222.518 504.693L222.938 508.023L221.208 513.843L211.688 515.643L211.058 515.023L208.428 515.763L206.638 515.343L206.348 514.563L205.438 514.233L205.068 515.353L205.618 515.853L205.208 517.063L209.578 519.283L217.518 518.263L218.918 519.313L220.578 518.113L223.148 521.043L223.488 522.763L225.708 525.383L226.798 525.043L230.328 527.003L231.538 533.243L232.188 534.853L233.318 535.703L238.758 534.993L239.868 534.373L247.218 535.183L245.518 537.293L238.248 542.613L237.558 545.583L234.758 548.953L234.488 552.063L232.788 551.283L231.178 551.633L230.208 551.283L229.718 551.673L229.038 553.113L229.218 555.263L230.928 559.863L230.698 561.183L228.388 561.303L224.338 559.543L221.398 558.983L216.828 563.523L214.928 562.403L213.748 563.183L212.398 563.193L211.978 560.913L211.428 561.153L206.948 559.033L206.288 559.873L207.268 561.483L207.948 561.703L208.818 561.003L209.758 561.163V561.623L208.128 563.023L205.998 561.613L205.378 562.123L208.608 563.363L209.038 566.463L207.608 565.953L203.198 566.623L200.498 566.313L199.478 565.513L194.998 568.203L196.908 568.323L199.408 569.763L201.288 568.803L207.048 567.553L208.058 568.913L209.428 569.233L211.748 566.523L212.718 566.953L214.838 566.063L224.208 575.253L223.358 576.963L218.688 581.213L215.868 582.683L213.028 582.803L211.078 583.703L210.288 585.543L213.108 591.113L214.278 592.143L214.328 593.363L213.398 596.873L211.518 599.613L211.178 598.333L210.008 597.183L207.578 596.353L206.288 596.903L207.008 597.113L207.848 599.283L208.908 599.703L209.998 599.373L210.308 599.863L210.978 599.473L211.388 600.563L214.628 600.693L217.778 604.233L218.218 607.773L215.728 611.373L217.178 611.293L221.238 617.943L220.488 617.373L218.368 617.723L216.868 616.673L215.208 616.923L212.818 620.673L209.058 621.653L208.908 624.433L207.388 624.583L206.408 626.203L206.278 626.913L206.898 627.123L207.288 625.953L209.828 624.693L209.348 623.043L209.828 622.033L212.868 621.373L215.178 618.133L216.208 617.933L217.658 619.083L219.288 618.433L222.898 621.513L226.838 623.543L227.738 626.293L226.798 628.173L227.308 629.503L224.808 632.093L223.908 633.873L224.598 638.573L224.238 639.863L215.368 644.843L214.208 643.213L214.908 641.223L215.628 642.303L215.198 642.453L215.328 644.493L216.348 644.513L216.598 643.983L215.348 641.173L209.868 640.223L205.978 644.023L204.048 644.773L201.008 647.403L197.268 649.063L196.988 650.053L197.758 650.843L198.168 654.213L200.228 655.703L200.118 656.243L197.288 656.313L193.898 655.203L192.478 656.843L192.678 657.533L193.208 657.353L193.098 658.793L192.278 658.753L192.358 657.923L191.568 659.353L192.798 659.443L194.438 658.313L194.988 659.233L196.238 658.093L197.088 658.223L198.438 660.153L200.228 660.503L202.108 662.783L202.908 664.763L204.528 665.313L204.468 668.743L197.538 676.003L196.888 675.423L192.828 675.273L191.998 676.303L189.458 677.103L187.608 676.603L187.298 675.623L187.458 676.643L186.838 676.833L187.468 676.913L186.858 677.183L187.408 677.153L187.568 677.873L186.768 677.723L187.118 678.443L186.628 678.813L187.118 680.903L188.388 681.683L188.528 680.963L189.338 680.803L191.078 682.983L194.788 682.613L196.408 683.343L198.358 682.903L200.058 681.013L204.088 679.303L207.618 678.623L207.708 676.713L208.878 676.313L212.218 678.363L213.778 682.283L215.488 684.433L218.688 685.463L222.798 688.153L224.248 689.813L227.028 689.253L230.388 689.923L230.608 693.133L232.338 695.063L232.018 696.763L232.738 704.003L233.988 704.803L234.478 707.133L236.548 708.313L235.928 710.133L232.978 711.653L226.548 710.123L225.378 711.953L225.598 713.223L226.758 713.843L228.628 713.593L230.698 715.453L231.068 718.273L233.258 720.153L233.648 722.863L232.448 725.293L228.918 726.553L228.148 725.133L225.798 723.763L226.048 722.403L222.448 721.253L219.348 721.753L216.688 720.373L216.348 718.953L218.318 717.563L219.178 715.543L217.958 715.363L217.148 714.543L216.408 712.523L214.388 712.053L212.608 710.073L211.138 709.573L212.178 708.463L216.518 707.243L218.068 707.363L219.078 708.953L220.918 708.713L221.658 707.823L221.088 706.393L218.808 704.593L216.768 703.233L214.328 702.673L213.418 703.913L212.928 707.263L212.398 707.553L211.738 706.373L210.618 706.663L209.838 707.633L210.998 707.603L211.598 708.723L207.778 710.843L208.458 711.523L208.258 713.433L206.668 715.973L205.378 716.743L202.868 715.443L202.498 716.633L200.818 716.573L200.248 717.753L198.808 717.893L197.258 720.433L196.268 720.963L195.358 723.263L193.348 723.993L192.178 725.433L190.168 725.663L187.988 727.123L186.038 727.113L186.048 725.713L184.758 724.643L183.908 725.133L181.188 725.433L180.628 726.913L179.978 729.753L177.528 731.173L176.138 733.233L175.758 734.773L173.788 733.493L168.828 732.703L169.018 734.433L167.838 733.813L167.538 732.533L165.638 731.933L162.818 732.533L160.848 727.363L160.788 726.363L162.098 724.333L161.458 722.863L156.588 720.693L155.138 720.643L149.398 717.773L143.488 717.103L140.768 718.013L134.828 717.583L130.208 714.103L126.008 712.753L121.058 710.273L116.218 710.393L113.298 709.703L108.778 711.663L107.268 711.523L105.148 709.253L103.888 709.243L103.108 709.933L102.118 709.453L100.408 709.753L100.418 710.243L97.2978 711.993L97.3578 712.633L94.3078 711.623L90.5578 712.613L84.0778 708.383L82.3478 708.163L81.1378 708.783L77.7778 708.103L80.8678 695.693L81.0278 690.113L77.2478 677.213L79.2578 665.273L79.7678 665.343L81.0578 662.943L83.0578 656.393L84.2578 655.363L83.6478 654.143L84.7878 652.093L82.9378 651.233L80.0578 651.053L74.0478 651.933L66.8178 650.763L66.0178 652.613L66.6678 656.653L67.2478 657.353L66.0878 662.443L68.6578 666.353L67.8878 666.443L66.9878 668.023L65.5778 668.823L62.5078 668.483L63.5878 669.283L62.9478 669.873L64.1378 671.223L62.6878 671.913L61.7278 672.223L59.8278 672.803L58.8078 671.943L54.4878 664.903L54.0578 665.103L53.7778 663.063L53.9978 662.623L55.4478 662.753L55.6178 662.273L54.0578 662.253L55.7578 652.263L56.1878 643.933L57.2378 642.133L58.6478 643.053L59.0278 642.653L58.9878 642.053L57.3378 641.433L58.1978 638.213L59.6778 636.763L59.9778 637.123L62.5978 636.283L61.9678 638.223L66.2578 638.143L69.2578 638.853L69.7178 639.423L71.7078 640.963L71.9378 641.753L70.9678 643.553L69.0678 645.343L68.6278 647.223L69.2878 647.783L68.4378 649.823L77.1178 651.183L81.8178 650.483L81.7378 649.853L82.7678 648.883L83.8078 648.783L84.2978 649.663L85.0478 649.683L84.7478 649.073L85.4578 648.393L84.6278 647.643L81.9978 633.233L81.5078 634.573L80.6278 634.303L80.6478 632.723L81.5178 632.683L81.1478 630.913L81.9478 629.923L80.8778 629.383L80.7278 628.123L81.4478 627.183L80.9278 626.513L81.9078 625.523L80.6378 625.193L80.4078 624.183L81.6578 623.743L81.3978 622.893L80.3278 623.113L80.0578 622.223L79.2278 622.243L78.8878 621.653L79.7378 621.003L79.9678 619.453L80.4678 620.173L81.1778 619.983L80.3578 615.853L81.0878 613.113L78.9078 612.383L74.7978 614.763L73.7978 616.043L71.0978 617.083L68.7778 622.233L67.0678 622.913L65.2478 622.753L63.5278 620.913L63.5778 618.813L65.6978 616.013L67.6378 615.353L71.7278 615.953L78.8478 611.663L81.2478 612.413L82.5978 608.743L82.7378 606.533L81.9278 605.473L82.0778 604.343L80.8478 602.583L76.1478 583.843L73.6178 582.483L71.0478 580.113L68.0278 578.813L66.3778 576.893L65.1278 576.503L61.8978 577.633L55.3278 576.033L54.5078 577.723L51.0478 576.203L52.1878 576.113L52.0078 575.473L50.4178 575.033L50.2178 575.953L49.5778 575.413L50.3378 574.023L49.3778 572.703L48.1578 570.853L47.6078 569.913L33.7978 554.493L30.5178 549.523L30.9878 547.683L33.5578 546.413L33.6078 545.493L32.6378 544.093L30.0578 542.663L27.0978 542.413L24.3178 546.043L23.8878 547.863L22.7078 549.503L22.7378 552.373L23.4778 554.553L24.8578 556.523L27.3078 557.543L25.9678 559.943L27.1878 561.903L29.3478 563.243L32.2978 566.683L32.3678 570.373L30.6078 571.423L16.4778 559.173L0.257812 551.513L0.327812 550.013L2.99781 543.443L12.0078 513.883L14.2478 498.983L13.4978 488.463L16.0978 487.983L15.7178 486.753L14.6778 486.063L14.7378 484.743L16.0478 484.443L20.9278 485.753L20.8078 487.863L23.6878 489.433L27.3578 492.973L28.4278 492.913L29.1478 491.913L34.3678 492.033L38.3778 486.793L42.4178 491.893L48.5178 492.503L47.2778 493.383L50.8178 495.203L52.0178 498.063L58.2878 497.983L60.9478 495.333L60.7878 489.753L64.1178 489.073L65.4278 486.793L63.4878 482.163L68.6978 480.563L71.8978 483.713L83.4078 480.413L87.8078 483.003L89.7978 488.883L94.8478 490.793L104.238 487.523L99.7678 483.003L103.738 480.623L106.018 472.183L108.228 472.563L109.548 468.833L111.488 469.233L111.818 468.753L123.448 471.423L122.378 481.113L129.498 484.773L132.358 482.333L134.598 483.353L136.328 479.843L137.998 481.373L139.938 475.843L141.658 473.313L144.458 475.263L148.938 471.753L155.268 463.573L155.188 460.133L158.538 454.223L163.768 454.523L167.028 458.273L170.218 458.573ZM219.268 634.913L218.718 635.003L219.178 636.023L222.728 635.403L222.218 634.363L222.148 633.873L221.078 631.993L219.318 633.053L219.268 634.913Z" fill="#57897E"/>
</g>
<defs>
<clipPath id="clip0_135_682">
<rect width="980.468" height="792.632" fill="white"/>
</clipPath>
</defs>
</svg>
