<svg xmlns:xlink="http://www.w3.org/1999/xlink" xmlns="http://www.w3.org/2000/svg" viewBox="0 0 188.3 102.4" width="188.3"  height="102.4" ><path fill="#ECE956" d="M156.6 11.6c-9.2-8.4-18.8-14.1-22.4-10.5-14 14-9.3 66.1-2.5 76.4 0 0 0-.1-.1-.1-3.3-8.5 9-50.5 25-65.8M163.3 7c-2.3.9-4.6 2.5-6.7 4.6 11.3 10.2 22 24.4 20.5 30.3-4.1 16.3-25.8 32.1-41.7 36.8-.5.1-.9.3-1.3.3h-.2s.9.1 1.9.2c1.4.1 3.2.2 4.4.2 16.2 0 37.7-6.2 46.7-18.1 6.7-8.9-13.2-58.5-23.6-54.3"/><path fill="#BED747" d="M135.4 78.7C151.3 74 173 58.2 177 41.9c1.5-5.9-9.2-20.1-20.5-30.3-16 15.3-28.3 57.3-25 65.8 0 0 0 .1.1.1.4.7 1.4 1.4 2.3 1.5h.2c.5 0 .9-.1 1.3-.3"/><path fill="#003C4F" d="M2.9 84H0V72.5c.9 0 2.2-.1 3.4-.1 3.7 0 5.9 1.7 5.9 5.7C9.3 82 6.7 84 2.9 84m.4-10.3H1.6v8.9c.4.1 1.1.1 1.5.1 2.7 0 4.6-1.4 4.6-4.5 0-2.9-1.4-4.5-4.4-4.5M15.4 84c0-.6 0-1.2.1-1.7-.4 1-1.5 1.8-2.9 1.8s-2.3-.8-2.3-2.1c0-1.9 1.9-3 5.1-3v-.6c0-1.2-.5-1.8-1.9-1.8-.8 0-1.8.3-2.6.7l-.2-1.3c.8-.3 1.8-.6 3-.6 2.4 0 3.1 1.1 3.1 2.8V84h-1.4zm-.1-3.9c-2.9 0-3.6.9-3.6 1.7 0 .7.5 1.2 1.3 1.2 1.4 0 2.3-1.4 2.3-2.7v-.2zM24.3 84v-5.5c0-1.2-.3-1.9-1.4-1.9-1.4 0-2.4 1.4-2.4 3.3V84H19v-8.5h1.5c0 .5 0 1.3-.1 1.8.5-1.2 1.5-2 3-2 1.9 0 2.6 1.2 2.6 2.7v6h-1.7zM38.4 84v-5.4c0-1.2-.3-1.9-1.4-1.9-1.2 0-2.4 1.3-2.4 3.3v4h-1.5v-5.4c0-1.1-.2-1.9-1.4-1.9-1.3 0-2.4 1.4-2.4 3.3v4h-1.5v-8.5h1.5c0 .5 0 1.3-.1 1.8.5-1.2 1.6-2 2.9-2 1.8 0 2.3 1.2 2.3 1.9.4-.8 1.3-1.9 2.9-1.9 1.6 0 2.5.9 2.5 2.8V84h-1.4zM46.8 84c0-.6 0-1.2.1-1.7-.4 1-1.5 1.8-2.9 1.8s-2.3-.8-2.3-2.1c0-1.9 1.9-3 5.1-3v-.6c0-1.2-.5-1.8-1.9-1.8-.8 0-1.8.3-2.6.7l-.2-1.3c.8-.3 1.8-.6 3-.6 2.4 0 3.1 1.1 3.1 2.8V84h-1.4zm-.1-3.9c-2.9 0-3.6.9-3.6 1.7 0 .7.5 1.2 1.3 1.2 1.4 0 2.3-1.4 2.3-2.7v-.2zM54.5 76.8c-1.8-.3-2.6 1-2.6 3.7V84h-1.5v-8.5h1.5c0 .5 0 1.3-.2 2 .4-1.2 1.2-2.4 2.9-2.2l-.1 1.5zM60.3 84l-3.1-4.4V84h-1.5V71.5h1.5v7.7l3-3.7H62l-3.2 3.9 3.5 4.6zM65.1 84.1c-.6 0-1.3-.1-1.8-.2l.1-1.4c.5.2 1.2.3 1.9.3 1.1 0 1.9-.5 1.9-1.3 0-1.9-3.9-.7-3.9-3.7 0-1.4 1.2-2.5 3.4-2.5.5 0 1.1.1 1.6.2v1.3c-.5-.2-1.1-.3-1.7-.3-1.1 0-1.7.5-1.7 1.2 0 1.9 3.9.9 3.9 3.7-.1 1.6-1.5 2.7-3.7 2.7M31.4 101L27 93.9c-.5-.8-.9-1.6-1.3-2.4.1 1.2.1 4 .1 5.8v3.7h-1.5V89.5h2.1l4.3 6.9c.5.8 1 1.7 1.4 2.5-.1-1.4-.1-4.2-.1-6.1v-3.3h1.5V101h-2.1zM40.1 101c0-.6 0-1.2.1-1.7-.4 1-1.5 1.8-2.9 1.8S35 100.4 35 99c0-1.9 1.9-3 5.1-3v-.6c0-1.2-.5-1.8-1.9-1.8-.8 0-1.8.3-2.6.7l-.1-1.3c.8-.3 1.8-.6 3-.6 2.4 0 3.1 1.1 3.1 2.8v5.8h-1.5zm-.1-3.9c-2.9 0-3.6.9-3.6 1.7 0 .7.5 1.2 1.3 1.2 1.4 0 2.3-1.4 2.3-2.7v-.2zM46.5 101.1c-1.7 0-2.3-.7-2.3-2.5v-4.9h-1.7v-1.2h1.7v-2.7l1.5-.4v3.2h2.4v1.2h-2.4V98c0 1.4.3 1.8 1.2 1.8.4 0 .8-.1 1.2-.2v1.3c-.4.2-1 .2-1.6.2M55.2 101c0-.5.1-1.3.1-1.8-.5 1.2-1.5 2-3 2-1.9 0-2.5-1.2-2.5-2.7v-5.9h1.5V98c0 1.2.3 1.9 1.4 1.9 1.4 0 2.4-1.4 2.4-3.3v-4.1h1.5v8.5h-1.4zM62.9 93.9c-1.8-.3-2.6 1-2.6 3.7v3.4h-1.5v-8.5h1.5c0 .5 0 1.3-.2 2 .4-1.2 1.2-2.4 2.9-2.2l-.1 1.6zM70.2 89.9c-.4-.1-.8-.2-1.2-.2-1.2 0-1.7.7-1.7 2.2v.6h2.3v1.2h-2.3v7.3h-1.5v-7.3H64v-1.2h1.7v-.6c0-2.3 1.1-3.4 3.3-3.4.5 0 .9.1 1.4.2l-.2 1.2zM74.9 93.9c-1.8-.3-2.6 1-2.6 3.7v3.4h-1.5v-8.5h1.5c0 .5-.1 1.3-.2 2 .4-1.2 1.2-2.4 2.9-2.2l-.1 1.6zM82.9 96.7h-5.5c-.1 2.3.9 3.2 2.7 3.2.9 0 1.8-.2 2.5-.5l.1 1.2c-.8.3-1.8.5-2.9.5-2.6 0-4-1.4-4-4.3 0-2.5 1.4-4.4 3.8-4.4S83 94 83 96c-.1.1-.1.4-.1.7m-3.4-3.2c-1.1 0-1.9.8-2.1 2.1h3.9c.1-1.3-.6-2.1-1.8-2.1M89.9 101c0-.5 0-1.2.1-1.7-.5 1.1-1.5 1.9-2.8 1.9-2.1 0-3.1-1.5-3.1-4 0-3 1.7-4.8 4.4-4.8.5 0 .9 0 1.4.1v-3.9h1.5V101h-1.5zm0-7.2c-.5-.1-1-.2-1.5-.2-1.6 0-2.7 1-2.7 3.4 0 1.8.6 2.9 1.9 2.9 1.5 0 2.3-1.8 2.3-3.3v-2.8zM98.9 101v-5.5c0-1.2-.3-1.9-1.4-1.9-1.4 0-2.4 1.4-2.4 3.3v4.1h-1.5v-8.5H95c0 .5 0 1.3-.1 1.8.5-1.2 1.5-2 3-2 1.9 0 2.6 1.2 2.6 2.7v5.9h-1.6zM103.3 91.1c-.6 0-1-.4-1-1 0-.5.5-1 1-1 .6 0 1 .4 1 1s-.5 1-1 1m-.8 1.4h1.5v8.5h-1.5v-8.5zM111.4 101v-5.5c0-1.2-.3-1.9-1.4-1.9-1.4 0-2.4 1.4-2.4 3.3v4.1H106v-8.5h1.5c0 .5 0 1.3-.1 1.8.5-1.2 1.5-2 3-2 1.9 0 2.6 1.2 2.6 2.7v5.9h-1.6zM125.4 101.1c-.6 0-1.3-.1-1.8-.2l.1-1.4c.5.2 1.2.3 1.9.3 1.1 0 1.9-.5 1.9-1.3 0-1.9-3.9-.7-3.9-3.7 0-1.4 1.2-2.5 3.4-2.5.5 0 1.1.1 1.6.2v1.3c-.5-.2-1.1-.3-1.7-.3-1.1 0-1.7.5-1.7 1.2 0 1.9 3.9.9 3.9 3.7-.1 1.6-1.5 2.7-3.7 2.7M136 89.9c-.4-.1-.8-.2-1.2-.2-1.2 0-1.7.7-1.7 2.2v.6h2.3v1.2H133v7.3h-1.5v-7.3h-1.7v-1.2h1.7v-.6c0-2.3 1.1-3.4 3.2-3.4.5 0 .9.1 1.4.2l-.1 1.2zM139.5 101.1c-2.3 0-3.8-1.3-3.8-4.3 0-2.5 1.6-4.5 4.1-4.5 2.2 0 3.8 1.2 3.8 4.2 0 2.7-1.6 4.6-4.1 4.6m.2-7.4c-1.2 0-2.4.9-2.4 3 0 2 .8 3.2 2.4 3.2 1.3 0 2.3-1 2.3-3.2 0-1.9-.7-3-2.3-3M149.6 93.9c-1.8-.3-2.6 1-2.6 3.7v3.4h-1.5v-8.5h1.5c0 .5-.1 1.3-.2 2 .4-1.2 1.2-2.4 2.9-2.2l-.1 1.6zM157.4 96.7h-5.5c-.1 2.3.9 3.2 2.7 3.2.9 0 1.8-.2 2.5-.5l.1 1.2c-.8.3-1.8.5-2.9.5-2.6 0-4-1.4-4-4.3 0-2.5 1.4-4.4 3.8-4.4s3.4 1.6 3.4 3.6c0 .1 0 .4-.1.7m-3.4-3.2c-1.1 0-1.9.8-2.1 2.1h3.9c.2-1.3-.6-2.1-1.8-2.1M164.6 101v-5.5c0-1.2-.3-1.9-1.4-1.9-1.4 0-2.4 1.4-2.4 3.3v4.1h-1.5v-8.5h1.5c0 .5 0 1.3-.1 1.8.5-1.2 1.5-2 3-2 1.9 0 2.6 1.2 2.6 2.7v5.9h-1.7zM168.9 91.1c-.6 0-1-.4-1-1 0-.5.5-1 1-1 .6 0 1 .4 1 1s-.4 1-1 1m-.7 1.4h1.5v8.5h-1.5v-8.5zM177.1 101v-5.5c0-1.2-.3-1.9-1.4-1.9-1.4 0-2.4 1.4-2.4 3.3v4.1h-1.5v-8.5h1.5c0 .5 0 1.3-.1 1.8.5-1.2 1.5-2 3-2 1.9 0 2.6 1.2 2.6 2.7v5.9h-1.7zM122.4 93.7H121c.4.3.7.9.7 1.6 0 1.8-1.3 3.2-3.7 3.2-.4 0-.8-.1-1.1-.1-.4.2-.5.4-.5.7 0 .5.4.7 1.4.7h1.6c1.8 0 2.9.9 2.9 2.4v.2h-1.5c0-.8-.6-1.3-1.8-1.3h-2.2c-.7 0-1.2-.3-1.6-.6-.3-.3-.5-.6-.5-1 0-.6.4-1.1 1-1.4-.8-.5-1.2-1.3-1.2-2.4 0-1.8 1.3-3.3 3.7-3.3.5 0 .9.1 1.3.2h2.9v1.1zm-2.2 1.8c0-1.2-.7-2-2-2s-2.1.8-2.1 2c0 1.3.8 1.9 2.1 1.9 1.2 0 2-.7 2-1.9M187.9 102.4h-1.5c0-.8-.6-1.3-1.8-1.3h-2.2c-.7 0-1.2-.3-1.6-.6-.3-.3-.4-.6-.4-1 0-.6.4-1.1 1-1.4-.8-.5-1.2-1.3-1.2-2.4 0-1.8 1.3-3.3 3.7-3.3.5 0 .9.1 1.3.2h2.9v1.2h-1.4c.4.3.7.9.7 1.6 0 1.8-1.3 3.2-3.7 3.2-.4 0-.8-.1-1.1-.1-.4.2-.5.4-.5.7 0 .5.4.7 1.4.7h1.6c1.8 0 2.9.9 2.9 2.4-.1 0-.1.1-.1.1m-6.3-6.9c0 1.3.8 1.9 2.1 1.9s2.1-.7 2.1-1.9-.7-2-2-2c-1.4 0-2.2.9-2.2 2M171.2 39.4c.4 1.6-.6 3.2-2.2 3.6-1.6.4-3.2-.6-3.6-2.2-.4-1.6.6-3.2 2.2-3.6 1.6-.4 3.2.6 3.6 2.2"/></svg>