<svg width="357" height="124" viewBox="0 0 357 124" fill="none" xmlns="http://www.w3.org/2000/svg">
<path d="M301.472 11.5988C292.272 3.19875 282.672 -2.50125 279.072 1.09875C265.072 15.0988 269.772 67.1988 276.572 77.4988C276.572 77.4988 276.572 77.3988 276.472 77.3988C273.172 68.8988 285.472 26.8988 301.472 11.5988ZM308.172 6.99875C305.872 7.89875 303.572 9.49875 301.472 11.5988C312.772 21.7988 323.472 35.9988 321.972 41.8988C317.872 58.1988 296.172 73.9988 280.272 78.6988C279.772 78.7988 279.372 78.9988 278.972 78.9988H278.772C278.772 78.9988 279.672 79.0988 280.672 79.1988C282.072 79.2988 283.872 79.3988 285.072 79.3988C301.272 79.3988 322.772 73.1988 331.772 61.2988C338.472 52.3988 318.572 2.79875 308.172 6.99875Z" fill="#ECE956"/>
<path d="M280.272 78.6986C296.172 73.9986 317.872 58.1986 321.872 41.8986C323.372 35.9986 312.672 21.7986 301.372 11.5986C285.372 26.8986 273.072 68.8986 276.372 77.3986C276.372 77.3986 276.372 77.4986 276.472 77.4986C276.872 78.1986 277.872 78.8986 278.772 78.9986H278.972C279.472 78.9986 279.872 78.8986 280.272 78.6986Z" fill="#BED747"/>
<path d="M5.50399 89.0534H0V67.2118C1.70813 67.2118 4.17544 67.0219 6.45295 67.0219C13.4753 67.0219 17.6507 70.2506 17.6507 77.8477C17.6507 85.2548 12.7161 89.0534 5.50399 89.0534ZM6.26316 69.4909H3.03668V86.3944C3.79585 86.5843 5.1244 86.5843 5.88357 86.5843C11.008 86.5843 14.614 83.9254 14.614 78.0376C14.614 72.5297 11.9569 69.4909 6.26316 69.4909ZM29.2281 89.0534C29.2281 87.9138 29.2281 86.7743 29.4179 85.8246C28.6587 87.7239 26.571 89.2433 23.9139 89.2433C21.2568 89.2433 19.5486 87.7239 19.5486 85.2549C19.5486 81.6462 23.1547 79.557 29.2281 79.557V78.4175C29.2281 76.1384 28.2791 74.9988 25.622 74.9988C24.1037 74.9988 22.2057 75.5686 20.6874 76.3283L20.3078 73.8592C21.8262 73.2894 23.7241 72.7197 26.0016 72.7197C30.5566 72.7197 31.8852 74.8089 31.8852 78.0376V89.0534H29.2281ZM29.0383 81.6462C23.5343 81.6462 22.2057 83.3556 22.2057 84.875C22.2057 86.2045 23.1547 87.1541 24.673 87.1541C27.3301 87.1541 29.0383 84.4951 29.0383 82.0261V81.6462ZM46.1196 89.0534V78.6074C46.1196 76.3283 45.5502 74.9988 43.4625 74.9988C40.8054 74.9988 38.9075 77.6578 38.9075 81.2664V89.0534H36.0606V72.9096H38.9075C38.9075 73.8592 38.9075 75.3786 38.7177 76.3283C39.6667 74.0492 41.5646 72.5297 44.4115 72.5297C48.0175 72.5297 49.3461 74.8089 49.3461 77.6578V89.0534H46.1196ZM72.8804 89.0534V78.7973C72.8804 76.5182 72.311 75.1887 70.2233 75.1887C67.9458 75.1887 65.6683 77.6578 65.6683 81.4563V89.0534H62.8214V78.7973C62.8214 76.7081 62.4418 75.1887 60.1643 75.1887C57.697 75.1887 55.6092 77.8477 55.6092 81.4563V89.0534H52.7624V72.9096H55.6092C55.6092 73.8592 55.6092 75.3786 55.4195 76.3283C56.3684 74.0492 58.4561 72.5297 60.9234 72.5297C64.3397 72.5297 65.2887 74.8089 65.2887 76.1383C66.0478 74.6189 67.756 72.5297 70.7927 72.5297C73.8293 72.5297 75.5375 74.2391 75.5375 77.8477V89.0534H72.8804ZM88.823 89.0534C88.823 87.9138 88.823 86.7743 89.0128 85.8246C88.2536 87.7239 86.1659 89.2433 83.5088 89.2433C80.8517 89.2433 79.1435 87.7239 79.1435 85.2549C79.1435 81.6462 82.7496 79.557 88.823 79.557V78.4175C88.823 76.1384 87.874 74.9988 85.2169 74.9988C83.6986 74.9988 81.8006 75.5686 80.2823 76.3283L79.9027 73.8592C81.421 73.2894 83.319 72.7197 85.5965 72.7197C90.1515 72.7197 91.4801 74.8089 91.4801 78.0376V89.0534H88.823ZM88.6332 81.6462C83.1292 81.6462 81.8006 83.3556 81.8006 84.875C81.8006 86.2045 82.7496 87.1541 84.2679 87.1541C86.925 87.1541 88.6332 84.4951 88.6332 82.0261V81.6462ZM103.437 75.3787C100.021 74.8089 98.5024 77.2779 98.5024 82.4059V89.0534H95.6555V72.9096H98.5024C98.5024 73.8592 98.5024 75.3786 98.1228 76.7081C98.882 74.429 100.4 72.1499 103.627 72.5297L103.437 75.3787ZM114.445 89.0534L108.561 80.6966V89.0534H105.715V65.3125H108.561V79.9369L114.255 72.9096H117.671L111.598 80.3168L118.241 89.0534H114.445ZM123.555 89.2433C122.416 89.2433 121.088 89.0534 120.139 88.8635L120.329 86.2045C121.278 86.5843 122.606 86.7743 123.935 86.7743C126.022 86.7743 127.541 85.8246 127.541 84.3052C127.541 80.6966 120.139 82.9757 120.139 77.2779C120.139 74.6189 122.416 72.5297 126.592 72.5297C127.541 72.5297 128.679 72.7197 129.628 72.9096V75.3787C128.679 74.9988 127.541 74.8089 126.402 74.8089C124.314 74.8089 123.175 75.7585 123.175 77.088C123.175 80.6966 130.577 78.7973 130.577 84.1153C130.388 87.1541 127.73 89.2433 123.555 89.2433ZM59.5949 121.341L51.244 107.856C50.2951 106.337 49.5359 104.817 48.7767 103.298C48.9665 105.577 48.9665 110.895 48.9665 114.314V121.341H46.1196V99.4994H50.1053L58.2663 112.604C59.2153 114.124 60.1643 115.833 60.9234 117.353C60.7336 114.694 60.7337 109.376 60.7337 105.767V99.4994H63.5805V121.341H59.5949ZM76.1068 121.341C76.1068 120.201 76.1069 119.062 76.2966 118.112C75.5375 120.012 73.4498 121.531 70.7927 121.531C68.1356 121.531 66.4274 120.201 66.4274 117.542C66.4274 113.934 70.0335 111.845 76.1068 111.845V110.705C76.1068 108.426 75.1579 107.286 72.5008 107.286C70.9825 107.286 69.0845 107.856 67.5662 108.616L67.3764 106.147C68.8947 105.577 70.7927 105.007 73.0702 105.007C77.6252 105.007 78.9537 107.096 78.9537 110.325V121.341H76.1068ZM75.9171 113.934C70.4131 113.934 69.0845 115.643 69.0845 117.163C69.0845 118.492 70.0335 119.442 71.5518 119.442C74.2089 119.442 75.9171 116.783 75.9171 114.314V113.934ZM88.2536 121.531C85.0271 121.531 83.8884 120.201 83.8884 116.783V107.476H80.6619V105.197H83.8884V100.069L86.7352 99.3095V105.387H91.2903V107.666H86.7352V115.643C86.7352 118.302 87.3046 119.062 89.0128 119.062C89.7719 119.062 90.5311 118.872 91.2903 118.682V121.151C90.5311 121.531 89.3923 121.531 88.2536 121.531ZM104.766 121.341C104.766 120.391 104.955 118.872 104.955 117.922C104.006 120.201 102.108 121.721 99.2616 121.721C95.6555 121.721 94.5167 119.442 94.5167 116.593V105.387H97.3636V115.643C97.3636 117.922 97.933 119.252 100.021 119.252C102.678 119.252 104.576 116.593 104.576 112.984V105.197H107.423V121.341H104.766ZM119.38 107.856C115.963 107.286 114.445 109.755 114.445 114.883V121.341H111.598V105.197H114.445C114.445 106.147 114.445 107.666 114.065 108.996C114.825 106.717 116.343 104.438 119.569 104.817L119.38 107.856ZM133.234 100.259C132.475 100.069 131.716 99.8792 130.957 99.8792C128.679 99.8792 127.73 101.209 127.73 104.058V105.197H132.096V107.476H127.73V121.341H124.884V107.476H121.467V105.197H124.694V104.058C124.694 99.6893 126.782 97.6001 130.957 97.6001C131.906 97.6001 132.665 97.79 133.614 97.98L133.234 100.259ZM142.155 107.856C138.738 107.286 137.22 109.755 137.22 114.883V121.341H134.373V105.197H137.22C137.22 106.147 137.03 107.666 136.84 108.996C137.6 106.717 139.118 104.438 142.344 104.817L142.155 107.856ZM157.338 113.174H146.9C146.71 117.542 148.608 119.252 152.024 119.252C153.732 119.252 155.44 118.872 156.769 118.302L156.959 120.581C155.44 121.151 153.542 121.531 151.455 121.531C146.52 121.531 143.863 118.872 143.863 113.364C143.863 108.616 146.52 105.007 151.075 105.007C155.63 105.007 157.528 108.046 157.528 111.845C157.338 112.035 157.338 112.604 157.338 113.174ZM150.885 107.096C148.797 107.096 147.279 108.616 146.9 111.085H154.301C154.491 108.616 153.163 107.096 150.885 107.096ZM170.624 121.341C170.624 120.391 170.624 119.062 170.813 118.112C169.864 120.201 167.966 121.721 165.499 121.721C161.514 121.721 159.616 118.872 159.616 114.124C159.616 108.426 162.842 105.007 167.967 105.007C168.915 105.007 169.675 105.007 170.624 105.197V97.79H173.47V121.341H170.624ZM170.624 107.666C169.675 107.476 168.726 107.286 167.777 107.286C164.74 107.286 162.652 109.186 162.652 113.744C162.652 117.163 163.791 119.252 166.258 119.252C169.105 119.252 170.624 115.833 170.624 112.984V107.666ZM187.705 121.341V110.895C187.705 108.616 187.136 107.286 185.048 107.286C182.391 107.286 180.493 109.945 180.493 113.554V121.341H177.646V105.197H180.303C180.303 106.147 180.303 107.666 180.113 108.616C181.062 106.337 182.96 104.817 185.807 104.817C189.413 104.817 190.742 107.096 190.742 109.945V121.151H187.705V121.341ZM196.056 102.538C194.917 102.538 194.158 101.779 194.158 100.639C194.158 99.6893 195.107 98.7397 196.056 98.7397C197.195 98.7397 197.954 99.4994 197.954 100.639C197.954 101.779 197.005 102.538 196.056 102.538ZM194.537 105.197H197.384V121.341H194.537V105.197ZM211.429 121.341V110.895C211.429 108.616 210.86 107.286 208.772 107.286C206.115 107.286 204.217 109.945 204.217 113.554V121.341H201.18V105.197H204.027C204.027 106.147 204.027 107.666 203.837 108.616C204.786 106.337 206.684 104.817 209.531 104.817C213.137 104.817 214.466 107.096 214.466 109.945V121.151H211.429V121.341ZM238 121.531C236.861 121.531 235.533 121.341 234.584 121.151L234.774 118.492C235.722 118.872 237.051 119.062 238.38 119.062C240.467 119.062 241.986 118.112 241.986 116.593C241.986 112.984 234.584 115.263 234.584 109.566C234.584 106.907 236.861 104.817 241.037 104.817C241.986 104.817 243.124 105.007 244.073 105.197V107.666C243.124 107.286 241.986 107.096 240.847 107.096C238.759 107.096 237.62 108.046 237.62 109.376C237.62 112.984 245.022 111.085 245.022 116.403C244.833 119.442 242.175 121.531 238 121.531ZM258.118 100.259C257.359 100.069 256.6 99.8792 255.84 99.8792C253.563 99.8792 252.614 101.209 252.614 104.058V105.197H256.979V107.476H252.424V121.341H249.577V107.476H246.351V105.197H249.577V104.058C249.577 99.6893 251.665 97.6001 255.651 97.6001C256.6 97.6001 257.359 97.79 258.308 97.98L258.118 100.259ZM264.761 121.531C260.396 121.531 257.549 119.062 257.549 113.364C257.549 108.616 260.585 104.817 265.33 104.817C269.506 104.817 272.542 107.096 272.542 112.794C272.542 117.922 269.506 121.531 264.761 121.531ZM265.14 107.476C262.863 107.476 260.585 109.186 260.585 113.174C260.585 116.973 262.104 119.252 265.14 119.252C267.608 119.252 269.506 117.353 269.506 113.174C269.506 109.566 268.177 107.476 265.14 107.476ZM283.93 107.856C280.514 107.286 278.995 109.755 278.995 114.883V121.341H276.148V105.197H278.995C278.995 106.147 278.805 107.666 278.616 108.996C279.375 106.717 280.893 104.438 284.12 104.817L283.93 107.856ZM298.734 113.174H288.295C288.105 117.542 290.003 119.252 293.419 119.252C295.128 119.252 296.836 118.872 298.164 118.302L298.354 120.581C296.836 121.151 294.938 121.531 292.85 121.531C287.915 121.531 285.258 118.872 285.258 113.364C285.258 108.616 287.915 105.007 292.47 105.007C297.026 105.007 298.923 108.046 298.923 111.845C298.923 112.035 298.923 112.604 298.734 113.174ZM292.281 107.096C290.193 107.096 288.675 108.616 288.295 111.085H295.697C296.077 108.616 294.558 107.096 292.281 107.096ZM312.399 121.341V110.895C312.399 108.616 311.829 107.286 309.742 107.286C307.085 107.286 305.187 109.945 305.187 113.554V121.341H302.34V105.197H305.187C305.187 106.147 305.187 107.666 304.997 108.616C305.946 106.337 307.844 104.817 310.691 104.817C314.297 104.817 315.625 107.096 315.625 109.945V121.151H312.399V121.341ZM320.56 102.538C319.421 102.538 318.662 101.779 318.662 100.639C318.662 99.6893 319.611 98.7397 320.56 98.7397C321.699 98.7397 322.458 99.4994 322.458 100.639C322.458 101.779 321.699 102.538 320.56 102.538ZM319.231 105.197H322.078V121.341H319.231V105.197ZM336.123 121.341V110.895C336.123 108.616 335.553 107.286 333.466 107.286C330.809 107.286 328.911 109.945 328.911 113.554V121.341H326.064V105.197H328.911C328.911 106.147 328.911 107.666 328.721 108.616C329.67 106.337 331.568 104.817 334.415 104.817C338.021 104.817 339.349 107.096 339.349 109.945V121.151H336.123V121.341ZM232.306 107.476H229.649C230.408 108.046 230.978 109.186 230.978 110.515C230.978 113.934 228.51 116.593 223.955 116.593C223.196 116.593 222.437 116.403 221.868 116.403C221.108 116.783 220.919 117.163 220.919 117.732C220.919 118.682 221.678 119.062 223.576 119.062H226.612C230.029 119.062 232.116 120.771 232.116 123.62V124H229.27C229.27 122.481 228.131 121.531 225.853 121.531H221.678C220.349 121.531 219.4 120.961 218.641 120.391C218.072 119.822 217.692 119.252 217.692 118.492C217.692 117.353 218.451 116.403 219.59 115.833C218.072 114.883 217.313 113.364 217.313 111.275C217.313 107.856 219.78 105.007 224.335 105.007C225.284 105.007 226.043 105.197 226.802 105.387H232.306V107.476ZM228.131 110.895C228.131 108.616 226.802 107.096 224.335 107.096C221.868 107.096 220.349 108.616 220.349 110.895C220.349 113.364 221.868 114.504 224.335 114.504C226.612 114.504 228.131 113.174 228.131 110.895ZM356.62 124H353.773C353.773 122.481 352.635 121.531 350.357 121.531H346.182C344.853 121.531 343.904 120.961 343.145 120.391C342.576 119.822 342.386 119.252 342.386 118.492C342.386 117.353 343.145 116.403 344.284 115.833C342.766 114.883 342.006 113.364 342.006 111.275C342.006 107.856 344.474 105.007 349.029 105.007C349.978 105.007 350.737 105.197 351.496 105.387H357V107.666H354.343C355.102 108.236 355.671 109.376 355.671 110.705C355.671 114.124 353.204 116.783 348.649 116.783C347.89 116.783 347.131 116.593 346.561 116.593C345.802 116.973 345.612 117.353 345.612 117.922C345.612 118.872 346.372 119.252 348.27 119.252H351.306C354.722 119.252 356.81 120.961 356.81 123.81C356.62 123.81 356.62 124 356.62 124ZM344.663 110.895C344.663 113.364 346.182 114.504 348.649 114.504C351.116 114.504 352.635 113.174 352.635 110.895C352.635 108.616 351.306 107.096 348.839 107.096C346.182 107.096 344.663 108.806 344.663 110.895Z" fill="white"/>
<circle cx="311.5" cy="39.5" r="4.5" fill="white"/>
</svg>
