<svg width="189" height="103" viewBox="0 0 189 103" fill="none" xmlns="http://www.w3.org/2000/svg">
<g clip-path="url(#clip0_93_188)">
<path d="M156.6 11.6002C147.4 3.20022 137.8 -2.49978 134.2 1.10022C120.2 15.1002 124.9 67.2002 131.7 77.5002C131.7 77.5002 131.7 77.4002 131.6 77.4002C128.3 68.9002 140.6 26.9002 156.6 11.6002ZM163.3 7.00022C161 7.90022 158.7 9.50022 156.6 11.6002C167.9 21.8002 178.6 36.0002 177.1 41.9002C173 58.2002 151.3 74.0002 135.4 78.7002C134.9 78.8002 134.5 79.0002 134.1 79.0002H133.9C133.9 79.0002 134.8 79.1002 135.8 79.2002C137.2 79.3002 139 79.4002 140.2 79.4002C156.4 79.4002 177.9 73.2002 186.9 61.3002C193.6 52.4002 173.7 2.80022 163.3 7.00022Z" fill="#ECE956"/>
<path d="M135.4 78.7001C151.3 74.0001 173 58.2001 177 41.9001C178.5 36.0001 167.8 21.8001 156.5 11.6001C140.5 26.9001 128.2 68.9001 131.5 77.4001C131.5 77.4001 131.5 77.5001 131.6 77.5001C132 78.2001 133 78.9001 133.9 79.0001H134.1C134.6 79.0001 135 78.9001 135.4 78.7001Z" fill="#BED747"/>
<path d="M2.9 84H0V72.5C0.9 72.5 2.2 72.4 3.4 72.4C7.1 72.4 9.3 74.1 9.3 78.1C9.3 82 6.7 84 2.9 84ZM3.3 73.7H1.6V82.6C2 82.7 2.7 82.7 3.1 82.7C5.8 82.7 7.7 81.3 7.7 78.2C7.7 75.3 6.3 73.7 3.3 73.7ZM15.4 84C15.4 83.4 15.4 82.8 15.5 82.3C15.1 83.3 14 84.1 12.6 84.1C11.2 84.1 10.3 83.3 10.3 82C10.3 80.1 12.2 79 15.4 79V78.4C15.4 77.2 14.9 76.6 13.5 76.6C12.7 76.6 11.7 76.9 10.9 77.3L10.7 76C11.5 75.7 12.5 75.4 13.7 75.4C16.1 75.4 16.8 76.5 16.8 78.2V84H15.4ZM15.3 80.1C12.4 80.1 11.7 81 11.7 81.8C11.7 82.5 12.2 83 13 83C14.4 83 15.3 81.6 15.3 80.3V80.1ZM24.3 84V78.5C24.3 77.3 24 76.6 22.9 76.6C21.5 76.6 20.5 78 20.5 79.9V84H19V75.5H20.5C20.5 76 20.5 76.8 20.4 77.3C20.9 76.1 21.9 75.3 23.4 75.3C25.3 75.3 26 76.5 26 78V84H24.3ZM38.4 84V78.6C38.4 77.4 38.1 76.7 37 76.7C35.8 76.7 34.6 78 34.6 80V84H33.1V78.6C33.1 77.5 32.9 76.7 31.7 76.7C30.4 76.7 29.3 78.1 29.3 80V84H27.8V75.5H29.3C29.3 76 29.3 76.8 29.2 77.3C29.7 76.1 30.8 75.3 32.1 75.3C33.9 75.3 34.4 76.5 34.4 77.2C34.8 76.4 35.7 75.3 37.3 75.3C38.9 75.3 39.8 76.2 39.8 78.1V84H38.4ZM46.8 84C46.8 83.4 46.8 82.8 46.9 82.3C46.5 83.3 45.4 84.1 44 84.1C42.6 84.1 41.7 83.3 41.7 82C41.7 80.1 43.6 79 46.8 79V78.4C46.8 77.2 46.3 76.6 44.9 76.6C44.1 76.6 43.1 76.9 42.3 77.3L42.1 76C42.9 75.7 43.9 75.4 45.1 75.4C47.5 75.4 48.2 76.5 48.2 78.2V84H46.8ZM46.7 80.1C43.8 80.1 43.1 81 43.1 81.8C43.1 82.5 43.6 83 44.4 83C45.8 83 46.7 81.6 46.7 80.3V80.1ZM54.5 76.8C52.7 76.5 51.9 77.8 51.9 80.5V84H50.4V75.5H51.9C51.9 76 51.9 76.8 51.7 77.5C52.1 76.3 52.9 75.1 54.6 75.3L54.5 76.8ZM60.3 84L57.2 79.6V84H55.7V71.5H57.2V79.2L60.2 75.5H62L58.8 79.4L62.3 84H60.3ZM65.1 84.1C64.5 84.1 63.8 84 63.3 83.9L63.4 82.5C63.9 82.7 64.6 82.8 65.3 82.8C66.4 82.8 67.2 82.3 67.2 81.5C67.2 79.6 63.3 80.8 63.3 77.8C63.3 76.4 64.5 75.3 66.7 75.3C67.2 75.3 67.8 75.4 68.3 75.5V76.8C67.8 76.6 67.2 76.5 66.6 76.5C65.5 76.5 64.9 77 64.9 77.7C64.9 79.6 68.8 78.6 68.8 81.4C68.7 83 67.3 84.1 65.1 84.1ZM31.4 101L27 93.9C26.5 93.1 26.1 92.3 25.7 91.5C25.8 92.7 25.8 95.5 25.8 97.3V101H24.3V89.5H26.4L30.7 96.4C31.2 97.2 31.7 98.1 32.1 98.9C32 97.5 32 94.7 32 92.8V89.5H33.5V101H31.4ZM40.1 101C40.1 100.4 40.1 99.8 40.2 99.3C39.8 100.3 38.7 101.1 37.3 101.1C35.9 101.1 35 100.4 35 99C35 97.1 36.9 96 40.1 96V95.4C40.1 94.2 39.6 93.6 38.2 93.6C37.4 93.6 36.4 93.9 35.6 94.3L35.5 93C36.3 92.7 37.3 92.4 38.5 92.4C40.9 92.4 41.6 93.5 41.6 95.2V101H40.1ZM40 97.1C37.1 97.1 36.4 98 36.4 98.8C36.4 99.5 36.9 100 37.7 100C39.1 100 40 98.6 40 97.3V97.1ZM46.5 101.1C44.8 101.1 44.2 100.4 44.2 98.6V93.7H42.5V92.5H44.2V89.8L45.7 89.4V92.6H48.1V93.8H45.7V98C45.7 99.4 46 99.8 46.9 99.8C47.3 99.8 47.7 99.7 48.1 99.6V100.9C47.7 101.1 47.1 101.1 46.5 101.1ZM55.2 101C55.2 100.5 55.3 99.7 55.3 99.2C54.8 100.4 53.8 101.2 52.3 101.2C50.4 101.2 49.8 100 49.8 98.5V92.6H51.3V98C51.3 99.2 51.6 99.9 52.7 99.9C54.1 99.9 55.1 98.5 55.1 96.6V92.5H56.6V101H55.2ZM62.9 93.9C61.1 93.6 60.3 94.9 60.3 97.6V101H58.8V92.5H60.3C60.3 93 60.3 93.8 60.1 94.5C60.5 93.3 61.3 92.1 63 92.3L62.9 93.9ZM70.2 89.9C69.8 89.8 69.4 89.7 69 89.7C67.8 89.7 67.3 90.4 67.3 91.9V92.5H69.6V93.7H67.3V101H65.8V93.7H64V92.5H65.7V91.9C65.7 89.6 66.8 88.5 69 88.5C69.5 88.5 69.9 88.6 70.4 88.7L70.2 89.9ZM74.9 93.9C73.1 93.6 72.3 94.9 72.3 97.6V101H70.8V92.5H72.3C72.3 93 72.2 93.8 72.1 94.5C72.5 93.3 73.3 92.1 75 92.3L74.9 93.9ZM82.9 96.7H77.4C77.3 99 78.3 99.9 80.1 99.9C81 99.9 81.9 99.7 82.6 99.4L82.7 100.6C81.9 100.9 80.9 101.1 79.8 101.1C77.2 101.1 75.8 99.7 75.8 96.8C75.8 94.3 77.2 92.4 79.6 92.4C82 92.4 83 94 83 96C82.9 96.1 82.9 96.4 82.9 96.7ZM79.5 93.5C78.4 93.5 77.6 94.3 77.4 95.6H81.3C81.4 94.3 80.7 93.5 79.5 93.5ZM89.9 101C89.9 100.5 89.9 99.8 90 99.3C89.5 100.4 88.5 101.2 87.2 101.2C85.1 101.2 84.1 99.7 84.1 97.2C84.1 94.2 85.8 92.4 88.5 92.4C89 92.4 89.4 92.4 89.9 92.5V88.6H91.4V101H89.9ZM89.9 93.8C89.4 93.7 88.9 93.6 88.4 93.6C86.8 93.6 85.7 94.6 85.7 97C85.7 98.8 86.3 99.9 87.6 99.9C89.1 99.9 89.9 98.1 89.9 96.6V93.8ZM98.9 101V95.5C98.9 94.3 98.6 93.6 97.5 93.6C96.1 93.6 95.1 95 95.1 96.9V101H93.6V92.5H95C95 93 95 93.8 94.9 94.3C95.4 93.1 96.4 92.3 97.9 92.3C99.8 92.3 100.5 93.5 100.5 95V100.9H98.9V101ZM103.3 91.1C102.7 91.1 102.3 90.7 102.3 90.1C102.3 89.6 102.8 89.1 103.3 89.1C103.9 89.1 104.3 89.5 104.3 90.1C104.3 90.7 103.8 91.1 103.3 91.1ZM102.5 92.5H104V101H102.5V92.5ZM111.4 101V95.5C111.4 94.3 111.1 93.6 110 93.6C108.6 93.6 107.6 95 107.6 96.9V101H106V92.5H107.5C107.5 93 107.5 93.8 107.4 94.3C107.9 93.1 108.9 92.3 110.4 92.3C112.3 92.3 113 93.5 113 95V100.9H111.4V101ZM125.4 101.1C124.8 101.1 124.1 101 123.6 100.9L123.7 99.5C124.2 99.7 124.9 99.8 125.6 99.8C126.7 99.8 127.5 99.3 127.5 98.5C127.5 96.6 123.6 97.8 123.6 94.8C123.6 93.4 124.8 92.3 127 92.3C127.5 92.3 128.1 92.4 128.6 92.5V93.8C128.1 93.6 127.5 93.5 126.9 93.5C125.8 93.5 125.2 94 125.2 94.7C125.2 96.6 129.1 95.6 129.1 98.4C129 100 127.6 101.1 125.4 101.1ZM136 89.9C135.6 89.8 135.2 89.7 134.8 89.7C133.6 89.7 133.1 90.4 133.1 91.9V92.5H135.4V93.7H133V101H131.5V93.7H129.8V92.5H131.5V91.9C131.5 89.6 132.6 88.5 134.7 88.5C135.2 88.5 135.6 88.6 136.1 88.7L136 89.9ZM139.5 101.1C137.2 101.1 135.7 99.8 135.7 96.8C135.7 94.3 137.3 92.3 139.8 92.3C142 92.3 143.6 93.5 143.6 96.5C143.6 99.2 142 101.1 139.5 101.1ZM139.7 93.7C138.5 93.7 137.3 94.6 137.3 96.7C137.3 98.7 138.1 99.9 139.7 99.9C141 99.9 142 98.9 142 96.7C142 94.8 141.3 93.7 139.7 93.7ZM149.6 93.9C147.8 93.6 147 94.9 147 97.6V101H145.5V92.5H147C147 93 146.9 93.8 146.8 94.5C147.2 93.3 148 92.1 149.7 92.3L149.6 93.9ZM157.4 96.7H151.9C151.8 99 152.8 99.9 154.6 99.9C155.5 99.9 156.4 99.7 157.1 99.4L157.2 100.6C156.4 100.9 155.4 101.1 154.3 101.1C151.7 101.1 150.3 99.7 150.3 96.8C150.3 94.3 151.7 92.4 154.1 92.4C156.5 92.4 157.5 94 157.5 96C157.5 96.1 157.5 96.4 157.4 96.7ZM154 93.5C152.9 93.5 152.1 94.3 151.9 95.6H155.8C156 94.3 155.2 93.5 154 93.5ZM164.6 101V95.5C164.6 94.3 164.3 93.6 163.2 93.6C161.8 93.6 160.8 95 160.8 96.9V101H159.3V92.5H160.8C160.8 93 160.8 93.8 160.7 94.3C161.2 93.1 162.2 92.3 163.7 92.3C165.6 92.3 166.3 93.5 166.3 95V100.9H164.6V101ZM168.9 91.1C168.3 91.1 167.9 90.7 167.9 90.1C167.9 89.6 168.4 89.1 168.9 89.1C169.5 89.1 169.9 89.5 169.9 90.1C169.9 90.7 169.5 91.1 168.9 91.1ZM168.2 92.5H169.7V101H168.2V92.5ZM177.1 101V95.5C177.1 94.3 176.8 93.6 175.7 93.6C174.3 93.6 173.3 95 173.3 96.9V101H171.8V92.5H173.3C173.3 93 173.3 93.8 173.2 94.3C173.7 93.1 174.7 92.3 176.2 92.3C178.1 92.3 178.8 93.5 178.8 95V100.9H177.1V101ZM122.4 93.7H121C121.4 94 121.7 94.6 121.7 95.3C121.7 97.1 120.4 98.5 118 98.5C117.6 98.5 117.2 98.4 116.9 98.4C116.5 98.6 116.4 98.8 116.4 99.1C116.4 99.6 116.8 99.8 117.8 99.8H119.4C121.2 99.8 122.3 100.7 122.3 102.2V102.4H120.8C120.8 101.6 120.2 101.1 119 101.1H116.8C116.1 101.1 115.6 100.8 115.2 100.5C114.9 100.2 114.7 99.9 114.7 99.5C114.7 98.9 115.1 98.4 115.7 98.1C114.9 97.6 114.5 96.8 114.5 95.7C114.5 93.9 115.8 92.4 118.2 92.4C118.7 92.4 119.1 92.5 119.5 92.6H122.4V93.7ZM120.2 95.5C120.2 94.3 119.5 93.5 118.2 93.5C116.9 93.5 116.1 94.3 116.1 95.5C116.1 96.8 116.9 97.4 118.2 97.4C119.4 97.4 120.2 96.7 120.2 95.5ZM187.9 102.4H186.4C186.4 101.6 185.8 101.1 184.6 101.1H182.4C181.7 101.1 181.2 100.8 180.8 100.5C180.5 100.2 180.4 99.9 180.4 99.5C180.4 98.9 180.8 98.4 181.4 98.1C180.6 97.6 180.2 96.8 180.2 95.7C180.2 93.9 181.5 92.4 183.9 92.4C184.4 92.4 184.8 92.5 185.2 92.6H188.1V93.8H186.7C187.1 94.1 187.4 94.7 187.4 95.4C187.4 97.2 186.1 98.6 183.7 98.6C183.3 98.6 182.9 98.5 182.6 98.5C182.2 98.7 182.1 98.9 182.1 99.2C182.1 99.7 182.5 99.9 183.5 99.9H185.1C186.9 99.9 188 100.8 188 102.3C187.9 102.3 187.9 102.4 187.9 102.4ZM181.6 95.5C181.6 96.8 182.4 97.4 183.7 97.4C185 97.4 185.8 96.7 185.8 95.5C185.8 94.3 185.1 93.5 183.8 93.5C182.4 93.5 181.6 94.4 181.6 95.5ZM171.2 39.4C171.6 41 170.6 42.6 169 43C167.4 43.4 165.8 42.4 165.4 40.8C165 39.2 166 37.6 167.6 37.2C169.2 36.8 170.8 37.8 171.2 39.4Z" fill="white"/>
</g>
<defs>
<clipPath id="clip0_93_188">
<rect width="188.3" height="102.4" fill="white"/>
</clipPath>
</defs>
</svg>
