<svg width="84" height="84" viewBox="0 0 84 84" fill="none" xmlns="http://www.w3.org/2000/svg">
<g clip-path="url(#clip0_119_665)">
<path d="M1.76667 83.3867C1.41333 83.3867 0.706667 83.0334 0.353333 83.0334C0 82.68 0 81.9734 0 81.2667L5.3 58.3C5.3 57.9467 5.65333 57.5934 5.65333 57.5934L61.1267 2.47338C64.3067 -0.706621 70.3133 -0.706621 73.4933 2.47338L80.9133 9.89338C84.4467 13.4267 84.4467 19.08 80.9133 22.26L25.7933 77.7334C25.44 78.0867 25.44 78.0867 25.0867 78.0867L2.12 83.3867H1.76667ZM8.83333 59.7134L4.24 79.1467L23.6733 74.5534L78.44 20.14C80.56 18.02 80.56 14.84 78.44 12.72L71.02 5.30005C68.9 3.18005 65.3667 3.18005 63.6 5.30005L8.83333 59.7134Z" fill="#004155"/>
<path d="M77.3801 25.4401C77.0267 25.4401 76.3201 25.4401 75.9668 25.0867L58.3001 7.42008C57.5934 6.71341 57.5934 5.65341 58.3001 4.94675C59.0067 4.24008 60.0668 4.24008 60.7734 4.94675L78.4401 22.6134C79.1468 23.3201 79.1468 24.3801 78.4401 25.0867C78.0868 25.4401 77.7334 25.4401 77.3801 25.4401ZM72.0801 30.3867C71.7267 30.3867 71.0201 30.3867 70.6667 30.0334L53.3534 12.3667C52.6468 11.6601 52.6468 10.6001 53.3534 9.89341C54.0601 9.18675 55.1201 9.18675 55.8267 9.89341L73.1401 27.5601C74.2001 28.2667 74.2001 29.3267 73.4934 30.0334C73.1401 30.3867 72.7867 30.3867 72.0801 30.3867ZM25.4401 77.3801C25.0867 77.3801 24.3801 77.3801 24.0267 77.0267L6.36008 59.3601C5.65341 58.6534 5.65341 57.5934 6.36008 56.8867C7.06674 56.1801 8.12674 56.1801 8.83341 56.8867L26.5001 74.5534C27.2067 75.2601 27.2067 76.3201 26.5001 77.0267C26.5001 77.0267 25.7934 77.3801 25.4401 77.3801Z" fill="#004155"/>
</g>
<defs>
<clipPath id="clip0_119_665">
<rect width="83.74" height="83.3867" fill="white"/>
</clipPath>
</defs>
</svg>
