<svg width="88" height="88" viewBox="0 0 88 88" fill="none" xmlns="http://www.w3.org/2000/svg">
<path d="M33.9433 32.9488H35.0953L42.3509 49.104C41.8935 49.0711 41.4344 49.0711 40.9771 49.104C40.3259 49.1488 39.681 49.2613 39.0522 49.4396C38.4214 49.6194 37.8101 49.8638 37.2276 50.1693C36.6411 50.4721 36.0871 50.8365 35.5747 51.2565C35.0527 51.6949 34.5735 52.1836 34.1436 52.7159C33.7134 53.2412 33.3348 53.8082 33.0131 54.4087C32.6878 55.0114 32.4195 55.6442 32.2116 56.2986C31.9968 56.9491 31.8411 57.6184 31.7465 58.2979C31.6602 58.985 31.6386 59.679 31.6821 60.3702C31.727 61.0624 31.8348 61.7488 32.0041 62.4206C32.184 63.0886 32.4235 63.7383 32.7197 64.3616C33.0049 64.9813 33.35 65.5704 33.7501 66.1201C34.1418 66.671 34.5878 67.1795 35.081 67.6379C35.5596 68.0899 36.0822 68.4909 36.6409 68.8345C37.7693 69.5307 39.0261 69.9827 40.3331 70.1626C40.9778 70.2538 41.6301 70.2758 42.2794 70.2282C42.9282 70.184 43.5708 70.0715 44.197 69.8926C44.8297 69.7116 45.4433 69.4672 46.0288 69.1629C46.6131 68.86 47.1647 68.4956 47.6746 68.0757C48.1983 67.6393 48.6777 67.1504 49.1057 66.6163C49.3624 66.3123 49.6013 65.9931 49.8212 65.6604L53.7281 74.3655C53.5251 74.5698 53.3048 74.7554 53.0698 74.9201C52.2596 75.529 51.3025 75.9023 50.3006 76H35.7464C34.3028 75.9565 32.895 75.5316 31.6607 74.7668C22.1654 68.5427 29.4783 40.9169 33.4352 33.2918C33.481 33.1938 33.553 33.111 33.6429 33.053C33.7327 32.9949 33.8369 32.9638 33.9433 32.9634V32.9488ZM42.4797 32.9488H47.6173C48.6048 40.2456 51.4455 45.2731 53.7138 50.8625C56.2468 57.1086 57.5276 59.1225 56.9337 65.208L42.4797 32.9488ZM54.5867 11.7881L54.5223 19.8145C54.5239 19.9491 54.483 20.0806 54.4057 20.1896C54.3284 20.2987 54.2188 20.3795 54.093 20.4202C52.386 20.8592 50.8 21.6903 49.4563 22.85C48.141 24.1325 47.2867 25.8287 47.0306 27.6659V30.4022C47.0334 30.4839 47.0203 30.5654 46.9918 30.6418C46.9633 30.7182 46.9201 30.7881 46.8648 30.8472C46.8095 30.9064 46.7431 30.9537 46.6695 30.9863C46.596 31.0189 46.5168 31.0361 46.4367 31.037H41.571L33.4495 12.8826C35.7607 11.6494 39.9825 11.1824 42.8518 11.0949C44.6979 11.0438 46.5512 11 48.4116 11C50.272 11 52.1324 11 53.9785 11.0876C54.0587 11.0903 54.1376 11.1095 54.2104 11.1438C54.2833 11.1782 54.3486 11.2271 54.4027 11.2876C54.4567 11.3481 54.4983 11.4191 54.525 11.4962C54.5517 11.5734 54.5629 11.6553 54.5581 11.737L54.5867 11.7881ZM29.8575 21.2739C29.3781 21.0404 28.8629 20.8142 28.3191 20.6099C28.1697 20.5465 28.0496 20.4275 27.9831 20.2771C27.9167 20.1266 27.9089 19.956 27.9613 19.8C28.1402 19.2965 28.3405 18.8149 28.5481 18.3406L29.8575 21.2593V21.2739ZM55.7674 11.5546L55.8175 19.2527H59.3523C59.846 19.2527 60.0678 18.8295 59.9819 17.6839V12.8534C59.9967 12.6811 59.9594 12.5083 59.875 12.3582C59.7905 12.2082 59.663 12.0882 59.5097 12.0143L55.7674 11.5546ZM49.5636 28.2716C50.1933 25.5936 51.7102 23.8278 54.229 23.1638C54.647 26.9113 55.8474 30.524 57.7494 33.7588C58.8013 35.3349 57.0983 36.9694 55.8675 35.2984L51.8891 28.3591L49.5636 28.2934V28.2716ZM41.6425 54.5401C41.8996 54.5412 42.1543 54.5906 42.3938 54.686C42.6944 53.9563 42.7874 53.7447 43.1094 53.0442L43.9251 53.6134C44.0968 53.7374 43.3956 54.6933 43.2096 55.2041C43.999 56.0181 44.53 57.0554 44.7337 58.1812H41.4207L41.757 58.6117H45.3347L46.4009 58.225L43.1309 50.8406L42.723 50.7749C42.1776 50.7007 41.6264 50.6812 41.0772 50.7165C40.5255 50.7605 39.9792 50.8583 39.4458 51.0084C39.2278 51.0679 39.0129 51.1386 38.8018 51.22C38.5943 51.3003 38.3939 51.3879 38.1793 51.4827L37.7714 51.6943L37.3707 51.9278C37.2565 52.0043 37.1742 52.1213 37.1399 52.2561C37.1055 52.3909 37.1215 52.534 37.1847 52.6575L37.2634 52.767L39.5674 55.7368C39.7228 55.5233 39.8977 55.3254 40.0898 55.1457C39.9753 54.883 39.8823 54.6568 39.7964 54.416L39.2812 53.4383L40.1041 52.8691C40.2615 52.767 40.3975 53.0296 40.5191 53.3799C40.6408 53.7301 40.7839 54.3431 40.8912 54.5912C41.1204 54.5032 41.362 54.4539 41.6067 54.4452L41.6425 54.5401ZM47.0163 59.5457L45.714 60.02C45.714 60.1367 45.714 60.2462 45.714 60.3629C45.714 60.6767 45.714 60.9905 45.6639 61.2896L47.5171 62.2893C48.1182 62.6104 48.1754 64.0259 46.6084 63.4349L45.3848 62.7709C45.3848 62.9022 45.3061 63.0336 45.2632 63.1576L47.1665 65.6093C47.2088 65.6621 47.2608 65.7058 47.3197 65.7381C47.3785 65.7703 47.443 65.7904 47.5095 65.7971C47.5759 65.8039 47.643 65.7973 47.707 65.7776C47.7709 65.7579 47.8304 65.7255 47.8821 65.6823L47.9608 65.602L48.1397 65.3685C48.2041 65.2883 48.2685 65.2007 48.3257 65.1132C48.383 65.0256 48.5261 64.8213 48.6191 64.6681C48.7121 64.5148 48.8194 64.3397 48.8981 64.2011L48.9983 64.004L46.9948 59.5457H47.0163ZM39.453 58.1447H38.5728C38.6287 57.8596 38.7053 57.5791 38.8018 57.3056L36.0398 53.7812C35.9988 53.7268 35.9472 53.6814 35.8883 53.648C35.8295 53.6147 35.7645 53.5939 35.6975 53.5871C35.6305 53.5802 35.5628 53.5875 35.4986 53.6083C35.4344 53.6291 35.3751 53.6631 35.3243 53.7082C35.2968 53.7314 35.2727 53.7584 35.2527 53.7885L35.0667 54.0147C35.0023 54.095 34.945 54.1825 34.8806 54.2701C34.8162 54.3577 34.6803 54.562 34.5872 54.7152C34.4942 54.8684 34.3869 55.0436 34.3082 55.1895C34.0202 55.7002 33.7806 56.2377 33.5926 56.7948C33.4347 57.3475 33.3293 57.9144 33.2778 58.4877C33.2049 59.0683 33.1857 59.6546 33.2206 60.2389C33.2587 60.8251 33.3497 61.4064 33.4925 61.9755C33.6349 62.5424 33.829 63.0945 34.0721 63.6246C34.3157 64.1389 34.6081 64.6277 34.945 65.084C35.2795 65.549 35.6582 65.9791 36.0756 66.3682C36.486 66.7569 36.9343 67.1016 37.4136 67.3971C37.8932 67.6884 38.3987 67.9327 38.9234 68.1267C39.4458 68.3128 39.9852 68.4448 40.5334 68.5208C41.0785 68.5989 41.6301 68.6184 42.1792 68.5791C42.731 68.5406 43.2776 68.4453 43.8106 68.2946C44.0253 68.2265 44.2399 68.1535 44.4546 68.0757C44.6642 67.9993 44.8696 67.9116 45.07 67.813L45.4635 67.616L45.8642 67.3752C45.9811 67.3011 46.0655 67.184 46.1001 67.0482C46.1348 66.9124 46.1169 66.7682 46.0503 66.6455C46.0324 66.6053 46.0082 66.5683 45.9787 66.536L44.5476 64.6462C44.2525 65.1608 43.8362 65.5924 43.3365 65.902C42.8368 66.2116 42.2694 66.3894 41.6855 66.4193C40.0111 66.4193 38.5728 64.8651 37.9646 62.6687L36.6266 63.3108C35.081 64.0916 35.0881 62.4498 35.7393 62.1434L37.6927 61.1948C37.6641 60.898 37.6498 60.5989 37.6498 60.2973C37.6498 60.1805 37.6498 60.0711 37.6498 59.9543L35.5819 59.2246C34.8091 58.9401 34.988 57.4515 36.3618 57.9696L38.0147 58.5752H39.7893L39.4458 58.1447H39.453Z" fill="#004155"/>
<path d="M52.562 0.85367C45.4682 -0.566958 38.1332 -0.210242 31.2107 1.89202C24.2882 3.99428 17.9935 7.77675 12.8876 12.9023C8.80022 16.988 5.55332 21.8353 3.33057 27.1701C2.23551 29.8297 1.40117 32.5893 0.839286 35.4101C-0.279762 41.0826 -0.279762 46.9192 0.839286 52.5917C1.95544 58.2523 4.18437 63.6349 7.39679 68.4274C8.96962 70.7888 10.7677 72.9922 12.7659 75.0065L12.8805 75.1139C16.9724 79.2172 21.8393 82.4659 27.1982 84.6711C35.236 87.9795 44.0704 88.846 52.5978 87.1625C55.4185 86.6006 58.1781 85.7662 60.8376 84.6711C71.6241 80.1965 80.1949 71.6255 84.6694 60.8389C85.7645 58.1793 86.5988 55.4197 87.1607 52.5989C88.2798 46.9263 88.2798 41.0898 87.1607 35.4173C86.0433 29.7549 83.8145 24.3701 80.6032 19.5744C75.7539 12.3189 68.8563 6.66954 60.7875 3.345C58.1316 2.2467 55.3741 1.41225 52.5548 0.85367H52.562ZM61.3888 73.9971L32.7534 11.3702C32.66 11.2058 32.5879 11.0302 32.5387 10.8476C32.3808 10.2657 32.4602 9.6449 32.7595 9.12147C33.0588 8.59803 33.5535 8.21471 34.1351 8.05561C34.7651 7.8838 35.4237 7.7263 36.1038 7.57596C36.7839 7.42562 37.3637 7.3254 38.0725 7.20369C39.0747 7.0462 40.0555 6.92449 41.0004 6.8529C41.9454 6.78131 42.9906 6.7312 43.9857 6.7312C46.4277 6.73252 48.8637 6.97229 51.2591 7.4471C56.0453 8.38992 60.5961 10.276 64.6461 12.9953C70.7842 17.0921 75.5699 22.9168 78.3983 29.733C79.3309 31.9818 80.0383 34.3175 80.5101 36.7059C81.4551 41.5089 81.4551 46.45 80.5101 51.253C79.0705 58.4796 75.5233 65.1182 70.3159 70.3317C69.8291 70.8185 69.2707 71.3411 68.6264 71.9138C67.9821 72.4865 67.481 72.9018 66.894 73.3456C66.5432 73.6248 66.1781 73.8969 65.813 74.1617C65.4479 74.4266 65.1687 74.6199 64.8036 74.8776C64.6761 74.9723 64.5394 75.0538 64.3956 75.121C63.8487 75.3713 63.2249 75.3942 62.6611 75.1848C62.0973 74.9754 61.6398 74.5508 61.3888 74.0042V73.9971ZM26.5682 13.9833L55.2036 76.6173C55.297 76.7817 55.3692 76.9573 55.4184 77.1399C55.5763 77.7218 55.4968 78.3426 55.1975 78.866C54.8982 79.3895 54.4035 79.7728 53.8219 79.9319C53.2063 80.0965 52.5405 80.2612 51.8318 80.4115C51.2662 80.5332 50.6362 80.6478 49.949 80.7623H49.8774C48.8752 80.927 47.8944 81.0415 46.9494 81.1203C46.0045 81.199 44.9521 81.2348 43.9642 81.2348C41.5222 81.2335 39.0862 80.9937 36.6908 80.5189C31.9006 79.567 27.3446 77.6818 23.2823 74.9707C19.2133 72.2499 15.7201 68.7542 13.0022 64.6832C11.6449 62.6542 10.4915 60.496 9.55877 58.2401C8.62615 55.9913 7.91874 53.6556 7.4469 51.2673C6.50195 46.4643 6.50195 41.5232 7.4469 36.7202C8.39881 31.9299 10.284 27.3738 12.995 23.3114C14.3552 21.2767 15.9113 19.3801 17.6411 17.6487C18.1279 17.1619 18.6863 16.6321 19.3234 16.0665C19.9606 15.501 20.476 15.0786 21.063 14.6347C21.4138 14.3627 21.7789 14.0906 22.144 13.8258C22.5091 13.5609 22.7883 13.3676 23.1534 13.1099C23.2791 13.0145 23.4162 12.9352 23.5615 12.8736C24.1083 12.6234 24.7322 12.6004 25.2959 12.8098C25.8597 13.0192 26.3173 13.4438 26.5682 13.9904V13.9833Z" fill="#EF4050"/>
</svg>
