<svg width="82" height="84" viewBox="0 0 82 84" fill="none" xmlns="http://www.w3.org/2000/svg">
<g clip-path="url(#clip0_119_663)">
<path d="M76.6732 83.0333H20.1398C17.3132 83.0333 14.8398 80.5599 14.8398 77.7333V42.0466C14.8398 39.5733 15.8998 37.0999 18.0198 35.3333L36.0398 20.1399V10.5999C36.0398 5.65327 39.9265 1.7666 44.8732 1.7666H73.1398C78.0865 1.7666 81.9732 5.65327 81.9732 10.5999V77.7333C81.9732 80.5599 79.4998 83.0333 76.6732 83.0333ZM44.8732 5.29993C42.0465 5.29993 39.5732 7.77327 39.5732 10.5999V21.1999C39.5732 21.5533 39.2198 22.2599 38.8665 22.6133L20.1398 38.1599C19.0798 39.2199 18.3732 40.6333 18.3732 42.3999V77.7333C18.3732 78.7933 19.0798 79.4999 20.1398 79.4999H76.6732C77.7332 79.4999 78.4398 78.7933 78.4398 77.7333V44.1666V10.5999C78.4398 7.77327 75.9665 5.29993 73.1398 5.29993H44.8732Z" fill="#004155"/>
<path d="M69.6066 22.9666H48.4066C45.5799 22.9666 43.1066 20.4933 43.1066 17.6666V14.1333C43.1066 11.3066 45.5799 8.83325 48.4066 8.83325H69.6066C72.4333 8.83325 74.9066 11.3066 74.9066 14.1333V17.6666C74.9066 20.4933 72.4333 22.9666 69.6066 22.9666ZM48.4066 12.3666C47.3466 12.3666 46.6399 13.0733 46.6399 14.1333V17.6666C46.6399 18.7266 47.3466 19.4333 48.4066 19.4333H69.6066C70.6666 19.4333 71.3733 18.7266 71.3733 17.6666V14.1333C71.3733 13.0733 70.6666 12.3666 69.6066 12.3666H48.4066ZM66.0733 68.8999C65.7199 68.8999 65.0133 68.8999 64.6599 68.5466L36.3933 40.2799C35.6866 39.5733 35.6866 38.5133 36.3933 37.8066C37.0999 37.0999 38.1599 37.0999 38.8666 37.8066L67.1333 66.0733C67.8399 66.7799 67.8399 67.8399 67.1333 68.5466C66.7799 68.5466 66.4266 68.8999 66.0733 68.8999Z" fill="#004155"/>
<path d="M37.8066 68.9001C37.4533 68.9001 36.7466 68.9001 36.3933 68.5468C35.6866 67.8401 35.6866 66.7801 36.3933 66.0735L64.66 37.8068C65.3666 37.1001 66.4266 37.1001 67.1333 37.8068C67.84 38.5135 67.84 39.5735 67.1333 40.2801L38.8666 68.5468C38.5133 68.5468 38.16 68.9001 37.8066 68.9001ZM21.5533 34.6268L18.02 29.3268C17.3133 28.6201 17.6666 27.5601 18.3733 26.8535L30.74 16.2535C31.4466 15.9001 32.1533 15.5468 32.86 16.2535L38.16 19.7868L36.04 22.6135L31.8 19.7868L21.9066 28.6201L24.7333 32.5068L21.5533 34.6268Z" fill="#004155"/>
<path d="M22.9667 27.2067C22.6133 27.2067 21.9067 26.8533 21.5533 26.5C20.8467 25.44 20.14 24.7333 19.4333 24.0267C14.4867 17.3133 10.6 12.0133 1.41333 10.6C0.353333 10.2467 0 9.54 0 8.48C0 8.48 0.353333 5.65333 1.06 1.41333C1.41333 0.706667 2.12 0 3.18 0C14.84 0.353333 22.6133 10.2467 28.62 18.3733L29.68 19.7867C30.3867 20.4933 30.0333 21.5533 29.3267 22.26C28.2667 22.6133 27.2067 22.6133 26.8533 21.9067L25.7933 20.4933C20.4933 13.4267 13.78 4.94667 4.59333 3.53333C4.24 4.94667 4.24 6.36 3.88667 7.06667C13.0733 9.54 17.6667 15.5467 22.26 21.9067C22.9667 22.6133 23.6733 23.6733 24.0267 24.38C24.7333 25.0867 24.7333 26.1467 24.0267 26.8533C23.6733 26.8533 23.32 27.2067 22.9667 27.2067Z" fill="#004155"/>
</g>
<defs>
<clipPath id="clip0_119_663">
<rect width="81.9733" height="83.0333" fill="white"/>
</clipPath>
</defs>
</svg>
