<svg width="864" height="1118" viewBox="0 0 864 1118" fill="none" xmlns="http://www.w3.org/2000/svg">
<rect x="864" y="1117" width="864" height="1117" transform="rotate(-180 864 1117)" fill="#FBFBD5"/>
<rect y="559" width="432" height="558" fill="#F4F285"/>
<rect x="432" width="432" height="1117" fill="#EDE937"/>
<path d="M488.04 58.6475L483 58.6475L483 39.9725L488.04 39.9725L488.04 46.2725L504.578 46.2725C504.998 46.2725 505.418 46.28 505.838 46.295C506.273 46.31 506.708 46.3325 507.143 46.3625L504.038 42.6275C503.783 42.2975 503.625 41.9675 503.565 41.6375C503.52 41.3225 503.52 41.0225 503.565 40.7375C503.625 40.4525 503.723 40.1975 503.858 39.9725C504.008 39.7475 504.158 39.5825 504.308 39.4775L507.233 37.2725L515.805 47.4875L515.805 53.2475L488.04 53.2475L488.04 58.6475ZM487.905 74.1535C487.905 74.9335 488.025 75.6085 488.265 76.1785C488.505 76.7485 488.827 77.2135 489.232 77.5735C489.652 77.9485 490.14 78.2185 490.695 78.3835C491.265 78.5635 491.872 78.6535 492.517 78.6535C493.222 78.6535 493.867 78.5785 494.452 78.4285C495.037 78.2785 495.532 78.031 495.937 77.686C496.357 77.341 496.68 76.876 496.905 76.291C497.145 75.721 497.265 75.0085 497.265 74.1535C497.265 73.2985 497.145 72.5785 496.905 71.9935C496.68 71.4235 496.357 70.966 495.937 70.621C495.532 70.276 495.037 70.0285 494.452 69.8785C493.867 69.7285 493.222 69.6535 492.517 69.6535C491.872 69.6535 491.265 69.736 490.695 69.901C490.14 70.081 489.652 70.351 489.232 70.711C488.827 71.086 488.505 71.551 488.265 72.106C488.025 72.676 487.905 73.3585 487.905 74.1535ZM511.058 74.1535C511.058 73.4485 510.945 72.856 510.72 72.376C510.495 71.896 510.195 71.4985 509.82 71.1835C509.46 70.8835 509.04 70.666 508.56 70.531C508.08 70.396 507.585 70.3285 507.075 70.3285C506.505 70.3285 505.95 70.381 505.41 70.486C504.87 70.591 504.39 70.786 503.97 71.071C503.55 71.356 503.212 71.746 502.957 72.241C502.702 72.736 502.575 73.3735 502.575 74.1535C502.575 74.9335 502.702 75.571 502.957 76.066C503.212 76.561 503.55 76.951 503.97 77.236C504.39 77.521 504.87 77.716 505.41 77.821C505.95 77.926 506.505 77.9785 507.075 77.9785C507.585 77.9785 508.08 77.911 508.56 77.776C509.04 77.641 509.46 77.416 509.82 77.101C510.195 76.801 510.495 76.4035 510.72 75.9085C510.945 75.4285 511.058 74.8435 511.058 74.1535ZM500.1 80.341C499.755 81.316 499.327 82.1485 498.817 82.8385C498.307 83.5435 497.722 84.1135 497.062 84.5485C496.402 84.9985 495.675 85.3285 494.88 85.5385C494.1 85.7485 493.267 85.8535 492.382 85.8535C490.912 85.8535 489.577 85.5685 488.377 84.9985C487.177 84.4435 486.15 83.6485 485.295 82.6135C484.455 81.5935 483.802 80.3635 483.337 78.9235C482.872 77.4835 482.64 75.8935 482.64 74.1535C482.64 72.4135 482.872 70.8235 483.337 69.3835C483.802 67.9435 484.455 66.706 485.295 65.671C486.15 64.651 487.177 63.856 488.377 63.286C489.577 62.731 490.912 62.4535 492.382 62.4535C493.267 62.4535 494.1 62.5585 494.88 62.7685C495.675 62.9785 496.402 63.301 497.062 63.736C497.722 64.186 498.307 64.756 498.817 65.446C499.327 66.151 499.755 66.991 500.1 67.966C500.775 66.481 501.705 65.371 502.89 64.636C504.09 63.901 505.53 63.5335 507.21 63.5335C508.485 63.5335 509.662 63.796 510.742 64.321C511.838 64.846 512.783 65.581 513.578 66.526C514.373 67.471 514.995 68.5885 515.445 69.8785C515.91 71.1835 516.142 72.6085 516.142 74.1535C516.142 75.6985 515.91 77.116 515.445 78.406C514.995 79.711 514.372 80.836 513.577 81.781C512.783 82.726 511.837 83.461 510.742 83.986C509.662 84.511 508.485 84.7735 507.21 84.7735C505.53 84.7735 504.09 84.406 502.89 83.671C501.705 82.936 500.775 81.826 500.1 80.341ZM499.402 112.407C496.537 112.407 494.055 112.1 491.955 111.485C489.855 110.87 488.115 110.015 486.735 108.92C485.355 107.84 484.327 106.55 483.652 105.05C482.977 103.565 482.64 101.952 482.64 100.212C482.64 98.472 482.977 96.8595 483.652 95.3745C484.327 93.9045 485.355 92.6295 486.735 91.5495C488.115 90.4695 489.855 89.622 491.955 89.007C494.055 88.407 496.537 88.107 499.402 88.107C502.267 88.107 504.75 88.407 506.85 89.007C508.95 89.622 510.69 90.4695 512.07 91.5495C513.45 92.6295 514.47 93.9045 515.13 95.3745C515.805 96.8595 516.142 98.472 516.142 100.212C516.142 101.952 515.805 103.565 515.13 105.05C514.47 106.55 513.45 107.84 512.07 108.92C510.69 110.015 508.95 110.87 506.85 111.485C504.75 112.1 502.267 112.407 499.402 112.407ZM499.402 105.207C501.667 105.207 503.52 105.065 504.96 104.78C506.415 104.495 507.555 104.112 508.38 103.632C509.205 103.167 509.767 102.635 510.067 102.035C510.382 101.435 510.54 100.827 510.54 100.212C510.54 99.597 510.382 98.9895 510.067 98.3895C509.767 97.8045 509.205 97.2795 508.38 96.8145C507.555 96.3645 506.415 95.997 504.96 95.712C503.52 95.442 501.667 95.307 499.402 95.307C497.122 95.307 495.262 95.442 493.822 95.712C492.382 95.997 491.242 96.3645 490.402 96.8145C489.577 97.2795 489.007 97.8045 488.692 98.3895C488.392 98.9895 488.242 99.597 488.242 100.212C488.242 100.827 488.392 101.435 488.692 102.035C489.007 102.635 489.577 103.167 490.402 103.632C491.242 104.112 492.382 104.495 493.822 104.78C495.262 105.065 497.122 105.207 499.402 105.207ZM486.532 114.728C487.072 114.728 487.575 114.826 488.04 115.021C488.505 115.231 488.91 115.508 489.255 115.853C489.6 116.213 489.87 116.633 490.065 117.113C490.275 117.593 490.38 118.118 490.38 118.688C490.38 119.243 490.275 119.761 490.065 120.241C489.87 120.721 489.6 121.141 489.255 121.501C488.91 121.861 488.505 122.138 488.04 122.333C487.575 122.543 487.072 122.648 486.532 122.648C485.992 122.648 485.482 122.543 485.002 122.333C484.537 122.138 484.132 121.861 483.787 121.501C483.442 121.141 483.172 120.721 482.977 120.241C482.782 119.761 482.685 119.243 482.685 118.688C482.685 118.118 482.782 117.593 482.977 117.113C483.172 116.633 483.442 116.213 483.787 115.853C484.132 115.508 484.537 115.231 485.002 115.021C485.482 114.826 485.992 114.728 486.532 114.728ZM499.402 149.277C496.537 149.277 494.055 148.97 491.955 148.355C489.855 147.74 488.115 146.885 486.735 145.79C485.355 144.71 484.327 143.42 483.652 141.92C482.977 140.435 482.64 138.822 482.64 137.082C482.64 135.342 482.977 133.73 483.652 132.245C484.327 130.775 485.355 129.5 486.735 128.42C488.115 127.34 489.855 126.492 491.955 125.877C494.055 125.277 496.537 124.977 499.402 124.977C502.267 124.977 504.75 125.277 506.85 125.877C508.95 126.492 510.69 127.34 512.07 128.42C513.45 129.5 514.47 130.775 515.13 132.245C515.805 133.73 516.142 135.342 516.142 137.082C516.142 138.822 515.805 140.435 515.13 141.92C514.47 143.42 513.45 144.71 512.07 145.79C510.69 146.885 508.95 147.74 506.85 148.355C504.75 148.97 502.267 149.277 499.402 149.277ZM499.402 142.077C501.667 142.077 503.52 141.935 504.96 141.65C506.415 141.365 507.555 140.982 508.38 140.502C509.205 140.037 509.767 139.505 510.067 138.905C510.382 138.305 510.54 137.697 510.54 137.082C510.54 136.467 510.382 135.86 510.067 135.26C509.767 134.675 509.205 134.15 508.38 133.685C507.555 133.235 506.415 132.867 504.96 132.582C503.52 132.312 501.667 132.177 499.402 132.177C497.122 132.177 495.262 132.312 493.822 132.582C492.382 132.867 491.242 133.235 490.402 133.685C489.577 134.15 489.007 134.675 488.692 135.26C488.392 135.86 488.242 136.467 488.242 137.082C488.242 137.697 488.392 138.305 488.692 138.905C489.007 139.505 489.577 140.037 490.402 140.502C491.242 140.982 492.382 141.365 493.822 141.65C495.262 141.935 497.122 142.077 499.402 142.077ZM499.402 175.381C496.537 175.381 494.055 175.073 491.955 174.458C489.855 173.843 488.115 172.988 486.735 171.893C485.355 170.813 484.327 169.523 483.652 168.023C482.977 166.538 482.64 164.926 482.64 163.186C482.64 161.446 482.977 159.833 483.652 158.348C484.327 156.878 485.355 155.603 486.735 154.523C488.115 153.443 489.855 152.596 491.955 151.981C494.055 151.381 496.537 151.081 499.402 151.081C502.267 151.081 504.75 151.381 506.85 151.981C508.95 152.596 510.69 153.443 512.07 154.523C513.45 155.603 514.47 156.878 515.13 158.348C515.805 159.833 516.142 161.446 516.142 163.186C516.142 164.926 515.805 166.538 515.13 168.023C514.47 169.523 513.45 170.813 512.07 171.893C510.69 172.988 508.95 173.843 506.85 174.458C504.75 175.073 502.267 175.381 499.402 175.381ZM499.402 168.181C501.667 168.181 503.52 168.038 504.96 167.753C506.415 167.468 507.555 167.086 508.38 166.606C509.205 166.141 509.767 165.608 510.067 165.008C510.382 164.408 510.54 163.801 510.54 163.186C510.54 162.571 510.382 161.963 510.067 161.363C509.767 160.778 509.205 160.253 508.38 159.788C507.555 159.338 506.415 158.971 504.96 158.686C503.52 158.416 501.667 158.281 499.402 158.281C497.122 158.281 495.262 158.416 493.822 158.686C492.382 158.971 491.242 159.338 490.402 159.788C489.577 160.253 489.007 160.778 488.692 161.363C488.392 161.963 488.242 162.571 488.242 163.186C488.242 163.801 488.392 164.408 488.692 165.008C489.007 165.608 489.577 166.141 490.402 166.606C491.242 167.086 492.382 167.468 493.822 167.753C495.262 168.038 497.122 168.181 499.402 168.181ZM499.402 201.484C496.537 201.484 494.055 201.177 491.955 200.562C489.855 199.947 488.115 199.092 486.735 197.997C485.355 196.917 484.327 195.627 483.652 194.127C482.977 192.642 482.64 191.029 482.64 189.289C482.64 187.549 482.977 185.937 483.652 184.452C484.327 182.982 485.355 181.707 486.735 180.627C488.115 179.547 489.855 178.699 491.955 178.084C494.055 177.484 496.537 177.184 499.402 177.184C502.267 177.184 504.75 177.484 506.85 178.084C508.95 178.699 510.69 179.547 512.07 180.627C513.45 181.707 514.47 182.982 515.13 184.452C515.805 185.937 516.142 187.549 516.142 189.289C516.142 191.029 515.805 192.642 515.13 194.127C514.47 195.627 513.45 196.917 512.07 197.997C510.69 199.092 508.95 199.947 506.85 200.562C504.75 201.177 502.267 201.484 499.402 201.484ZM499.402 194.284C501.667 194.284 503.52 194.142 504.96 193.857C506.415 193.572 507.555 193.189 508.38 192.709C509.205 192.244 509.767 191.712 510.067 191.112C510.382 190.512 510.54 189.904 510.54 189.289C510.54 188.674 510.382 188.067 510.067 187.467C509.767 186.882 509.205 186.357 508.38 185.892C507.555 185.442 506.415 185.074 504.96 184.789C503.52 184.519 501.667 184.384 499.402 184.384C497.122 184.384 495.262 184.519 493.822 184.789C492.382 185.074 491.242 185.442 490.402 185.892C489.577 186.357 489.007 186.882 488.692 187.467C488.392 188.067 488.242 188.674 488.242 189.289C488.242 189.904 488.392 190.512 488.692 191.112C489.007 191.712 489.577 192.244 490.402 192.709C491.242 193.189 492.382 193.572 493.822 193.857C495.262 194.142 497.122 194.284 499.402 194.284ZM508.26 221.15L498.64 221.15L498.64 232.67L495.18 232.67L495.18 221.15L483 221.15L483 216.87L511.72 216.87L511.72 234.67L508.26 234.67L508.26 221.15ZM486.52 242.249C485.933 243.156 485.64 244.269 485.64 245.589C485.64 246.549 485.807 247.396 486.14 248.129C486.487 248.876 486.98 249.503 487.62 250.009C488.273 250.516 489.067 250.896 490 251.149C490.933 251.416 491.987 251.549 493.16 251.549C495.067 251.549 496.627 251.236 497.84 250.609L486.52 242.249ZM499.7 249.029C500.367 248.123 500.7 246.976 500.7 245.589C500.7 244.616 500.527 243.756 500.18 243.009C499.833 242.263 499.333 241.629 498.68 241.109C498.04 240.603 497.253 240.216 496.32 239.949C495.387 239.696 494.333 239.569 493.16 239.569C491.16 239.569 489.54 239.916 488.3 240.609L499.7 249.029ZM500.74 252.769C499.833 253.609 498.74 254.249 497.46 254.689C496.193 255.129 494.767 255.349 493.18 255.349C491.58 255.349 490.133 255.123 488.84 254.669C487.547 254.216 486.447 253.563 485.54 252.709C484.633 251.869 483.933 250.843 483.44 249.629C482.96 248.429 482.72 247.083 482.72 245.589C482.72 243.603 483.147 241.869 484 240.389L482.66 239.409C482.207 239.116 481.9 238.749 481.74 238.309C481.567 237.869 481.48 237.436 481.48 237.009L481.48 235.569L485.46 238.509C486.38 237.629 487.487 236.949 488.78 236.469C490.073 236.003 491.54 235.769 493.18 235.769C494.78 235.769 496.22 235.996 497.5 236.449C498.793 236.916 499.893 237.576 500.8 238.429C501.72 239.283 502.42 240.309 502.9 241.509C503.393 242.723 503.64 244.083 503.64 245.589C503.64 247.643 503.18 249.423 502.26 250.929L504 252.209C504.413 252.463 504.693 252.709 504.84 252.949C505 253.203 505.08 253.563 505.08 254.029L505.08 255.969L500.74 252.769ZM512.52 263.664L483 263.664L483 259.744L512.52 259.744L512.52 263.664ZM493.14 276.374C493.14 277.067 493.233 277.674 493.42 278.194C493.607 278.727 493.867 279.167 494.2 279.514C494.547 279.874 494.96 280.141 495.44 280.314C495.92 280.501 496.447 280.594 497.02 280.594C498.193 280.594 499.127 280.234 499.82 279.514C500.527 278.807 500.88 277.761 500.88 276.374C500.88 275.001 500.527 273.954 499.82 273.234C499.127 272.527 498.193 272.174 497.02 272.174C496.447 272.174 495.92 272.261 495.44 272.434C494.973 272.621 494.567 272.887 494.22 273.234C493.887 273.594 493.62 274.034 493.42 274.554C493.233 275.087 493.14 275.694 493.14 276.374ZM481.94 282.594C482.42 282.594 482.8 282.461 483.08 282.194C483.373 281.927 483.6 281.561 483.76 281.094C483.933 280.641 484.053 280.107 484.12 279.494C484.2 278.881 484.26 278.234 484.3 277.554C484.34 276.887 484.373 276.201 484.4 275.494C484.44 274.787 484.507 274.107 484.6 273.454C484.253 272.761 483.833 272.187 483.34 271.734C482.847 271.294 482.267 271.074 481.6 271.074C481.173 271.074 480.773 271.181 480.4 271.394C480.027 271.621 479.707 271.961 479.44 272.414C479.16 272.881 478.947 273.461 478.8 274.154C478.64 274.861 478.56 275.701 478.56 276.674C478.56 277.634 478.647 278.481 478.82 279.214C478.98 279.947 479.213 280.561 479.52 281.054C479.813 281.561 480.167 281.941 480.58 282.194C480.993 282.461 481.447 282.594 481.94 282.594ZM502.56 286.554L501.1 286.554C500.62 286.554 500.32 286.254 500.2 285.654L499.88 283.474C499.467 283.661 499.027 283.807 498.56 283.914C498.107 284.021 497.627 284.074 497.12 284.074C496.12 284.074 495.213 283.881 494.4 283.494C493.6 283.107 492.913 282.574 492.34 281.894C491.767 281.214 491.327 280.401 491.02 279.454C490.713 278.521 490.56 277.494 490.56 276.374C490.56 275.454 490.66 274.594 490.86 273.794C490.62 273.394 490.353 273.087 490.06 272.874C489.78 272.674 489.5 272.574 489.22 272.574C488.753 272.574 488.407 272.767 488.18 273.154C487.953 273.554 487.787 274.067 487.68 274.694C487.587 275.334 487.527 276.061 487.5 276.874C487.473 277.701 487.427 278.534 487.36 279.374C487.307 280.227 487.2 281.061 487.04 281.874C486.893 282.701 486.647 283.427 486.3 284.054C485.967 284.694 485.5 285.207 484.9 285.594C484.313 285.994 483.547 286.194 482.6 286.194C481.72 286.194 480.867 285.974 480.04 285.534C479.213 285.107 478.48 284.481 477.84 283.654C477.2 282.827 476.687 281.821 476.3 280.634C475.913 279.447 475.72 278.101 475.72 276.594C475.72 275.087 475.867 273.774 476.16 272.654C476.453 271.547 476.847 270.621 477.34 269.874C477.833 269.141 478.407 268.587 479.06 268.214C479.713 267.854 480.393 267.674 481.1 267.674C482.087 267.674 482.92 267.981 483.6 268.594C484.293 269.207 484.833 270.054 485.22 271.134C485.487 270.547 485.847 270.081 486.3 269.734C486.767 269.387 487.38 269.214 488.14 269.214C488.433 269.214 488.733 269.267 489.04 269.374C489.36 269.481 489.673 269.641 489.98 269.854C490.3 270.081 490.6 270.354 490.88 270.674C491.16 271.007 491.413 271.387 491.64 271.814C492.2 270.814 492.94 270.027 493.86 269.454C494.793 268.881 495.88 268.594 497.12 268.594C498.12 268.594 499.02 268.787 499.82 269.174C500.62 269.561 501.307 270.094 501.88 270.774C502.453 271.467 502.893 272.287 503.2 273.234C503.507 274.194 503.66 275.241 503.66 276.374C503.66 278.134 503.293 279.647 502.56 280.914L502.56 286.554ZM495.42 303.28C496.193 303.28 496.907 303.167 497.56 302.94C498.213 302.727 498.78 302.407 499.26 301.98C499.74 301.553 500.113 301.033 500.38 300.42C500.647 299.807 500.78 299.1 500.78 298.3C500.78 296.66 500.307 295.367 499.36 294.42C498.413 293.487 497.1 292.893 495.42 292.64L495.42 303.28ZM485.9 306.5C485.34 306.02 484.853 305.467 484.44 304.84C484.04 304.213 483.713 303.547 483.46 302.84C483.207 302.133 483.02 301.4 482.9 300.64C482.78 299.893 482.72 299.153 482.72 298.42C482.72 297.02 482.953 295.72 483.42 294.52C483.9 293.333 484.593 292.3 485.5 291.42C486.42 290.553 487.553 289.873 488.9 289.38C490.26 288.9 491.82 288.66 493.58 288.66C494.993 288.66 496.307 288.88 497.52 289.32C498.747 289.76 499.813 290.387 500.72 291.2C501.627 292.027 502.34 293.033 502.86 294.22C503.38 295.407 503.64 296.74 503.64 298.22C503.64 299.46 503.433 300.6 503.02 301.64C502.62 302.693 502.033 303.6 501.26 304.36C500.487 305.12 499.533 305.713 498.4 306.14C497.267 306.58 495.973 306.8 494.52 306.8C493.92 306.8 493.513 306.733 493.3 306.6C493.1 306.467 493 306.22 493 305.86L493 292.54C491.787 292.58 490.727 292.753 489.82 293.06C488.927 293.367 488.18 293.787 487.58 294.32C486.98 294.867 486.533 295.513 486.24 296.26C485.947 297.007 485.8 297.84 485.8 298.76C485.8 299.627 485.9 300.373 486.1 301C486.3 301.64 486.513 302.187 486.74 302.64C486.98 303.107 487.2 303.493 487.4 303.8C487.6 304.12 487.7 304.4 487.7 304.64C487.7 304.96 487.58 305.207 487.34 305.38L485.9 306.5ZM499.42 314.672C500.753 315.325 501.8 316.112 502.56 317.032C503.32 317.952 503.7 319.059 503.7 320.352C503.7 320.792 503.647 321.205 503.54 321.592C503.447 321.992 503.3 322.339 503.1 322.632L500.16 322.372C499.8 322.279 499.62 322.059 499.62 321.712C499.62 321.525 499.653 321.245 499.72 320.872C499.8 320.499 499.84 320.099 499.84 319.672C499.84 319.045 499.747 318.492 499.56 318.012C499.387 317.532 499.12 317.099 498.76 316.712C498.413 316.339 497.98 316.005 497.46 315.712C496.953 315.419 496.373 315.145 495.72 314.892L483 314.892L483 310.992L503.32 310.992L503.32 313.232C503.32 313.659 503.24 313.945 503.08 314.092C502.933 314.252 502.667 314.365 502.28 314.432L499.42 314.672ZM495.42 338.358C496.193 338.358 496.907 338.245 497.56 338.018C498.213 337.805 498.78 337.485 499.26 337.058C499.74 336.632 500.113 336.112 500.38 335.498C500.647 334.885 500.78 334.178 500.78 333.378C500.78 331.738 500.307 330.445 499.36 329.498C498.413 328.565 497.1 327.972 495.42 327.718L495.42 338.358ZM485.9 341.578C485.34 341.098 484.853 340.545 484.44 339.918C484.04 339.292 483.713 338.625 483.46 337.918C483.207 337.212 483.02 336.478 482.9 335.718C482.78 334.972 482.72 334.232 482.72 333.498C482.72 332.098 482.953 330.798 483.42 329.598C483.9 328.412 484.593 327.378 485.5 326.498C486.42 325.632 487.553 324.952 488.9 324.458C490.26 323.978 491.82 323.738 493.58 323.738C494.993 323.738 496.307 323.958 497.52 324.398C498.747 324.838 499.813 325.465 500.72 326.278C501.627 327.105 502.34 328.112 502.86 329.298C503.38 330.485 503.64 331.818 503.64 333.298C503.64 334.538 503.433 335.678 503.02 336.718C502.62 337.772 502.033 338.678 501.26 339.438C500.487 340.198 499.533 340.792 498.4 341.218C497.267 341.658 495.973 341.878 494.52 341.878C493.92 341.878 493.513 341.812 493.3 341.678C493.1 341.545 493 341.298 493 340.938L493 327.618C491.787 327.658 490.727 327.832 489.82 328.138C488.927 328.445 488.18 328.865 487.58 329.398C486.98 329.945 486.533 330.592 486.24 331.338C485.947 332.085 485.8 332.918 485.8 333.838C485.8 334.705 485.9 335.452 486.1 336.078C486.3 336.718 486.513 337.265 486.74 337.718C486.98 338.185 487.2 338.572 487.4 338.878C487.6 339.198 487.7 339.478 487.7 339.718C487.7 340.038 487.58 340.285 487.34 340.458L485.9 341.578ZM488 360.087C487.16 360.727 486.573 361.414 486.24 362.147C485.907 362.894 485.74 363.727 485.74 364.647C485.74 366.434 486.38 367.814 487.66 368.787C488.953 369.774 490.833 370.267 493.3 370.267C494.593 370.267 495.693 370.154 496.6 369.927C497.52 369.714 498.267 369.394 498.84 368.967C499.427 368.554 499.853 368.041 500.12 367.427C500.4 366.814 500.54 366.121 500.54 365.347C500.54 364.214 500.287 363.227 499.78 362.387C499.273 361.561 498.553 360.794 497.62 360.087L488 360.087ZM500.28 359.887C500.787 360.314 501.247 360.767 501.66 361.247C502.087 361.741 502.447 362.267 502.74 362.827C503.047 363.387 503.28 363.981 503.44 364.607C503.613 365.247 503.7 365.927 503.7 366.647C503.7 367.807 503.473 368.854 503.02 369.787C502.567 370.734 501.9 371.541 501.02 372.207C500.14 372.874 499.053 373.387 497.76 373.747C496.467 374.121 494.98 374.307 493.3 374.307C491.793 374.307 490.393 374.101 489.1 373.687C487.82 373.287 486.707 372.707 485.76 371.947C484.813 371.201 484.067 370.281 483.52 369.187C482.987 368.107 482.72 366.887 482.72 365.527C482.72 364.314 482.92 363.274 483.32 362.407C483.72 361.541 484.28 360.767 485 360.087L476.18 360.087L476.18 356.187L503.32 356.187L503.32 358.527C503.32 359.074 503.06 359.414 502.54 359.547L500.28 359.887ZM492.02 389.607C491.967 388.021 491.84 386.674 491.64 385.567C491.453 384.461 491.2 383.561 490.88 382.867C490.56 382.174 490.18 381.674 489.74 381.367C489.313 381.061 488.833 380.907 488.3 380.907C487.793 380.907 487.353 380.987 486.98 381.147C486.62 381.321 486.32 381.547 486.08 381.827C485.853 382.121 485.687 382.461 485.58 382.847C485.473 383.234 485.42 383.654 485.42 384.107C485.42 384.707 485.48 385.254 485.6 385.747C485.72 386.254 485.887 386.727 486.1 387.167C486.327 387.607 486.6 388.027 486.92 388.427C487.24 388.827 487.607 389.221 488.02 389.607L492.02 389.607ZM500.48 378.167C501.56 379.301 502.367 380.527 502.9 381.847C503.433 383.181 503.7 384.641 503.7 386.227C503.7 387.387 503.507 388.414 503.12 389.307C502.747 390.201 502.22 390.954 501.54 391.567C500.86 392.181 500.047 392.641 499.1 392.947C498.153 393.267 497.107 393.427 495.96 393.427L483 393.427L483 391.687C483 391.301 483.06 391.007 483.18 390.807C483.313 390.607 483.553 390.447 483.9 390.327L485.68 389.907C485.2 389.387 484.773 388.874 484.4 388.367C484.04 387.861 483.727 387.327 483.46 386.767C483.207 386.221 483.013 385.634 482.88 385.007C482.747 384.381 482.68 383.687 482.68 382.927C482.68 382.127 482.787 381.374 483 380.667C483.227 379.974 483.567 379.367 484.02 378.847C484.473 378.327 485.04 377.914 485.72 377.607C486.4 377.314 487.193 377.167 488.1 377.167C488.9 377.167 489.667 377.381 490.4 377.807C491.147 378.247 491.813 378.954 492.4 379.927C492.987 380.914 493.467 382.194 493.84 383.767C494.213 385.354 494.427 387.301 494.48 389.607L495.96 389.607C497.493 389.607 498.64 389.281 499.4 388.627C500.16 387.974 500.54 387.014 500.54 385.747C500.54 384.894 500.433 384.174 500.22 383.587C500.007 383.014 499.767 382.514 499.5 382.087C499.247 381.674 499.013 381.307 498.8 380.987C498.587 380.681 498.48 380.361 498.48 380.027C498.48 379.761 498.553 379.527 498.7 379.327C498.847 379.141 499.02 378.987 499.22 378.867L500.48 378.167ZM509.36 381.687C509.933 381.687 510.453 381.794 510.92 382.007C511.387 382.234 511.787 382.534 512.12 382.907C512.467 383.281 512.733 383.714 512.92 384.207C513.107 384.714 513.2 385.241 513.2 385.787C513.2 386.347 513.107 386.874 512.92 387.367C512.733 387.874 512.467 388.314 512.12 388.687C511.787 389.074 511.387 389.381 510.92 389.607C510.453 389.834 509.933 389.947 509.36 389.947C508.8 389.947 508.287 389.834 507.82 389.607C507.353 389.381 506.953 389.074 506.62 388.687C506.3 388.314 506.047 387.874 505.86 387.367C505.673 386.874 505.58 386.347 505.58 385.787C505.58 385.241 505.673 384.714 505.86 384.207C506.047 383.714 506.3 383.281 506.62 382.907C506.953 382.534 507.353 382.234 507.82 382.007C508.287 381.794 508.8 381.687 509.36 381.687ZM509.36 383.867C508.787 383.867 508.32 384.041 507.96 384.387C507.6 384.734 507.42 385.214 507.42 385.827C507.42 386.414 507.6 386.881 507.96 387.227C508.32 387.587 508.787 387.767 509.36 387.767C509.947 387.767 510.42 387.587 510.78 387.227C511.14 386.881 511.32 386.414 511.32 385.827C511.32 385.214 511.14 384.734 510.78 384.387C510.42 384.041 509.947 383.867 509.36 383.867ZM507.04 424.425C506.813 424.292 506.647 424.152 506.54 424.005C506.433 423.859 506.38 423.672 506.38 423.445C506.38 423.205 506.487 422.932 506.7 422.625C506.927 422.319 507.173 421.932 507.44 421.465C507.72 421.012 507.967 420.465 508.18 419.825C508.407 419.185 508.52 418.419 508.52 417.525C508.52 416.685 508.407 415.945 508.18 415.305C507.967 414.679 507.667 414.152 507.28 413.725C506.907 413.299 506.46 412.972 505.94 412.745C505.433 412.532 504.88 412.425 504.28 412.425C503.507 412.425 502.867 412.619 502.36 413.005C501.853 413.405 501.42 413.925 501.06 414.565C500.7 415.205 500.387 415.932 500.12 416.745C499.853 417.559 499.573 418.392 499.28 419.245C499 420.099 498.673 420.932 498.3 421.745C497.927 422.559 497.453 423.285 496.88 423.925C496.32 424.565 495.627 425.079 494.8 425.465C493.987 425.865 492.987 426.065 491.8 426.065C490.533 426.065 489.347 425.845 488.24 425.405C487.133 424.979 486.167 424.352 485.34 423.525C484.513 422.699 483.86 421.679 483.38 420.465C482.913 419.265 482.68 417.899 482.68 416.365C482.68 415.445 482.773 414.552 482.96 413.685C483.133 412.819 483.38 411.999 483.7 411.225C484.033 410.452 484.427 409.725 484.88 409.045C485.347 408.379 485.867 407.779 486.44 407.245L488.48 408.465C488.64 408.585 488.773 408.725 488.88 408.885C488.987 409.059 489.04 409.252 489.04 409.465C489.04 409.745 488.893 410.065 488.6 410.425C488.307 410.799 487.98 411.252 487.62 411.785C487.273 412.332 486.953 412.979 486.66 413.725C486.367 414.485 486.22 415.405 486.22 416.485C486.22 417.365 486.333 418.152 486.56 418.845C486.8 419.539 487.133 420.119 487.56 420.585C488 421.065 488.527 421.432 489.14 421.685C489.753 421.939 490.433 422.065 491.18 422.065C492.02 422.065 492.707 421.872 493.24 421.485C493.773 421.099 494.22 420.585 494.58 419.945C494.94 419.305 495.247 418.579 495.5 417.765C495.753 416.952 496.013 416.119 496.28 415.265C496.56 414.412 496.88 413.579 497.24 412.765C497.6 411.952 498.067 411.225 498.64 410.585C499.227 409.945 499.953 409.432 500.82 409.045C501.7 408.659 502.78 408.465 504.06 408.465C505.087 408.465 506.08 408.665 507.04 409.065C508 409.465 508.847 410.045 509.58 410.805C510.327 411.579 510.92 412.525 511.36 413.645C511.813 414.765 512.04 416.045 512.04 417.485C512.04 419.099 511.78 420.579 511.26 421.925C510.753 423.285 510.02 424.465 509.06 425.465L507.04 424.425ZM503.64 439.066C503.64 440.559 503.393 441.906 502.9 443.106C502.42 444.319 501.72 445.346 500.8 446.186C499.893 447.039 498.793 447.693 497.5 448.146C496.22 448.599 494.78 448.826 493.18 448.826C491.58 448.826 490.133 448.599 488.84 448.146C487.547 447.693 486.447 447.039 485.54 446.186C484.633 445.346 483.933 444.319 483.44 443.106C482.96 441.906 482.72 440.559 482.72 439.066C482.72 437.559 482.96 436.199 483.44 434.986C483.933 433.786 484.633 432.759 485.54 431.906C486.447 431.053 487.547 430.393 488.84 429.926C490.133 429.473 491.58 429.246 493.18 429.246C494.78 429.246 496.22 429.473 497.5 429.926C498.793 430.393 499.893 431.053 500.8 431.906C501.72 432.759 502.42 433.786 502.9 434.986C503.393 436.199 503.64 437.559 503.64 439.066ZM485.76 439.066C485.76 440.986 486.407 442.419 487.7 443.366C488.993 444.313 490.813 444.786 493.16 444.786C495.507 444.786 497.327 444.313 498.62 443.366C499.927 442.419 500.58 440.986 500.58 439.066C500.58 437.119 499.927 435.666 498.62 434.706C497.327 433.759 495.507 433.286 493.16 433.286C490.813 433.286 488.993 433.759 487.7 434.706C486.407 435.666 485.76 437.119 485.76 439.066ZM511.72 483.554L483 483.554L483 479.834L503.44 479.834C503.747 479.834 504.073 479.841 504.42 479.854C504.767 479.881 505.12 479.908 505.48 479.934L487.94 470.374C487.287 470.041 486.96 469.528 486.96 468.834L486.96 468.234C486.96 467.541 487.287 467.034 487.94 466.714L505.54 456.974C504.793 457.054 504.093 457.094 503.44 457.094L483 457.094L483 453.354L511.72 453.354L511.72 456.514C511.72 456.888 511.68 457.174 511.6 457.374C511.533 457.588 511.333 457.788 511 457.974L493.8 467.574C493.453 467.761 493.087 467.934 492.7 468.094C492.313 468.254 491.927 468.408 491.54 468.554C492.327 468.834 493.087 469.161 493.82 469.534L511 478.954C511.333 479.128 511.533 479.314 511.6 479.514C511.68 479.728 511.72 480.021 511.72 480.394L511.72 483.554ZM495.42 502.694C496.193 502.694 496.907 502.581 497.56 502.354C498.213 502.141 498.78 501.821 499.26 501.394C499.74 500.967 500.113 500.447 500.38 499.834C500.647 499.221 500.78 498.514 500.78 497.714C500.78 496.074 500.307 494.781 499.36 493.834C498.413 492.901 497.1 492.307 495.42 492.054L495.42 502.694ZM485.9 505.914C485.34 505.434 484.853 504.881 484.44 504.254C484.04 503.627 483.713 502.961 483.46 502.254C483.207 501.547 483.02 500.814 482.9 500.054C482.78 499.307 482.72 498.567 482.72 497.834C482.72 496.434 482.953 495.134 483.42 493.934C483.9 492.747 484.593 491.714 485.5 490.834C486.42 489.967 487.553 489.287 488.9 488.794C490.26 488.314 491.82 488.074 493.58 488.074C494.993 488.074 496.307 488.294 497.52 488.734C498.747 489.174 499.813 489.801 500.72 490.614C501.627 491.441 502.34 492.447 502.86 493.634C503.38 494.821 503.64 496.154 503.64 497.634C503.64 498.874 503.433 500.014 503.02 501.054C502.62 502.107 502.033 503.014 501.26 503.774C500.487 504.534 499.533 505.127 498.4 505.554C497.267 505.994 495.973 506.214 494.52 506.214C493.92 506.214 493.513 506.147 493.3 506.014C493.1 505.881 493 505.634 493 505.274L493 491.954C491.787 491.994 490.727 492.167 489.82 492.474C488.927 492.781 488.18 493.201 487.58 493.734C486.98 494.281 486.533 494.927 486.24 495.674C485.947 496.421 485.8 497.254 485.8 498.174C485.8 499.041 485.9 499.787 486.1 500.414C486.3 501.054 486.513 501.601 486.74 502.054C486.98 502.521 487.2 502.907 487.4 503.214C487.6 503.534 487.7 503.814 487.7 504.054C487.7 504.374 487.58 504.621 487.34 504.794L485.9 505.914Z" fill="#004155"/>
<path d="M232.814 289.215C255.641 268.957 230.282 254.631 207.672 242.947C176.669 226.957 177.067 202.032 203.186 197.546C222.504 194.218 212.339 210.461 218.489 223.231C221.383 229.2 245.982 225.944 244.897 222.29C243.993 219.287 233.104 219.939 229.595 215.561C227.243 212.667 229.016 206.373 227.822 201.959C221.998 180.688 184.954 185.463 175.548 204.6C164.261 227.536 181.915 240.812 200.292 251.231C219.465 262.12 228.69 270.295 232.814 289.215Z" fill="#EDE937"/>
<path d="M210.348 270.766C202.1 275.432 194.141 283.427 187.847 298.621C172.761 335.122 195.335 357.624 218.307 358.42L218.162 358.384L218.307 357.66C219.464 351.872 223.263 331.396 223.407 310.451C223.552 291.133 220.513 279.52 214.653 274.058C213.387 272.864 211.94 271.779 210.348 270.766Z" fill="#004155"/>
<path d="M249.671 276.301C251.516 278.652 244.969 295.004 234.586 300.611C234.297 324.813 227.821 350.28 225.434 358.275C241.025 357.082 257.449 345.469 260.416 319.676C262.695 299.743 258.137 285.417 249.671 276.301Z" fill="#004155"/>
<path d="M52.3925 515.08V519H37.8675V515.08H42.7675V502.217C42.7675 501.891 42.7733 501.564 42.785 501.237C42.7967 500.899 42.8142 500.561 42.8375 500.222L39.9325 502.637C39.6758 502.836 39.4192 502.958 39.1625 503.005C38.9175 503.04 38.6842 503.04 38.4625 503.005C38.2408 502.958 38.0425 502.882 37.8675 502.777C37.6925 502.661 37.5642 502.544 37.4825 502.427L35.7675 500.152L43.7125 493.485H48.1925V515.08H52.3925ZM55.8427 500.782C56.0294 499.511 56.3852 498.402 56.9102 497.457C57.4469 496.512 58.1061 495.725 58.8877 495.095C59.6811 494.465 60.5852 493.998 61.6002 493.695C62.6152 493.38 63.7061 493.222 64.8727 493.222C66.1327 493.222 67.2527 493.403 68.2327 493.765C69.2127 494.115 70.0411 494.593 70.7177 495.2C71.3944 495.807 71.9077 496.512 72.2577 497.317C72.6077 498.111 72.7827 498.951 72.7827 499.837C72.7827 500.642 72.7011 501.354 72.5377 501.972C72.3744 502.579 72.1294 503.11 71.8027 503.565C71.4877 504.008 71.0911 504.387 70.6127 504.702C70.1461 505.006 69.6094 505.262 69.0027 505.472C71.8261 506.464 73.2377 508.389 73.2377 511.247C73.2377 512.601 72.9927 513.779 72.5027 514.782C72.0127 515.786 71.3536 516.62 70.5252 517.285C69.7086 517.95 68.7577 518.452 67.6727 518.79C66.5877 519.117 65.4561 519.28 64.2777 519.28C63.0644 519.28 61.9852 519.152 61.0402 518.895C60.0952 518.627 59.2552 518.218 58.5202 517.67C57.7852 517.11 57.1377 516.398 56.5777 515.535C56.0294 514.672 55.5511 513.645 55.1427 512.455L57.5577 511.475C58.1877 511.23 58.7711 511.166 59.3077 511.282C59.8444 511.399 60.2294 511.667 60.4627 512.087C60.9877 513.056 61.5419 513.762 62.1252 514.205C62.7202 514.637 63.4144 514.852 64.2077 514.852C64.8144 514.852 65.3394 514.753 65.7827 514.555C66.2377 514.345 66.6111 514.082 66.9027 513.767C67.2061 513.441 67.4336 513.073 67.5852 512.665C67.7369 512.257 67.8127 511.842 67.8127 511.422C67.8127 510.874 67.7719 510.384 67.6902 509.952C67.6202 509.509 67.4102 509.13 67.0602 508.815C66.7102 508.5 66.1794 508.261 65.4677 508.097C64.7677 507.922 63.7877 507.835 62.5277 507.835V504.09C63.5894 504.09 64.4469 504.008 65.1002 503.845C65.7536 503.682 66.2552 503.46 66.6052 503.18C66.9669 502.888 67.2061 502.538 67.3227 502.13C67.4394 501.722 67.4977 501.272 67.4977 500.782C67.4977 499.779 67.2527 499.009 66.7627 498.472C66.2844 497.924 65.5494 497.65 64.5577 497.65C63.7527 497.65 63.0702 497.866 62.5102 498.297C61.9619 498.717 61.5827 499.242 61.3727 499.872C61.1277 500.514 60.8069 500.94 60.4102 501.15C60.0136 501.36 59.4477 501.407 58.7127 501.29L55.8427 500.782ZM82.3755 502.48C82.8538 502.387 83.3146 502.322 83.758 502.287C84.2013 502.252 84.633 502.235 85.053 502.235C86.3946 502.235 87.5788 502.439 88.6055 502.847C89.6321 503.256 90.4955 503.816 91.1955 504.527C91.8955 505.227 92.4205 506.056 92.7705 507.012C93.1321 507.957 93.313 508.972 93.313 510.057C93.313 511.422 93.068 512.671 92.578 513.802C92.0996 514.922 91.4288 515.891 90.5655 516.707C89.7021 517.524 88.6696 518.16 87.468 518.615C86.278 519.058 84.9713 519.28 83.548 519.28C82.7196 519.28 81.9263 519.193 81.168 519.018C80.4213 518.842 79.7155 518.609 79.0505 518.317C78.3971 518.014 77.7905 517.67 77.2305 517.285C76.6705 516.888 76.163 516.468 75.708 516.025L77.388 513.785C77.563 513.552 77.7671 513.377 78.0005 513.26C78.2338 513.132 78.4846 513.067 78.753 513.067C79.103 513.067 79.4296 513.167 79.733 513.365C80.048 513.552 80.3863 513.762 80.748 513.995C81.1213 514.217 81.553 514.421 82.043 514.607C82.533 514.794 83.1396 514.887 83.863 514.887C84.5863 514.887 85.2046 514.771 85.718 514.537C86.2313 514.292 86.6455 513.966 86.9605 513.557C87.2871 513.137 87.5205 512.653 87.6605 512.105C87.8121 511.545 87.888 510.95 87.888 510.32C87.888 509.083 87.538 508.144 86.838 507.502C86.138 506.849 85.1463 506.522 83.863 506.522C82.7196 506.522 81.5996 506.738 80.503 507.17L77.143 506.26L79.313 493.502H92.368V495.742C92.368 496.116 92.3096 496.454 92.193 496.757C92.0763 497.061 91.8896 497.329 91.633 497.562C91.388 497.784 91.0613 497.959 90.653 498.087C90.2446 498.204 89.7546 498.262 89.183 498.262H83.093L82.3755 502.48ZM96.0107 516.252C96.0107 515.832 96.0865 515.442 96.2382 515.08C96.4015 514.718 96.6174 514.403 96.8857 514.135C97.1657 513.867 97.4924 513.657 97.8657 513.505C98.239 513.342 98.6474 513.26 99.0907 513.26C99.5224 513.26 99.9249 513.342 100.298 513.505C100.672 513.657 100.998 513.867 101.278 514.135C101.558 514.403 101.774 514.718 101.926 515.08C102.089 515.442 102.171 515.832 102.171 516.252C102.171 516.672 102.089 517.069 101.926 517.442C101.774 517.804 101.558 518.119 101.278 518.387C100.998 518.656 100.672 518.866 100.298 519.018C99.9249 519.169 99.5224 519.245 99.0907 519.245C98.6474 519.245 98.239 519.169 97.8657 519.018C97.4924 518.866 97.1657 518.656 96.8857 518.387C96.6174 518.119 96.4015 517.804 96.2382 517.442C96.0865 517.069 96.0107 516.672 96.0107 516.252ZM122.882 506.242C122.882 508.471 122.643 510.402 122.165 512.035C121.686 513.668 121.021 515.022 120.17 516.095C119.33 517.168 118.326 517.967 117.16 518.492C116.005 519.018 114.751 519.28 113.397 519.28C112.044 519.28 110.79 519.018 109.635 518.492C108.491 517.967 107.5 517.168 106.66 516.095C105.82 515.022 105.161 513.668 104.682 512.035C104.216 510.402 103.982 508.471 103.982 506.242C103.982 504.014 104.216 502.083 104.682 500.45C105.161 498.817 105.82 497.463 106.66 496.39C107.5 495.317 108.491 494.523 109.635 494.01C110.79 493.485 112.044 493.222 113.397 493.222C114.751 493.222 116.005 493.485 117.16 494.01C118.326 494.523 119.33 495.317 120.17 496.39C121.021 497.463 121.686 498.817 122.165 500.45C122.643 502.083 122.882 504.014 122.882 506.242ZM117.282 506.242C117.282 504.481 117.171 503.04 116.95 501.92C116.728 500.788 116.431 499.902 116.057 499.26C115.696 498.618 115.281 498.181 114.815 497.947C114.348 497.702 113.876 497.58 113.397 497.58C112.919 497.58 112.446 497.702 111.98 497.947C111.525 498.181 111.116 498.618 110.755 499.26C110.405 499.902 110.119 500.788 109.897 501.92C109.687 503.04 109.582 504.481 109.582 506.242C109.582 508.016 109.687 509.462 109.897 510.582C110.119 511.702 110.405 512.589 110.755 513.242C111.116 513.884 111.525 514.327 111.98 514.572C112.446 514.806 112.919 514.922 113.397 514.922C113.876 514.922 114.348 514.806 114.815 514.572C115.281 514.327 115.696 513.884 116.057 513.242C116.431 512.589 116.728 511.702 116.95 510.582C117.171 509.462 117.282 508.016 117.282 506.242ZM143.185 506.242C143.185 508.471 142.946 510.402 142.467 512.035C141.989 513.668 141.324 515.022 140.472 516.095C139.632 517.168 138.629 517.967 137.462 518.492C136.307 519.018 135.053 519.28 133.7 519.28C132.347 519.28 131.092 519.018 129.937 518.492C128.794 517.967 127.802 517.168 126.962 516.095C126.122 515.022 125.463 513.668 124.985 512.035C124.518 510.402 124.285 508.471 124.285 506.242C124.285 504.014 124.518 502.083 124.985 500.45C125.463 498.817 126.122 497.463 126.962 496.39C127.802 495.317 128.794 494.523 129.937 494.01C131.092 493.485 132.347 493.222 133.7 493.222C135.053 493.222 136.307 493.485 137.462 494.01C138.629 494.523 139.632 495.317 140.472 496.39C141.324 497.463 141.989 498.817 142.467 500.45C142.946 502.083 143.185 504.014 143.185 506.242ZM137.585 506.242C137.585 504.481 137.474 503.04 137.252 501.92C137.031 500.788 136.733 499.902 136.36 499.26C135.998 498.618 135.584 498.181 135.117 497.947C134.651 497.702 134.178 497.58 133.7 497.58C133.222 497.58 132.749 497.702 132.282 497.947C131.827 498.181 131.419 498.618 131.057 499.26C130.707 499.902 130.422 500.788 130.2 501.92C129.99 503.04 129.885 504.481 129.885 506.242C129.885 508.016 129.99 509.462 130.2 510.582C130.422 511.702 130.707 512.589 131.057 513.242C131.419 513.884 131.827 514.327 132.282 514.572C132.749 514.806 133.222 514.922 133.7 514.922C134.178 514.922 134.651 514.806 135.117 514.572C135.584 514.327 135.998 513.884 136.36 513.242C136.733 512.589 137.031 511.702 137.252 510.582C137.474 509.462 137.585 508.016 137.585 506.242ZM163.488 506.242C163.488 508.471 163.249 510.402 162.77 512.035C162.292 513.668 161.627 515.022 160.775 516.095C159.935 517.168 158.932 517.967 157.765 518.492C156.61 519.018 155.356 519.28 154.003 519.28C152.649 519.28 151.395 519.018 150.24 518.492C149.097 517.967 148.105 517.168 147.265 516.095C146.425 515.022 145.766 513.668 145.288 512.035C144.821 510.402 144.588 508.471 144.588 506.242C144.588 504.014 144.821 502.083 145.288 500.45C145.766 498.817 146.425 497.463 147.265 496.39C148.105 495.317 149.097 494.523 150.24 494.01C151.395 493.485 152.649 493.222 154.003 493.222C155.356 493.222 156.61 493.485 157.765 494.01C158.932 494.523 159.935 495.317 160.775 496.39C161.627 497.463 162.292 498.817 162.77 500.45C163.249 502.083 163.488 504.014 163.488 506.242ZM157.888 506.242C157.888 504.481 157.777 503.04 157.555 501.92C157.334 500.788 157.036 499.902 156.663 499.26C156.301 498.618 155.887 498.181 155.42 497.947C154.954 497.702 154.481 497.58 154.003 497.58C153.524 497.58 153.052 497.702 152.585 497.947C152.13 498.181 151.722 498.618 151.36 499.26C151.01 499.902 150.724 500.788 150.503 501.92C150.293 503.04 150.188 504.481 150.188 506.242C150.188 508.016 150.293 509.462 150.503 510.582C150.724 511.702 151.01 512.589 151.36 513.242C151.722 513.884 152.13 514.327 152.585 514.572C153.052 514.806 153.524 514.922 154.003 514.922C154.481 514.922 154.954 514.806 155.42 514.572C155.887 514.327 156.301 513.884 156.663 513.242C157.036 512.589 157.334 511.702 157.555 510.582C157.777 509.462 157.888 508.016 157.888 506.242ZM174.756 519V503.76H176.511C176.921 503.76 177.176 503.955 177.276 504.345L177.486 505.8C178.046 505.13 178.666 504.585 179.346 504.165C180.036 503.735 180.841 503.52 181.761 503.52C182.771 503.52 183.591 503.8 184.221 504.36C184.851 504.91 185.311 505.66 185.601 506.61C185.821 506.07 186.106 505.605 186.456 505.215C186.806 504.825 187.196 504.505 187.626 504.255C188.056 504.005 188.511 503.82 188.991 503.7C189.481 503.58 189.976 503.52 190.476 503.52C191.286 503.52 192.006 503.65 192.636 503.91C193.276 504.16 193.816 504.53 194.256 505.02C194.696 505.51 195.031 506.115 195.261 506.835C195.491 507.555 195.606 508.375 195.606 509.295V519H192.666V509.295C192.666 508.155 192.416 507.295 191.916 506.715C191.426 506.135 190.706 505.845 189.756 505.845C189.336 505.845 188.936 505.92 188.556 506.07C188.176 506.21 187.841 506.425 187.551 506.715C187.271 507.005 187.046 507.365 186.876 507.795C186.716 508.225 186.636 508.725 186.636 509.295V519H183.696V509.295C183.696 508.115 183.461 507.245 182.991 506.685C182.521 506.125 181.831 505.845 180.921 505.845C180.291 505.845 179.706 506.01 179.166 506.34C178.626 506.67 178.131 507.12 177.681 507.69V519H174.756ZM209.636 509.685C209.636 509.105 209.551 508.57 209.381 508.08C209.221 507.59 208.981 507.165 208.661 506.805C208.341 506.445 207.951 506.165 207.491 505.965C207.031 505.765 206.501 505.665 205.901 505.665C204.671 505.665 203.701 506.02 202.991 506.73C202.291 507.44 201.846 508.425 201.656 509.685H209.636ZM212.051 516.825C211.691 517.245 211.276 517.61 210.806 517.92C210.336 518.22 209.836 518.465 209.306 518.655C208.776 518.845 208.226 518.985 207.656 519.075C207.096 519.165 206.541 519.21 205.991 519.21C204.941 519.21 203.966 519.035 203.066 518.685C202.176 518.325 201.401 517.805 200.741 517.125C200.091 516.435 199.581 515.585 199.211 514.575C198.851 513.555 198.671 512.385 198.671 511.065C198.671 510.005 198.836 509.02 199.166 508.11C199.496 507.19 199.966 506.39 200.576 505.71C201.196 505.03 201.951 504.495 202.841 504.105C203.731 503.715 204.731 503.52 205.841 503.52C206.771 503.52 207.626 503.675 208.406 503.985C209.196 504.285 209.876 504.725 210.446 505.305C211.016 505.885 211.461 506.6 211.781 507.45C212.111 508.3 212.276 509.27 212.276 510.36C212.276 510.81 212.226 511.115 212.126 511.275C212.026 511.425 211.841 511.5 211.571 511.5H201.581C201.611 512.41 201.741 513.205 201.971 513.885C202.201 514.555 202.516 515.115 202.916 515.565C203.326 516.015 203.811 516.35 204.371 516.57C204.931 516.79 205.556 516.9 206.246 516.9C206.896 516.9 207.456 516.825 207.926 516.675C208.406 516.525 208.816 516.365 209.156 516.195C209.506 516.015 209.796 515.85 210.026 515.7C210.266 515.55 210.476 515.475 210.656 515.475C210.896 515.475 211.081 515.565 211.211 515.745L212.051 516.825ZM225.245 507.45C224.765 506.82 224.245 506.38 223.685 506.13C223.135 505.88 222.515 505.755 221.825 505.755C220.485 505.755 219.445 506.24 218.705 507.21C217.975 508.17 217.61 509.575 217.61 511.425C217.61 512.395 217.69 513.225 217.85 513.915C218.02 514.595 218.26 515.155 218.57 515.595C218.89 516.025 219.28 516.345 219.74 516.555C220.2 516.755 220.72 516.855 221.3 516.855C222.15 516.855 222.885 516.665 223.505 516.285C224.125 515.905 224.705 515.37 225.245 514.68V507.45ZM228.185 496.86V519H226.415C226.005 519 225.75 518.805 225.65 518.415L225.395 516.66C224.745 517.43 224.005 518.05 223.175 518.52C222.355 518.98 221.405 519.21 220.325 519.21C219.455 519.21 218.665 519.04 217.955 518.7C217.255 518.36 216.655 517.865 216.155 517.215C215.655 516.555 215.27 515.74 215 514.77C214.73 513.8 214.595 512.685 214.595 511.425C214.595 510.295 214.745 509.245 215.045 508.275C215.345 507.305 215.78 506.465 216.35 505.755C216.92 505.045 217.61 504.49 218.42 504.09C219.23 503.68 220.145 503.475 221.165 503.475C222.085 503.475 222.865 503.625 223.505 503.925C224.155 504.225 224.735 504.65 225.245 505.2V496.86H228.185ZM235.266 496.86V519H232.326V496.86H235.266ZM249.539 509.685C249.539 509.105 249.454 508.57 249.284 508.08C249.124 507.59 248.884 507.165 248.564 506.805C248.244 506.445 247.854 506.165 247.394 505.965C246.934 505.765 246.404 505.665 245.804 505.665C244.574 505.665 243.604 506.02 242.894 506.73C242.194 507.44 241.749 508.425 241.559 509.685H249.539ZM251.954 516.825C251.594 517.245 251.179 517.61 250.709 517.92C250.239 518.22 249.739 518.465 249.209 518.655C248.679 518.845 248.129 518.985 247.559 519.075C246.999 519.165 246.444 519.21 245.894 519.21C244.844 519.21 243.869 519.035 242.969 518.685C242.079 518.325 241.304 517.805 240.644 517.125C239.994 516.435 239.484 515.585 239.114 514.575C238.754 513.555 238.574 512.385 238.574 511.065C238.574 510.005 238.739 509.02 239.069 508.11C239.399 507.19 239.869 506.39 240.479 505.71C241.099 505.03 241.854 504.495 242.744 504.105C243.634 503.715 244.634 503.52 245.744 503.52C246.674 503.52 247.529 503.675 248.309 503.985C249.099 504.285 249.779 504.725 250.349 505.305C250.919 505.885 251.364 506.6 251.684 507.45C252.014 508.3 252.179 509.27 252.179 510.36C252.179 510.81 252.129 511.115 252.029 511.275C251.929 511.425 251.744 511.5 251.474 511.5H241.484C241.514 512.41 241.644 513.205 241.874 513.885C242.104 514.555 242.419 515.115 242.819 515.565C243.229 516.015 243.714 516.35 244.274 516.57C244.834 516.79 245.459 516.9 246.149 516.9C246.799 516.9 247.359 516.825 247.829 516.675C248.309 516.525 248.719 516.365 249.059 516.195C249.409 516.015 249.699 515.85 249.929 515.7C250.169 515.55 250.379 515.475 250.559 515.475C250.799 515.475 250.984 515.565 251.114 515.745L251.954 516.825ZM255.323 519V503.76H257.078C257.488 503.76 257.743 503.955 257.843 504.345L258.053 505.8C258.613 505.13 259.233 504.585 259.913 504.165C260.603 503.735 261.408 503.52 262.328 503.52C263.338 503.52 264.158 503.8 264.788 504.36C265.418 504.91 265.878 505.66 266.168 506.61C266.388 506.07 266.673 505.605 267.023 505.215C267.373 504.825 267.763 504.505 268.193 504.255C268.623 504.005 269.078 503.82 269.558 503.7C270.048 503.58 270.543 503.52 271.043 503.52C271.853 503.52 272.573 503.65 273.203 503.91C273.843 504.16 274.383 504.53 274.823 505.02C275.263 505.51 275.598 506.115 275.828 506.835C276.058 507.555 276.173 508.375 276.173 509.295V519H273.233V509.295C273.233 508.155 272.983 507.295 272.483 506.715C271.993 506.135 271.273 505.845 270.323 505.845C269.903 505.845 269.503 505.92 269.123 506.07C268.743 506.21 268.408 506.425 268.118 506.715C267.838 507.005 267.613 507.365 267.443 507.795C267.283 508.225 267.203 508.725 267.203 509.295V519H264.263V509.295C264.263 508.115 264.028 507.245 263.558 506.685C263.088 506.125 262.398 505.845 261.488 505.845C260.858 505.845 260.273 506.01 259.733 506.34C259.193 506.67 258.698 507.12 258.248 507.69V519H255.323ZM280.108 519V503.76H281.863C282.273 503.76 282.528 503.955 282.628 504.345L282.838 505.8C283.398 505.13 284.018 504.585 284.698 504.165C285.388 503.735 286.193 503.52 287.113 503.52C288.123 503.52 288.943 503.8 289.573 504.36C290.203 504.91 290.663 505.66 290.953 506.61C291.173 506.07 291.458 505.605 291.808 505.215C292.158 504.825 292.548 504.505 292.978 504.255C293.408 504.005 293.863 503.82 294.343 503.7C294.833 503.58 295.328 503.52 295.828 503.52C296.638 503.52 297.358 503.65 297.988 503.91C298.628 504.16 299.168 504.53 299.608 505.02C300.048 505.51 300.383 506.115 300.613 506.835C300.843 507.555 300.958 508.375 300.958 509.295V519H298.018V509.295C298.018 508.155 297.768 507.295 297.268 506.715C296.778 506.135 296.058 505.845 295.108 505.845C294.688 505.845 294.288 505.92 293.908 506.07C293.528 506.21 293.193 506.425 292.903 506.715C292.623 507.005 292.398 507.365 292.228 507.795C292.068 508.225 291.988 508.725 291.988 509.295V519H289.048V509.295C289.048 508.115 288.813 507.245 288.343 506.685C287.873 506.125 287.183 505.845 286.273 505.845C285.643 505.845 285.058 506.01 284.518 506.34C283.978 506.67 283.483 507.12 283.033 507.69V519H280.108ZM314.988 509.685C314.988 509.105 314.903 508.57 314.733 508.08C314.573 507.59 314.333 507.165 314.013 506.805C313.693 506.445 313.303 506.165 312.843 505.965C312.383 505.765 311.853 505.665 311.253 505.665C310.023 505.665 309.053 506.02 308.343 506.73C307.643 507.44 307.198 508.425 307.008 509.685H314.988ZM317.403 516.825C317.043 517.245 316.628 517.61 316.158 517.92C315.688 518.22 315.188 518.465 314.658 518.655C314.128 518.845 313.578 518.985 313.008 519.075C312.448 519.165 311.893 519.21 311.343 519.21C310.293 519.21 309.318 519.035 308.418 518.685C307.528 518.325 306.753 517.805 306.093 517.125C305.443 516.435 304.933 515.585 304.563 514.575C304.203 513.555 304.023 512.385 304.023 511.065C304.023 510.005 304.188 509.02 304.518 508.11C304.848 507.19 305.318 506.39 305.928 505.71C306.548 505.03 307.303 504.495 308.193 504.105C309.083 503.715 310.083 503.52 311.193 503.52C312.123 503.52 312.978 503.675 313.758 503.985C314.548 504.285 315.228 504.725 315.798 505.305C316.368 505.885 316.813 506.6 317.133 507.45C317.463 508.3 317.628 509.27 317.628 510.36C317.628 510.81 317.578 511.115 317.478 511.275C317.378 511.425 317.193 511.5 316.923 511.5H306.933C306.963 512.41 307.093 513.205 307.323 513.885C307.553 514.555 307.868 515.115 308.268 515.565C308.678 516.015 309.163 516.35 309.723 516.57C310.283 516.79 310.908 516.9 311.598 516.9C312.248 516.9 312.808 516.825 313.278 516.675C313.758 516.525 314.168 516.365 314.508 516.195C314.858 516.015 315.148 515.85 315.378 515.7C315.618 515.55 315.828 515.475 316.008 515.475C316.248 515.475 316.433 515.565 316.563 515.745L317.403 516.825ZM323.532 506.685C324.022 505.685 324.612 504.9 325.302 504.33C325.992 503.76 326.822 503.475 327.792 503.475C328.122 503.475 328.432 503.515 328.722 503.595C329.022 503.665 329.282 503.775 329.502 503.925L329.307 506.13C329.237 506.4 329.072 506.535 328.812 506.535C328.672 506.535 328.462 506.51 328.182 506.46C327.902 506.4 327.602 506.37 327.282 506.37C326.812 506.37 326.397 506.44 326.037 506.58C325.677 506.71 325.352 506.91 325.062 507.18C324.782 507.44 324.532 507.765 324.312 508.155C324.092 508.535 323.887 508.97 323.697 509.46V519H320.772V503.76H322.452C322.772 503.76 322.987 503.82 323.097 503.94C323.217 504.05 323.302 504.25 323.352 504.54L323.532 506.685Z" fill="#004155"/>
<path d="M634.658 453.786C632.301 448.059 623.222 453.648 627.519 457.962C629.891 461.877 636.205 457.541 634.658 453.786Z" fill="#9F9D0E"/>
<path d="M642.088 443.663C639.224 440.027 633.066 444.869 636.587 447.941C639.518 450.815 644.696 446.965 642.088 443.663Z" fill="#9F9D0E"/>
<path d="M615.093 505.699C617.263 504.014 613.887 501.508 612.836 503.653C612.333 504.672 613.884 507.348 615.093 505.699Z" fill="#9F9D0E"/>
<path d="M636.485 468.911C640.304 470.985 644.396 466.236 641.794 462.757C637.946 457.653 631.063 465.966 636.485 468.911Z" fill="#9F9D0E"/>
<path d="M645.511 457.803C651.463 456.762 647.429 445.946 641.893 450.738C638.524 453.307 641.405 458.896 645.511 457.803Z" fill="#9F9D0E"/>
<path d="M615.226 511.042C616.855 509.841 615.715 506.642 613.648 507.46C611.16 507.913 612.505 512.38 615.226 511.042Z" fill="#9F9D0E"/>
<path d="M649.915 446.858C653.315 443.379 646.195 439.741 645.331 444.01C644.772 446.781 647.705 448.42 649.915 446.858Z" fill="#9F9D0E"/>
<path d="M620.481 509.117C622.194 507.391 621.292 503.728 618.397 504.733C615.363 505.918 617.531 510.445 620.481 509.117Z" fill="#9F9D0E"/>
<path d="M617.842 514.811C619.948 516.216 622.899 513.802 621.281 511.523C619.31 508.356 615.091 512.978 617.842 514.811Z" fill="#9F9D0E"/>
<path d="M626.618 512.864C629.33 510.713 625.525 507.117 623.539 509.464C621.815 511.502 624.377 514.194 626.618 512.864Z" fill="#9F9D0E"/>
<path d="M622.123 517.812C622.874 520.866 627.815 518.853 626.286 515.982C625.139 513.749 621.277 515.267 622.123 517.812Z" fill="#9F9D0E"/>
<path d="M585.139 626.197C583.036 623.61 579.49 627.472 582.29 629.068C584.161 630.133 586.173 628.07 585.139 626.197Z" fill="#9F9D0E"/>
<path d="M685.146 537.823C687.019 538.888 689.028 536.824 687.995 534.953C685.896 532.366 682.347 536.227 685.146 537.823Z" fill="#9F9D0E"/>
<path d="M592.405 631.141C595.891 629.467 591.195 623.808 588.806 627.482C587.419 629.616 590.187 632.783 592.405 631.141Z" fill="#9F9D0E"/>
<path d="M677.178 532.637C675.79 534.771 678.561 537.939 680.776 536.297C684.267 534.62 679.57 528.96 677.178 532.637Z" fill="#9F9D0E"/>
<path d="M588.569 639.343C591.287 642.146 595.321 638.398 593.747 635.185C591.302 631.28 585.327 636.001 588.569 639.343Z" fill="#9F9D0E"/>
<path d="M596.086 630.779C593.842 634.244 597.643 638.619 601.31 636.428C606.123 632.758 598.949 626.369 596.086 630.779Z" fill="#9F9D0E"/>
<path d="M596.472 645.462C599.267 648.941 605.118 644.787 602.779 640.843C600.344 636.097 593.234 641.435 596.472 645.462Z" fill="#9F9D0E"/>
<path d="M606.517 637.15C603.182 640.095 607.518 645.63 611.291 642.99C615.367 639.761 610.64 633.511 606.517 637.15Z" fill="#9F9D0E"/>
<path d="M604.709 652.628C607.628 656.11 613.047 651.637 610.8 647.81C607.621 643.932 601.268 648.516 604.709 652.628Z" fill="#9F9D0E"/>
<path d="M666.454 543.922C662.915 542.226 660.664 547.942 663.899 549.708C667.357 550.663 670.151 545.595 666.454 543.922Z" fill="#9F9D0E"/>
<path d="M671.255 542.656C674.583 544.181 677.112 538.515 673.684 536.895C670.253 535.843 667.525 540.865 671.255 542.656Z" fill="#9F9D0E"/>
<path d="M666.453 557.066C670.25 558.44 672.473 553.099 669.044 551.4C665.566 550.678 662.678 555.308 666.453 557.066Z" fill="#9F9D0E"/>
<path d="M676.139 548.537C677.955 544.796 672.194 542.991 670.54 546.324C669.004 550.045 674.568 551.949 676.139 548.537Z" fill="#9F9D0E"/>
<path d="M677.022 540.466C675.882 543.782 680.217 545.641 681.707 542.282C683.221 539.1 678.468 537.688 677.022 540.466Z" fill="#9F9D0E"/>
<path d="M568.933 921.862C565.9 924.007 570.44 927.685 572.005 924.828C572.957 923.082 570.734 920.56 568.933 921.862Z" fill="#9F9D0E"/>
<path d="M575.345 935.255C577.369 932.876 574.439 929.267 571.675 930.718C567.615 932.148 572.05 939.121 575.345 935.255Z" fill="#9F9D0E"/>
<path d="M585.232 939.173C589.819 937.382 584.952 929.928 580.949 933.471C577.997 936.091 581.756 941.956 585.232 939.173Z" fill="#9F9D0E"/>
<path d="M579.367 950.393C582.825 954.297 588.983 949.735 586.842 945.163C583.094 940.62 574.734 945.162 579.367 950.393Z" fill="#9F9D0E"/>
<path d="M591.1 938.728C586.11 942.469 591.45 950.387 596.982 947.502C603.041 943.895 597.071 934.244 591.1 938.728Z" fill="#9F9D0E"/>
<path d="M589.531 959.401C592.897 964.653 601.406 959.125 598.563 953.561C595.838 947.046 585.793 953.568 589.531 959.401Z" fill="#9F9D0E"/>
<path d="M610.344 957.534C616.502 954.002 610.432 944.496 604.483 948.838C599.436 952.534 604.847 960.515 610.344 957.534Z" fill="#9F9D0E"/>
<path d="M600.172 969.998C603.736 975.179 611.968 969.892 609.123 964.243C605.658 958.173 596.021 963.96 600.172 969.998Z" fill="#9F9D0E"/>
<path d="M608.147 656.179C614.02 657.981 621.203 652.392 626.993 653.791C624.938 652.346 623.083 650.69 622.141 648.305C620.117 643.166 620.736 638.643 615.261 635.437C618.174 639.974 612.203 646.174 616.472 650.095C616.426 650.044 608.147 655.358 608.147 656.179Z" fill="#9F9D0E"/>
<path d="M680.777 866.854C677.797 869.134 680.979 874.332 684.161 872.353C687.693 870.163 683.939 864.031 680.777 866.854Z" fill="#9F9D0E"/>
<path d="M688.657 860.75C686.579 856.775 680.845 860.46 683.199 863.982C685.45 866.976 690.394 864.066 688.657 860.75Z" fill="#9F9D0E"/>
<path d="M691.999 870.108C695.863 868.472 692.508 863.847 689.298 865.34C686.955 867.261 689.114 871.324 691.999 870.108Z" fill="#9F9D0E"/>
<path d="M678.793 862.766C676.69 858.873 670.943 862.454 673.367 865.962C675.572 868.999 680.573 866.072 678.793 862.766Z" fill="#9F9D0E"/>
<path d="M672.293 869.911C669.289 872.237 672.382 877.23 675.652 875.347C679.464 873.146 675.738 867.518 672.293 869.911Z" fill="#9F9D0E"/>
<path d="M695.516 860.525C694.263 857.57 689.698 860.349 691.722 862.508C692.887 864.914 696.44 862.71 695.516 860.525Z" fill="#9F9D0E"/>
<path d="M698.097 862.944C698.884 865.892 703.088 863.259 701.258 861.436C700.135 859.932 697.613 861.128 698.097 862.944Z" fill="#9F9D0E"/>
<path d="M540.22 757.072C539.296 759.256 542.849 761.46 544.017 759.053C546.039 756.899 541.469 754.117 540.22 757.072Z" fill="#9F9D0E"/>
<path d="M543.741 766.652C546.626 767.873 548.78 763.807 546.442 761.884C543.232 760.391 539.877 765.018 543.741 766.652Z" fill="#9F9D0E"/>
<path d="M547.078 757.294C545.341 760.613 550.284 763.522 552.536 760.524C554.888 757.004 549.155 753.32 547.078 757.294Z" fill="#9F9D0E"/>
<path d="M537.638 759.488C538.121 757.675 535.6 756.476 534.479 757.979C532.648 759.802 536.857 762.436 537.638 759.488Z" fill="#9F9D0E"/>
<path d="M560.089 771.889C563.363 773.776 566.453 768.779 563.451 766.453C560.003 764.065 556.277 769.695 560.089 771.889Z" fill="#9F9D0E"/>
<path d="M551.575 768.903C554.757 770.879 557.939 765.682 554.958 763.404C551.798 760.575 548.043 766.708 551.575 768.903Z" fill="#9F9D0E"/>
<path d="M556.951 759.311C555.171 762.62 560.169 765.548 562.377 762.507C564.798 759 559.05 755.418 556.951 759.311Z" fill="#9F9D0E"/>
<path d="M540.193 620.818C542.259 621.423 543.742 618.956 542.306 617.371C539.665 615.336 537.1 619.909 540.193 620.818Z" fill="#9F9D0E"/>
<path d="M535.591 620.333C538.6 617.902 532.728 613.475 531.248 617.601C530.386 619.993 533.808 622.443 535.591 620.333Z" fill="#9F9D0E"/>
<path d="M522.244 637.26C525.83 637.399 527.38 631.824 523.402 631.042C519.569 630.207 518.688 636.29 522.244 637.26Z" fill="#9F9D0E"/>
<path d="M527.786 628.71C531.375 629.429 532.535 623.334 528.822 622.544C525.245 622.309 523.743 627.822 527.786 628.71Z" fill="#9F9D0E"/>
<path d="M526.418 643.838C530.432 644.305 531.366 638.592 527.64 637.729C524.085 637.825 522.341 642.996 526.418 643.838Z" fill="#9F9D0E"/>
<path d="M533.883 633.312C534.789 629.256 528.768 628.821 527.926 632.444C527.282 636.416 533.137 636.996 533.883 633.312Z" fill="#9F9D0E"/>
<path d="M532.888 625.259C532.541 628.75 537.184 629.563 537.863 625.95C538.611 622.503 533.659 622.223 532.888 625.259Z" fill="#9F9D0E"/>
<path d="M536.667 735.673C536.232 734.625 535.272 733.669 533.889 733.011C531.256 731.762 527.37 731.783 523.778 732.477C518.993 733.401 515.18 735.341 511.779 737.566C507.942 740.075 504.116 742.531 500 744.899C504.629 745.957 509.008 747.179 513.41 748.456C517.313 749.586 521.529 750.321 526.374 749.801C530.013 749.411 533.732 748.289 535.884 746.325C536.885 745.409 537.441 744.396 537.671 743.391C548.055 745.43 557.848 749.316 566.72 754.893C570.617 759.296 574.599 763.657 578.75 767.939C570.833 766.775 571.187 758.685 563.421 757.47C566.569 760.008 564.43 767.22 568.978 768.247C567.703 768.294 564.923 774.518 564.25 775.676C568.423 775.286 571.299 773.118 573.844 769.946C575.103 768.379 576.049 767.933 578.059 768.502C581.458 769.461 584.303 775.264 586.26 778.114C588.411 781.25 590.457 784.463 592.4 787.729C596.297 794.246 600.281 801.14 603.05 808.25C601.028 850.186 607.627 890.717 618.471 930.856C610.313 920.096 600.584 910.576 589.438 902.573C589.435 902.528 589.428 902.482 589.424 902.436C590.673 900.815 592.323 899.594 592.443 897.524C592.539 895.807 591.866 893.868 590.407 892.053C587.64 888.606 582.32 886.067 576.955 884.641C569.813 882.741 563.325 882.868 557.213 883.661C550.315 884.552 543.47 885.377 536.285 885.89C541.905 890.393 547.076 894.958 552.247 899.609C556.83 903.731 562.101 907.519 569.055 910.01C574.283 911.882 580.097 912.814 584.337 911.546C586.308 910.959 587.738 909.939 588.712 908.722C602.939 919.414 614.626 932.771 623.386 948.124C626.189 957.493 629.176 966.849 632.325 976.204C621.262 968.775 627.6 956.869 616.802 949.476C619.708 955.549 611.323 964.854 617.418 969.657C615.468 968.808 606.829 976.172 604.981 977.426C611.535 979.831 617.411 978.639 623.512 975.698C626.534 974.247 628.268 974.251 630.881 976.555C635.3 980.434 635.414 991.196 636.305 996.88C637.293 1003.14 638.061 1009.43 638.634 1015.73C639.865 1028.85 641.005 1042.68 639.837 1055.84C639.512 1059.53 638.32 1064.4 641.359 1067.34C641.359 1067.34 641.363 1067.34 641.366 1067.34C564.789 1067.45 502.796 1089.75 502.796 1117.26H781C781 1091.53 726.759 1070.35 657.076 1067.64C659.232 1057.15 660.782 1046.54 661.427 1035.84C662.612 1020.9 662.04 1006.13 660.16 991.547C669.281 972.873 682.496 956.812 699.12 944.323C700.105 945.552 701.548 946.581 703.54 947.176C707.819 948.452 713.694 947.512 718.971 945.621C725.996 943.105 731.316 939.284 735.946 935.117C741.166 930.42 746.386 925.813 752.064 921.264C744.811 920.745 737.897 919.916 730.932 919.013C724.759 918.214 718.208 918.086 710.995 920.005C705.577 921.445 700.209 924.008 697.412 927.49C695.941 929.323 695.257 931.28 695.357 933.014C695.477 935.106 697.14 936.342 698.403 937.976C698.4 938.022 698.393 938.068 698.389 938.114C681.975 949.899 668.607 964.941 658.832 982.426C654.967 959.212 647.938 936.486 639.391 914.359C638.243 911.418 637.156 908.463 636.094 905.501C638.483 900.581 641.266 895.782 644.016 891.181C645.959 887.915 648.001 884.7 650.157 881.565C652.11 878.716 654.955 872.912 658.358 871.952C660.367 871.382 661.31 871.828 662.574 873.396C665.117 876.567 667.993 878.737 672.168 879.125C671.492 877.969 668.714 871.743 667.44 871.697C671.989 870.671 669.85 863.458 672.997 860.92C665.232 862.135 665.586 870.225 657.669 871.39C659.021 869.995 660.301 868.562 661.629 867.157C672.92 857.498 686.279 851.038 700.789 848.193C701.019 849.195 701.576 850.21 702.577 851.127C704.729 853.095 708.448 854.213 712.087 854.603C716.932 855.122 721.148 854.39 725.051 853.258C729.455 851.983 733.836 850.76 738.462 849.701C734.346 847.334 730.52 844.877 726.683 842.369C723.282 840.142 719.471 838.202 714.685 837.279C711.094 836.585 707.206 836.565 704.574 837.814C703.187 838.472 702.232 839.431 701.796 840.475C701.273 841.739 701.898 842.939 702.175 844.258C702.16 844.286 702.143 844.308 702.129 844.336C691.556 846.173 681.566 849.867 672.424 855.194C692.675 831.765 709.326 806.356 721.265 776.829C728.386 759.218 734.038 705.794 734.038 705.794C733.189 712.752 730.577 719.707 728.514 726.364C725.453 736.228 722.2 746.031 718.895 755.814C713.827 770.817 708.384 785.306 700.12 798.904C691.792 812.604 681.494 825.048 669.845 836.048C653.954 851.055 639.623 867.734 630.224 887.454C624.585 868.25 620.858 848.636 619.336 828.715C628.263 806.326 642.833 787.239 661.924 772.893C662.898 774.111 664.331 775.13 666.302 775.718C670.538 776.981 676.356 776.05 681.584 774.181C688.543 771.689 693.808 767.903 698.392 763.779C703.563 759.129 708.729 754.564 714.354 750.062C707.169 749.549 700.324 748.724 693.426 747.832C687.314 747.04 680.826 746.913 673.684 748.813C668.319 750.239 663.004 752.777 660.232 756.224C658.773 758.04 658.098 759.98 658.196 761.696C658.314 763.767 659.966 764.992 661.215 766.608C661.211 766.655 661.204 766.701 661.201 766.747C643.003 779.813 628.568 796.905 618.713 816.937C618.511 810.389 618.504 803.82 618.811 797.212C620.917 752.003 631.662 707.532 642.378 663.731C647.443 643.033 651.743 622.248 653.685 601.001C654.673 590.206 655.091 579.398 654.596 568.567C654.553 567.643 654.465 566.777 654.393 565.966C654.4 564.89 654.467 563.829 654.513 562.762C654.91 561.552 655.996 560.936 658.711 561.3C661.843 561.718 665.513 562.921 668.5 561.264C665.864 562.981 661.181 557.792 661.156 555.754C661.149 554.99 660.721 546.17 660.247 546.17C655.727 550.363 658.399 557.531 654.577 560.971C655.575 545.539 660.604 530.958 669.247 518.27C670.115 518.823 671.223 519.155 672.579 519.102C675.492 518.992 678.924 517.173 681.787 514.894C685.6 511.86 688.083 508.377 690.065 504.828C692.302 500.825 694.56 496.878 697.112 492.875C692.522 494.082 688.074 495.023 683.578 495.934C679.593 496.736 675.52 498.04 671.467 500.744C668.423 502.775 665.641 505.489 664.648 508.229C664.124 509.671 664.112 511.025 664.541 512.076C665.054 513.344 666.343 513.758 667.467 514.501C667.474 514.528 667.483 514.561 667.489 514.59C659.709 525.491 654.563 537.803 652.249 550.884C648.66 531.102 644.696 511.22 634.135 493.803C632.337 490.838 629.563 486.774 628.413 482.718C633.482 479.399 641.313 479.954 644.34 473.233C643.201 476.138 632.125 475.098 629.283 475.282C625.101 475.562 625.239 467.8 621.392 468.08C620.868 470.812 621.112 473.59 621.997 476.157C609.518 460.467 593.046 446.888 574.16 440C607.582 456.627 630.104 488.654 639.983 523.901C635.286 520.447 633.927 512.576 629.475 510.499C629.111 511.497 629.875 519.403 630.104 519.297C629.79 519.13 624.967 522.606 624.967 522.858C629.705 524.387 632.41 518.682 636.59 522.267C640.316 525.459 641.551 529.541 642.414 534.216C645.03 548.278 646.049 562.533 645.745 576.829C645.161 603.132 639.793 629.018 633.128 654.387C630.308 644.342 625.795 634.858 619.605 626.272C619.612 626.244 619.615 626.211 619.626 626.182C620.747 625.432 622.032 625.014 622.541 623.744C622.962 622.693 622.948 621.337 622.414 619.897C621.404 617.162 618.612 614.461 615.559 612.444C611.492 609.762 607.412 608.481 603.423 607.695C598.925 606.807 594.473 605.887 589.875 604.701C592.445 608.693 594.72 612.628 596.978 616.621C598.978 620.16 601.477 623.632 605.306 626.647C608.18 628.912 611.623 630.714 614.535 630.814C615.891 630.86 616.999 630.523 617.862 629.965C624.286 639.297 628.713 649.685 631.049 660.682C631.038 663.57 629.725 667.011 629.227 668.844C627.187 676.283 625.203 683.736 623.302 691.212C615.671 721.221 609.223 751.644 605.366 782.386C595.966 763.384 582.036 747.184 566.59 732.6C554.939 721.6 544.644 709.156 536.316 695.455C528.052 681.858 522.606 667.368 517.541 652.366C517.336 651.754 517.134 651.141 516.929 650.529C517.517 650.232 518.271 649.995 519.403 649.885C522.546 649.574 526.393 649.899 528.923 647.602C526.75 649.878 521.002 645.903 520.51 643.925C520.326 643.181 517.883 634.695 517.424 634.804C514.522 639.125 517.088 644.327 516.217 648.394C513.375 639.928 510.569 631.449 507.925 622.919C505.858 616.261 503.25 609.303 502.401 602.348C502.401 602.348 508.053 655.772 515.174 673.384C526.343 701.007 541.597 725.049 560.096 747.219C552.622 743.599 544.673 740.983 536.356 739.539C536.342 739.511 536.324 739.489 536.309 739.462C536.564 738.136 537.194 736.937 536.667 735.673Z" fill="#004155"/>
<path d="M47.48 623.02L43 623.02L43 606.42L47.48 606.42L47.48 612.02L62.18 612.02C62.5533 612.02 62.9267 612.027 63.3 612.04C63.6867 612.053 64.0733 612.073 64.46 612.1L61.7 608.78C61.4733 608.487 61.3333 608.193 61.28 607.9C61.24 607.62 61.24 607.353 61.28 607.1C61.3333 606.847 61.42 606.62 61.54 606.42C61.6733 606.22 61.8067 606.073 61.94 605.98L64.54 604.02L72.16 613.1L72.16 618.22L47.48 618.22L47.48 623.02ZM46.14 626.463C46.62 626.463 47.0667 626.55 47.48 626.723C47.8933 626.91 48.2533 627.156 48.56 627.463C48.8667 627.783 49.1067 628.156 49.28 628.583C49.4667 629.01 49.56 629.476 49.56 629.983C49.56 630.476 49.4667 630.936 49.28 631.363C49.1067 631.79 48.8667 632.163 48.56 632.483C48.2533 632.803 47.8933 633.05 47.48 633.223C47.0667 633.41 46.62 633.503 46.14 633.503C45.66 633.503 45.2067 633.41 44.78 633.223C44.3667 633.05 44.0067 632.803 43.7 632.483C43.3933 632.163 43.1533 631.79 42.98 631.363C42.8067 630.936 42.72 630.476 42.72 629.983C42.72 629.476 42.8067 629.01 42.98 628.583C43.1533 628.156 43.3933 627.783 43.7 627.463C44.0067 627.156 44.3667 626.91 44.78 626.723C45.2067 626.55 45.66 626.463 46.14 626.463ZM61.88 643.653C61.9867 644.2 62.06 644.727 62.1 645.233C62.14 645.74 62.16 646.233 62.16 646.713C62.16 648.247 61.9267 649.6 61.46 650.773C60.9933 651.947 60.3533 652.933 59.54 653.733C58.74 654.533 57.7933 655.133 56.7 655.533C55.62 655.947 54.46 656.153 53.22 656.153C51.66 656.153 50.2333 655.873 48.94 655.313C47.66 654.767 46.5533 654 45.62 653.013C44.6867 652.027 43.96 650.847 43.44 649.473C42.9333 648.113 42.68 646.62 42.68 644.993C42.68 644.047 42.78 643.14 42.98 642.273C43.18 641.42 43.4467 640.613 43.78 639.853C44.1267 639.107 44.52 638.413 44.96 637.773C45.4133 637.133 45.8933 636.553 46.4 636.033L48.96 637.953C49.2267 638.153 49.4267 638.387 49.56 638.653C49.7067 638.92 49.78 639.207 49.78 639.513C49.78 639.913 49.6667 640.287 49.44 640.633C49.2267 640.993 48.9867 641.38 48.72 641.793C48.4667 642.22 48.2333 642.713 48.02 643.273C47.8067 643.833 47.7 644.527 47.7 645.353C47.7 646.18 47.8333 646.887 48.1 647.473C48.38 648.06 48.7533 648.533 49.22 648.893C49.7 649.267 50.2533 649.533 50.88 649.693C51.52 649.867 52.2 649.953 52.92 649.953C54.3333 649.953 55.4067 649.553 56.14 648.753C56.8867 647.953 57.26 646.82 57.26 645.353C57.26 644.047 57.0133 642.767 56.52 641.513L57.56 637.673L72.14 640.153L72.14 655.073L69.58 655.073C69.1533 655.073 68.7667 655.007 68.42 654.873C68.0733 654.74 67.7667 654.527 67.5 654.233C67.2467 653.953 67.0467 653.58 66.9 653.113C66.7667 652.647 66.7 652.087 66.7 651.433L66.7 644.473L61.88 643.653ZM57.58 680.377C55.0333 680.377 52.8267 680.103 50.96 679.557C49.0933 679.01 47.5467 678.25 46.32 677.277C45.0933 676.317 44.18 675.17 43.58 673.837C42.98 672.517 42.68 671.083 42.68 669.537C42.68 667.99 42.98 666.557 43.58 665.237C44.18 663.93 45.0933 662.797 46.32 661.837C47.5467 660.877 49.0933 660.123 50.96 659.577C52.8267 659.043 55.0333 658.777 57.58 658.777C60.1267 658.777 62.3333 659.043 64.2 659.577C66.0667 660.123 67.6133 660.877 68.84 661.837C70.0667 662.797 70.9733 663.93 71.56 665.237C72.16 666.557 72.46 667.99 72.46 669.537C72.46 671.083 72.16 672.517 71.56 673.837C70.9733 675.17 70.0667 676.317 68.84 677.277C67.6133 678.25 66.0667 679.01 64.2 679.557C62.3333 680.103 60.1267 680.377 57.58 680.377ZM57.58 673.977C59.5933 673.977 61.24 673.85 62.52 673.597C63.8133 673.343 64.8267 673.003 65.56 672.577C66.2933 672.163 66.7933 671.69 67.06 671.157C67.34 670.623 67.48 670.083 67.48 669.537C67.48 668.99 67.34 668.45 67.06 667.917C66.7933 667.397 66.2933 666.93 65.56 666.517C64.8267 666.117 63.8133 665.79 62.52 665.537C61.24 665.297 59.5933 665.177 57.58 665.177C55.5533 665.177 53.9 665.297 52.62 665.537C51.34 665.79 50.3267 666.117 49.58 666.517C48.8467 666.93 48.34 667.397 48.06 667.917C47.7933 668.45 47.66 668.99 47.66 669.537C47.66 670.083 47.7933 670.623 48.06 671.157C48.34 671.69 48.8467 672.163 49.58 672.577C50.3267 673.003 51.34 673.343 52.62 673.597C53.9 673.85 55.5533 673.977 57.58 673.977ZM57.58 703.58C55.0333 703.58 52.8267 703.306 50.96 702.76C49.0933 702.213 47.5467 701.453 46.32 700.48C45.0933 699.52 44.18 698.373 43.58 697.04C42.98 695.72 42.68 694.286 42.68 692.74C42.68 691.193 42.98 689.76 43.58 688.44C44.18 687.133 45.0933 686 46.32 685.04C47.5467 684.08 49.0933 683.326 50.96 682.78C52.8267 682.246 55.0333 681.98 57.58 681.98C60.1267 681.98 62.3333 682.246 64.2 682.78C66.0667 683.326 67.6133 684.08 68.84 685.04C70.0667 686 70.9733 687.133 71.56 688.44C72.16 689.76 72.46 691.193 72.46 692.74C72.46 694.286 72.16 695.72 71.56 697.04C70.9733 698.373 70.0667 699.52 68.84 700.48C67.6133 701.453 66.0667 702.213 64.2 702.76C62.3333 703.306 60.1267 703.58 57.58 703.58ZM57.58 697.18C59.5933 697.18 61.24 697.053 62.52 696.8C63.8133 696.546 64.8267 696.206 65.56 695.78C66.2933 695.366 66.7933 694.893 67.06 694.36C67.34 693.826 67.48 693.286 67.48 692.74C67.48 692.193 67.34 691.653 67.06 691.12C66.7933 690.6 66.2933 690.133 65.56 689.72C64.8267 689.32 63.8133 688.993 62.52 688.74C61.24 688.5 59.5933 688.38 57.58 688.38C55.5533 688.38 53.9 688.5 52.62 688.74C51.34 688.993 50.3267 689.32 49.58 689.72C48.8467 690.133 48.34 690.6 48.06 691.12C47.7933 691.653 47.66 692.193 47.66 692.74C47.66 693.286 47.7933 693.826 48.06 694.36C48.34 694.893 48.8467 695.366 49.58 695.78C50.3267 696.206 51.34 696.546 52.62 696.8C53.9 697.053 55.5533 697.18 57.58 697.18ZM50.8925 724.436C50.8458 723.048 50.735 721.869 50.56 720.901C50.3967 719.933 50.175 719.145 49.895 718.538C49.615 717.932 49.2825 717.494 48.8975 717.226C48.5242 716.958 48.1042 716.823 47.6375 716.823C47.1942 716.823 46.8092 716.893 46.4825 717.033C46.1675 717.185 45.905 717.383 45.695 717.628C45.4967 717.885 45.3508 718.183 45.2575 718.521C45.1642 718.859 45.1175 719.227 45.1175 719.623C45.1175 720.148 45.17 720.627 45.275 721.058C45.38 721.502 45.5258 721.916 45.7125 722.301C45.9108 722.686 46.15 723.053 46.43 723.403C46.71 723.753 47.0308 724.098 47.3925 724.436L50.8925 724.436ZM58.295 714.426C59.24 715.418 59.9458 716.491 60.4125 717.646C60.8792 718.813 61.1125 720.09 61.1125 721.478C61.1125 722.493 60.9433 723.392 60.605 724.173C60.2783 724.955 59.8175 725.614 59.2225 726.151C58.6275 726.688 57.9158 727.09 57.0875 727.358C56.2592 727.638 55.3433 727.778 54.34 727.778L43 727.778L43 726.256C43 725.918 43.0525 725.661 43.1575 725.486C43.2742 725.311 43.4842 725.171 43.7875 725.066L45.345 724.698C44.925 724.243 44.5517 723.794 44.225 723.351C43.91 722.908 43.6358 722.441 43.4025 721.951C43.1808 721.473 43.0117 720.959 42.895 720.411C42.7783 719.863 42.72 719.256 42.72 718.591C42.72 717.891 42.8133 717.232 43 716.613C43.1983 716.007 43.4958 715.476 43.8925 715.021C44.2892 714.566 44.785 714.204 45.38 713.936C45.975 713.679 46.6692 713.551 47.4625 713.551C48.1625 713.551 48.8333 713.738 49.475 714.111C50.1283 714.496 50.7117 715.114 51.225 715.966C51.7383 716.829 52.1583 717.949 52.485 719.326C52.8117 720.714 52.9983 722.418 53.045 724.436L54.34 724.436C55.6817 724.436 56.685 724.15 57.35 723.578C58.015 723.007 58.3475 722.167 58.3475 721.058C58.3475 720.312 58.2542 719.682 58.0675 719.168C57.8808 718.667 57.6708 718.229 57.4375 717.856C57.2158 717.494 57.0117 717.173 56.825 716.893C56.6383 716.625 56.545 716.345 56.545 716.053C56.545 715.82 56.6092 715.616 56.7375 715.441C56.8658 715.278 57.0175 715.143 57.1925 715.038L58.295 714.426ZM68.83 735.759L53.7275 735.759L53.7275 736.564C53.7275 736.809 53.7625 737.013 53.8325 737.177C53.9025 737.34 54.0425 737.509 54.2525 737.684L60.115 743.004C60.3367 743.168 60.5 743.348 60.605 743.547C60.7217 743.745 60.78 743.996 60.78 744.299L60.78 747.414L53.9025 741.132C53.4708 740.793 53.1383 740.432 52.905 740.047C52.7533 740.268 52.5783 740.461 52.38 740.624C52.1817 740.799 51.9658 740.968 51.7325 741.132L43 747.817L43 744.754C43 744.474 43.0467 744.229 43.14 744.019C43.2333 743.821 43.4025 743.64 43.6475 743.477L50.7875 737.982C51.0558 737.807 51.225 737.632 51.295 737.457C51.3767 737.282 51.4175 737.019 51.4175 736.669L51.4175 735.759L43 735.759L43 732.347L68.83 732.347L68.83 735.759ZM43 767.212L43 763.782L58.015 763.782L58.015 754.857L47.6025 754.857C46.9025 754.857 46.3775 755.026 46.0275 755.364C45.6892 755.714 45.52 756.158 45.52 756.694C45.52 757.009 45.5608 757.278 45.6425 757.499C45.7242 757.733 45.8117 757.931 45.905 758.094C46.01 758.258 46.1033 758.398 46.185 758.514C46.2667 758.631 46.3075 758.736 46.3075 758.829C46.3075 758.946 46.2783 759.034 46.22 759.092C46.1733 759.162 46.0917 759.232 45.975 759.302L44.33 760.317C43.8167 759.757 43.42 759.092 43.14 758.322C42.86 757.552 42.72 756.753 42.72 755.924C42.72 754.489 43.1225 753.381 43.9275 752.599C44.7325 751.829 45.8817 751.444 47.375 751.444L58.015 751.444L58.015 749.379C58.015 749.181 58.0733 749.012 58.19 748.872C58.3183 748.744 58.505 748.679 58.75 748.679L60.1325 748.679L60.535 751.584L65.8375 752.337C66.0358 752.384 66.1875 752.471 66.2925 752.599C66.4092 752.739 66.4675 752.914 66.4675 753.124L66.4675 754.857L60.5 754.857L60.5 767.212L43 767.212ZM66.38 767.982C66.065 767.982 65.7617 767.918 65.47 767.789C65.19 767.661 64.9392 767.486 64.7175 767.264C64.5075 767.054 64.3383 766.804 64.21 766.512C64.0933 766.22 64.035 765.917 64.035 765.602C64.035 765.287 64.0933 764.989 64.21 764.709C64.3383 764.429 64.5075 764.179 64.7175 763.957C64.9392 763.747 65.19 763.578 65.47 763.449C65.7617 763.333 66.065 763.274 66.38 763.274C66.7067 763.274 67.0158 763.333 67.3075 763.449C67.5992 763.578 67.85 763.747 68.06 763.957C68.2817 764.179 68.4508 764.429 68.5675 764.709C68.6958 764.989 68.76 765.287 68.76 765.602C68.76 765.917 68.6958 766.22 68.5675 766.512C68.4508 766.804 68.2817 767.054 68.06 767.264C67.85 767.486 67.5992 767.661 67.3075 767.789C67.0158 767.918 66.7067 767.982 66.38 767.982ZM60.78 787.601L43 780.391L43 777.311L60.78 770.101L60.78 772.919C60.78 773.187 60.7158 773.409 60.5875 773.584C60.4592 773.759 60.2958 773.875 60.0975 773.934L49.1775 778.186C48.7225 778.338 48.2675 778.466 47.8125 778.571C47.3692 778.688 46.9258 778.793 46.4825 778.886C46.9258 778.979 47.3692 779.084 47.8125 779.201C48.2558 779.318 48.7108 779.458 49.1775 779.621L60.0975 783.926C60.2958 783.996 60.4592 784.119 60.5875 784.294C60.7158 784.469 60.78 784.679 60.78 784.924L60.78 787.601ZM53.8675 801.58C54.5442 801.58 55.1683 801.481 55.74 801.283C56.3117 801.096 56.8075 800.816 57.2275 800.443C57.6475 800.069 57.9742 799.614 58.2075 799.078C58.4408 798.541 58.5575 797.923 58.5575 797.223C58.5575 795.788 58.1433 794.656 57.315 793.828C56.4867 793.011 55.3375 792.492 53.8675 792.27L53.8675 801.58ZM45.5375 804.398C45.0475 803.978 44.6217 803.494 44.26 802.945C43.91 802.397 43.6242 801.814 43.4025 801.195C43.1808 800.577 43.0175 799.935 42.9125 799.27C42.8075 798.617 42.755 797.969 42.755 797.328C42.755 796.103 42.9592 794.965 43.3675 793.915C43.7875 792.877 44.3942 791.973 45.1875 791.203C45.9925 790.444 46.9842 789.849 48.1625 789.418C49.3525 788.998 50.7175 788.788 52.2575 788.788C53.4942 788.788 54.6433 788.98 55.705 789.365C56.7783 789.75 57.7117 790.299 58.505 791.01C59.2983 791.734 59.9225 792.614 60.3775 793.653C60.8325 794.691 61.06 795.858 61.06 797.153C61.06 798.238 60.8792 799.235 60.5175 800.145C60.1675 801.067 59.6542 801.86 58.9775 802.525C58.3008 803.19 57.4667 803.709 56.475 804.083C55.4833 804.468 54.3517 804.66 53.08 804.66C52.555 804.66 52.1992 804.602 52.0125 804.485C51.8375 804.369 51.75 804.153 51.75 803.838L51.75 792.183C50.6883 792.218 49.7608 792.369 48.9675 792.638C48.1858 792.906 47.5325 793.274 47.0075 793.74C46.4825 794.219 46.0917 794.784 45.835 795.438C45.5783 796.091 45.45 796.82 45.45 797.625C45.45 798.384 45.5375 799.037 45.7125 799.585C45.8875 800.145 46.0742 800.624 46.2725 801.02C46.4825 801.429 46.675 801.767 46.85 802.035C47.025 802.315 47.1125 802.56 47.1125 802.77C47.1125 803.05 47.0075 803.266 46.7975 803.418L45.5375 804.398ZM68.83 820.681L43 820.681L43 817.251L68.83 817.251L68.83 820.681ZM61.06 833.132C61.06 834.439 60.8442 835.617 60.4125 836.667C59.9925 837.729 59.38 838.627 58.575 839.362C57.7817 840.109 56.8192 840.681 55.6875 841.077C54.5675 841.474 53.3075 841.672 51.9075 841.672C50.5075 841.672 49.2417 841.474 48.11 841.077C46.9783 840.681 46.0158 840.109 45.2225 839.362C44.4292 838.627 43.8167 837.729 43.385 836.667C42.965 835.617 42.755 834.439 42.755 833.132C42.755 831.814 42.965 830.624 43.385 829.562C43.8167 828.512 44.4292 827.614 45.2225 826.867C46.0158 826.121 46.9783 825.543 48.11 825.135C49.2417 824.738 50.5075 824.54 51.9075 824.54C53.3075 824.54 54.5675 824.738 55.6875 825.135C56.8192 825.543 57.7817 826.121 58.575 826.867C59.38 827.614 59.9925 828.512 60.4125 829.562C60.8442 830.624 61.06 831.814 61.06 833.132ZM45.415 833.132C45.415 834.812 45.9808 836.066 47.1125 836.895C48.2442 837.723 49.8367 838.137 51.89 838.137C53.9433 838.137 55.5358 837.723 56.6675 836.895C57.8108 836.066 58.3825 834.812 58.3825 833.132C58.3825 831.429 57.8108 830.157 56.6675 829.317C55.5358 828.489 53.9433 828.075 51.89 828.075C49.8367 828.075 48.2442 828.489 47.1125 829.317C45.9808 830.157 45.415 831.429 45.415 833.132ZM68.83 848.894L53.7275 848.894L53.7275 849.699C53.7275 849.944 53.7625 850.148 53.8325 850.311C53.9025 850.475 54.0425 850.644 54.2525 850.819L60.115 856.139C60.3367 856.302 60.5 856.483 60.605 856.681C60.7217 856.88 60.78 857.131 60.78 857.434L60.78 860.549L53.9025 854.266C53.4708 853.928 53.1383 853.566 52.905 853.181C52.7533 853.403 52.5783 853.596 52.38 853.759C52.1817 853.934 51.9658 854.103 51.7325 854.266L43 860.951L43 857.889C43 857.609 43.0467 857.364 43.14 857.154C43.2333 856.956 43.4025 856.775 43.6475 856.611L50.7875 851.116C51.0558 850.941 51.225 850.766 51.295 850.591C51.3767 850.416 51.4175 850.154 51.4175 849.804L51.4175 848.894L43 848.894L43 845.481L68.83 845.481L68.83 848.894ZM50.8925 873.049C50.8458 871.661 50.735 870.483 50.56 869.514C50.3967 868.546 50.175 867.758 49.895 867.152C49.615 866.545 49.2825 866.108 48.8975 865.839C48.5242 865.571 48.1042 865.437 47.6375 865.437C47.1942 865.437 46.8092 865.507 46.4825 865.647C46.1675 865.798 45.905 865.997 45.695 866.242C45.4967 866.498 45.3508 866.796 45.2575 867.134C45.1642 867.473 45.1175 867.84 45.1175 868.237C45.1175 868.762 45.17 869.24 45.275 869.672C45.38 870.115 45.5258 870.529 45.7125 870.914C45.9108 871.299 46.15 871.667 46.43 872.017C46.71 872.367 47.0308 872.711 47.3925 873.049L50.8925 873.049ZM58.295 863.039C59.24 864.031 59.9458 865.104 60.4125 866.259C60.8792 867.426 61.1125 868.703 61.1125 870.092C61.1125 871.107 60.9433 872.005 60.605 872.787C60.2783 873.568 59.8175 874.228 59.2225 874.764C58.6275 875.301 57.9158 875.703 57.0875 875.972C56.2592 876.252 55.3433 876.392 54.34 876.392L43 876.392L43 874.869C43 874.531 43.0525 874.274 43.1575 874.099C43.2742 873.924 43.4842 873.784 43.7875 873.679L45.345 873.312C44.925 872.857 44.5517 872.408 44.225 871.964C43.91 871.521 43.6358 871.054 43.4025 870.564C43.1808 870.086 43.0117 869.573 42.895 869.024C42.7783 868.476 42.72 867.869 42.72 867.204C42.72 866.504 42.8133 865.845 43 865.227C43.1983 864.62 43.4958 864.089 43.8925 863.634C44.2892 863.179 44.785 862.818 45.38 862.549C45.975 862.293 46.6692 862.164 47.4625 862.164C48.1625 862.164 48.8333 862.351 49.475 862.724C50.1283 863.109 50.7117 863.728 51.225 864.579C51.7383 865.443 52.1583 866.563 52.485 867.939C52.8117 869.328 52.9983 871.031 53.045 873.049L54.34 873.049C55.6817 873.049 56.685 872.763 57.35 872.192C58.015 871.62 58.3475 870.78 58.3475 869.672C58.3475 868.925 58.2542 868.295 58.0675 867.782C57.8808 867.28 57.6708 866.843 57.4375 866.469C57.2158 866.108 57.0117 865.787 56.825 865.507C56.6383 865.238 56.545 864.958 56.545 864.667C56.545 864.433 56.6092 864.229 56.7375 864.054C56.8658 863.891 57.0175 863.757 57.1925 863.652L58.295 863.039ZM68.83 884.46L43 884.46L43 881.03L68.83 881.03L68.83 884.46ZM42.72 894.899C42.72 893.464 43.1225 892.356 43.9275 891.574C44.7325 890.804 45.8817 890.419 47.375 890.419L58.015 890.419L58.015 888.354C58.015 888.156 58.0733 887.987 58.19 887.847C58.3183 887.718 58.505 887.654 58.75 887.654L60.1325 887.654L60.535 890.542L65.8375 891.312C66.0358 891.358 66.1875 891.446 66.2925 891.574C66.4092 891.714 66.4675 891.889 66.4675 892.099L66.4675 893.832L60.5 893.832L60.5 898.872L58.015 898.872L58.015 893.832L47.6025 893.832C46.9025 893.832 46.3775 894.001 46.0275 894.339C45.6892 894.689 45.52 895.132 45.52 895.669C45.52 895.984 45.5608 896.252 45.6425 896.474C45.7242 896.707 45.8117 896.906 45.905 897.069C46.01 897.232 46.1033 897.372 46.185 897.489C46.2667 897.606 46.3075 897.711 46.3075 897.804C46.3075 897.921 46.2783 898.008 46.22 898.067C46.1733 898.137 46.0917 898.207 45.975 898.277L44.33 899.292C43.8167 898.732 43.42 898.067 43.14 897.297C42.86 896.527 42.72 895.727 42.72 894.899Z" fill="#004155"/>
<path d="M278.928 1035.84C253.509 1035.84 246.836 1014.86 246.836 1014.86C246.836 1014.86 253.509 988.492 278.928 988.492C296.404 988.492 325 1012.32 325 1012.32C325 1012.32 296.404 1035.84 278.928 1035.84Z" fill="#D7D413"/>
<path d="M182.016 935.111C202.034 955.447 190.277 978.324 190.277 978.324C190.277 978.324 165.811 992.305 145.794 971.969C132.131 957.989 128 917 128 917C128 917 168.353 921.131 182.016 935.111Z" fill="#D7D413"/>
<path d="M325 1012.32C309.113 1009.14 292.908 1007.24 277.021 1009.14C261.452 1010.73 245.565 1016.45 235.079 1027.26C229.678 1032.66 225.865 1039.01 223.958 1046C223.64 1047.59 223.323 1049.5 223.005 1051.09C222.687 1052.99 223.005 1054.26 223.005 1056.49L223.64 1068.56L225.865 1117.18H209.978L212.519 1068.56L213.155 1056.49C213.155 1054.58 213.473 1052.04 213.79 1049.82C214.108 1047.59 214.744 1045.37 215.379 1043.14C218.239 1034.56 223.64 1027.26 230.313 1021.85C236.986 1016.14 244.611 1012.32 252.555 1009.46C260.499 1006.92 268.76 1005.65 277.021 1005.33C293.226 1004.7 309.431 1007.87 325 1012.32Z" fill="#004155"/>
<path d="M128 917C144.523 927.168 159.774 939.877 173.119 954.176C186.465 968.474 198.539 984.044 208.389 1001.2C213.155 1009.78 217.921 1018.68 220.781 1028.85C221.416 1031.39 222.052 1033.93 222.369 1036.79L222.687 1044.41L223.323 1059.03L225.865 1117.18H209.977L212.519 1058.71L213.155 1044.1L213.473 1040.6V1037.11C213.473 1035.2 213.155 1032.98 212.519 1030.75C210.613 1021.85 206.8 1012.96 202.352 1004.38C193.773 987.221 182.652 971.334 170.26 956.4C158.185 941.466 144.205 928.121 128 917Z" fill="#004155"/>
</svg>
