<svg xmlns:xlink="http://www.w3.org/1999/xlink" xmlns="http://www.w3.org/2000/svg" class="logo__image logo__image--sticky" width="84.4"  height="106" ><defs><symbol viewBox="0 0 84.4 106" id="icon-fifth-element" xmlns="http://www.w3.org/2000/svg"><path d="M42 15.5C29.7 4.3 16.9-3.3 12.1 1.4-6.6 20.1-.3 89.7 8.7 103.5c0-.1-.1-.1-.1-.2C4.3 92.1 20.6 36 42 15.5zm9-6.1c-3.1 1.2-6.1 3.4-9 6.2C57 29.2 71.3 48.1 69.4 56 63.9 77.7 35 98.9 13.8 105.2c-.6.2-1.2.4-1.7.4h-.3s1.2.2 2.5.2c1.8.1 4.3.2 5.9.2 21.7 0 50.4-8.3 62.3-24.1C91.5 70 65 3.7 51 9.4z" fill="#f0e656"></path><path d="M13.8 105.2C35 98.9 63.9 77.7 69.4 56c2-7.9-12.3-26.8-27.3-40.5C20.6 36 4.3 92.1 8.7 103.4c0 .1 0 .1.1.2.5.9 1.9 1.8 3 2h.3c.5-.1 1-.3 1.7-.4z" fill="#c7d242"></path><path d="M61.6 52.6c.5 2.1-.8 4.3-2.9 4.8-2.1.5-4.3-.8-4.8-2.9-.5-2.1.8-4.3 2.9-4.8 2.1-.5 4.3.8 4.8 2.9z"></path></symbol></defs> <use xmlns:xlink="http://www.w3.org/1999/xlink" xlink:href="#icon-fifth-element"></use> </svg>