<svg xmlns:xlink="http://www.w3.org/1999/xlink" xmlns="http://www.w3.org/2000/svg" class="tile-content-text__icon icon icon--circle-arrow-right" width="100.2"  height="100.2" ><defs><symbol viewBox="0 0 100.2 100.2" id="icon-circle-arrow-right" xmlns="http://www.w3.org/2000/svg"><path d="M0 50.1c0 27.6 22.5 50.1 50.1 50.1s50.1-22.5 50.1-50.1S77.7 0 50.1 0 0 22.5 0 50.1zm96.3 0c0 25.4-20.7 46.1-46.1 46.1S4.1 75.5 4.1 50.1 24.8 4 50.2 4s46.1 20.7 46.1 46.1zM55 35.6l10.8 12.5H30.1c-1.1 0-2 .9-2 2s.9 2 2 2h35.8L55.1 64.6c-.7.8-.6 2.1.2 2.8.8.7 2.1.6 2.8-.2l14.7-17.1L58.1 33c-.7-.8-2-.9-2.8-.2-.9.7-1 2-.3 2.8z"></path></symbol></defs> <use xlink:href="#icon-circle-arrow-right" fill="#FFFFFF"></use> </svg>