<svg width="92" height="92" viewBox="0 0 92 92" fill="none" xmlns="http://www.w3.org/2000/svg">
<g clip-path="url(#clip0_139_752)">
<path d="M38.9817 39.6909C38.9374 37.6504 37.2515 35.973 35.1553 36.005L22.1156 36.207L16.3185 27.7696L23.0616 33.608L25.9979 33.5625V25.2042C25.9979 22.289 23.6347 19.9259 20.7196 19.9259H11.3065C7.94025 19.9259 5.68482 23.0595 6.0282 25.4202V52.3276L7.73666 66.1066L0.325827 84.0931C-0.580155 86.2923 0.46796 88.8095 2.66715 89.7155C4.86616 90.6216 7.38376 89.573 8.28974 87.3742L16.1315 68.341C16.4141 67.6548 16.5147 66.9073 16.4235 66.1705L15.0758 55.3009H18.4209L19.6334 64.5861L15.3439 84.8415C14.851 87.1684 16.3379 89.454 18.6649 89.9467C20.9961 90.44 23.2785 88.9491 23.7701 86.6258L27.9437 66.9175C26.3936 64.7329 25.3354 62.1407 24.8995 59.3823C24.5078 56.9012 25.0276 53.8273 26.4428 50.2156L25.9974 46.2723C20.063 46.364 19.5639 46.5025 18.1634 46.0407C16.3374 45.4386 15.0009 44.0144 14.6372 43.0806L10.6435 32.8256L17.0452 42.1428C17.7513 43.1708 18.945 43.7972 20.2109 43.7774L35.2717 43.544C37.377 43.5116 39.015 41.766 38.983 39.7161C38.9832 39.7077 38.9819 39.6994 38.9817 39.6909Z" fill="#004155"/>
<path d="M16.0539 1.95874C11.7386 1.95874 8.24023 5.45707 8.24023 9.77243C8.24023 14.1025 11.7592 17.5861 16.0539 17.5861C20.3488 17.5861 23.8676 14.1025 23.8676 9.77243C23.8676 5.45707 20.3693 1.95874 16.0539 1.95874Z" fill="#004155"/>
<path d="M36.1643 28.1293L32.6205 28.689C31.6466 28.8428 31.0938 29.8897 31.5125 30.78L32.7718 33.4575C35.1352 33.4209 35.9979 33.305 37.354 33.7889L37.863 29.7766C37.9872 28.797 37.134 27.9758 36.1643 28.1293Z" fill="#004155"/>
<path d="M50.3142 55.3672C49.6291 51.0301 44.7495 46.0118 40.8817 42.6385C39.8121 44.7536 37.6754 46.092 35.312 46.1281L31.3197 46.1899C29.0718 50.309 26.9811 55.3202 27.5565 58.9626C28.7137 66.2874 34.7456 71.4228 41.0312 70.4299C47.3153 69.4369 51.4716 62.6933 50.3142 55.3672Z" fill="#004155"/>
<path d="M82.3922 74.1484C79.3687 74.1484 76.7349 75.8459 75.3921 78.338C75.6868 79.1579 75.8981 79.9513 76.0187 80.7144C76.3394 82.745 76.3178 84.7748 75.9581 86.7501C77.4035 88.7423 79.7482 90.0412 82.3922 90.0412C86.774 90.0412 90.3386 86.4764 90.3386 82.0947C90.3386 77.7131 86.774 74.1484 82.3922 74.1484ZM82.3922 85.5237C80.5015 85.5237 78.9634 83.9856 78.9634 82.0947C78.9634 80.2041 80.5015 78.666 82.3922 78.666C84.2828 78.666 85.8211 80.2041 85.8211 82.0947C85.8211 83.9854 84.2828 85.5237 82.3922 85.5237Z" fill="#004155"/>
<path d="M89.6208 39.808H87.5729C87.7573 39.47 87.8624 39.0825 87.8624 38.6703C87.8624 37.3562 86.7972 36.291 85.4831 36.291H60.3909C59.0769 36.291 58.0117 37.3562 58.0117 38.6703C58.0117 39.0825 58.1166 39.47 58.3012 39.808H56.2533C54.9392 39.808 53.874 40.8732 53.874 42.1873C53.874 43.5013 54.9392 44.5665 56.2533 44.5665H56.5276L57.324 51.4719L58.793 51.2399C61.45 50.8203 63.7999 52.9897 63.6007 55.6703L63.5982 63.3603C65.3014 64.7833 67.6598 67.0301 69.783 69.4895C71.3292 71.2806 72.5949 72.9941 73.5812 74.6235C75.7033 72.1246 78.8651 70.5344 82.3929 70.5344C83.7838 70.5344 85.1182 70.7816 86.3546 71.2339L89.3536 44.5665H89.6212C90.9352 44.5665 92.0004 43.5013 92.0004 42.1873C92 40.8732 90.9349 39.808 89.6208 39.808Z" fill="#004155"/>
<path d="M73.3628 81.134C72.3584 74.7782 63.5431 66.6165 60.9082 64.6563L60.9112 55.5438C61.0352 54.5661 60.1853 53.7424 59.2126 53.8963L55.6688 54.456C54.6951 54.6098 54.1422 55.6567 54.5609 56.547L57.1328 65.3285C55.2304 68.0055 49.6008 78.3736 50.6047 84.7291C50.7161 85.4348 50.8732 86.1199 51.0712 86.7812C51.611 88.5841 53.2681 89.8154 55.1501 89.8154H69.1159C71.1618 89.8154 72.9221 88.3597 73.2999 86.349C73.6099 84.697 73.6471 82.9332 73.3628 81.134Z" fill="#004155"/>
</g>
<defs>
<clipPath id="clip0_139_752">
<rect width="92" height="92" fill="white"/>
</clipPath>
</defs>
</svg>
